SplineFontDB: 3.2
FontName: TemporaSerif-Regular
FullName: Tempora Serif Regular
FamilyName: Tempora Serif
Weight: Regular
Copyright: Copyright Copyright 2012-2024 The Libertinus Project Authors.\n-------------------------------------------------------------\nCopyright (C) 2025, Ioannes Bracledius.
Version: 5.0
ItalicAngle: 0
UnderlinePosition: -95
UnderlineWidth: 40
Ascent: 750
Descent: 250
InvalidEm: 0
sfntRevision: 0x00070d0e
LayerCount: 2
Layer: 0 0 "Atr+AOEA-s" 1
Layer: 1 0 "Fore" 0
XUID: [1021 149 -1843968052 3143474]
StyleMap: 0x0040
FSType: 0
OS2Version: 4
OS2_WeightWidthSlopeOnly: 0
OS2_UseTypoMetrics: 1
CreationTime: 1156455862
ModificationTime: 1759196061
PfmFamily: 81
TTFWeight: 400
TTFWidth: 5
LineGap: 0
VLineGap: 0
Panose: 0 0 0 0 0 0 0 0 0 0
OS2TypoAscent: 894
OS2TypoAOffset: 0
OS2TypoDescent: -246
OS2TypoDOffset: 0
OS2TypoLinegap: 0
OS2WinAscent: 894
OS2WinAOffset: 0
OS2WinDescent: 246
OS2WinDOffset: 0
HheadAscent: 894
HheadAOffset: 0
HheadDescent: -246
HheadDOffset: 0
OS2SubXSize: 650
OS2SubYSize: 600
OS2SubXOff: 0
OS2SubYOff: 75
OS2SupXSize: 650
OS2SupYSize: 600
OS2SupXOff: 0
OS2SupYOff: 350
OS2StrikeYSize: 40
OS2StrikeYPos: 257
OS2CapHeight: 658
OS2XHeight: 429
OS2FamilyClass: 261
OS2Vendor: 'QUE '
OS2CodePages: 600001bf.00000000
OS2UnicodeRanges: e0000aff.5200e5fb.01000020.00000000
Lookup: 1 0 0 "'locl' Localized Forms in Cyrillic lookup 0" { "'locl' Localized Forms in Cyrillic lookup 0 subtable"  } ['locl' ('cyrl' <'MKD ' 'SRB ' > ) ]
Lookup: 1 0 0 "'locl' Localized Forms in Latin lookup 1" { "'locl' Localized Forms in Latin lookup 1 subtable"  } ['locl' ('latn' <'FIN ' 'ISM ' 'LSM ' 'NOR ' 'NSM ' 'SKS ' 'SSM ' 'SVE ' 'TRK ' > ) ]
Lookup: 4 0 0 "'locl' Localized Forms in Latin lookup 2" { "'locl' Localized Forms in Latin lookup 2 subtable"  } ['locl' ('latn' <'NLD ' > ) ]
Lookup: 1 0 0 "Single Substitution lookup 3" { "Single Substitution lookup 3 subtable"  } []

StartChar: .notdef
Encoding: 1114112 -1 0
Width: 500
GlyphClass: 1
Flags: MW
HStem: 0 50<80 420 80 500> 647 51<80 420 80 80>
VStem: 0 50<95 603 95 698> 450 50<95 603 603 603>
LayerCount: 2
Fore
SplineSet
0 0 m 1
 0 698 l 1
 500 698 l 1
 500 0 l 1
 0 0 l 1
80 50 m 1
 420 50 l 1
 250 304 l 1
 80 50 l 1
50 603 m 1
 50 95 l 1
 220 349 l 1
 50 603 l 1
280 349 m 1
 450 95 l 1
 450 603 l 1
 280 349 l 1
250 394 m 1
 420 647 l 1
 80 647 l 1
 250 394 l 1
EndSplineSet
EndChar

StartChar: exclam
Encoding: 33 33 2
Width: 288
GlyphClass: 2
Flags: MW
HStem: -10 106<129.5 158.5> 638 20G<132 156>
VStem: 91 106<28.5 57.5 552.5 612>
LayerCount: 2
Fore
SplineSet
144 658 m 0
 168 658 197 639 197 585 c 0
 197 520 183 478 173 392 c 0
 160 284 160 224 158 210 c 0
 157 199 154 190 144 190 c 0
 134 190 131 197 130 203 c 0
 128 224 122 314 114 392 c 0
 105 480 91 515 91 585 c 0
 91 639 120 658 144 658 c 0
91 43 m 0
 91 72 115 96 144 96 c 0
 173 96 197 72 197 43 c 0
 197 14 173 -10 144 -10 c 0
 115 -10 91 14 91 43 c 0
EndSplineSet
EndChar

StartChar: quotedbl
Encoding: 34 34 3
Width: 336
GlyphClass: 2
Flags: MW
HStem: 625 20G<225 253>
VStem: 63 86<603 605> 189 86<604 606>
LayerCount: 2
Fore
SplineSet
89 426 m 1
 89 426 63 585 63 594 c 0
 63 616 84 644 114 644 c 0
 140 644 149 627 149 611 c 0
 149 595 116 430 116 430 c 1
 89 426 l 1
215 427 m 1
 215 427 189 586 189 595 c 0
 189 617 210 645 240 645 c 0
 266 645 275 628 275 612 c 0
 275 596 242 431 242 431 c 1
 215 427 l 1
EndSplineSet
EndChar

StartChar: numbersign
Encoding: 35 35 4
Width: 465
GlyphClass: 2
Flags: MW
HStem: 192 53<34 119 26 128 165 269 34 157 316 404> 360 53<61 146 53 154 61 184 191 297 342 430>
VStem: 26 412<192 413>
LayerCount: 2
Fore
SplineSet
335 360 m 1
 316 245 l 1
 411 245 l 1
 404 192 l 1
 310 192 l 1
 280 14 l 1
 242 14 l 1
 269 192 l 1
 157 192 l 1
 128 14 l 1
 91 14 l 1
 119 192 l 1
 26 192 l 1
 34 245 l 1
 128 245 l 1
 146 360 l 1
 53 360 l 1
 61 413 l 1
 154 413 l 1
 183 592 l 1
 221 592 l 1
 191 413 l 1
 305 413 l 1
 333 592 l 1
 371 592 l 1
 342 413 l 1
 438 413 l 1
 430 360 l 1
 335 360 l 1
279 245 m 1
 297 360 l 1
 184 360 l 1
 165 245 l 1
 279 245 l 1
EndSplineSet
EndChar

StartChar: dollar
Encoding: 36 36 5
Width: 465
GlyphClass: 2
Flags: MW
HStem: -9 33<223 225> 12 144 575 34<255 257> 578 31 675 20G<255.5 262>
VStem: 51 67<449 499> 184.5 36.5 195 36.5 213 36 222.5 37 339 78<141.5 178>
LayerCount: 2
Fore
SplineSet
371 585 m 1x9ca0
 381 536 385 510 388 465 c 1
 381 459 371 459 361 459 c 2
 357 459 l 1
 341 511 318 561 255 575 c 1
 243 351 l 1xaca0
 261 344 278 338 289 333 c 0
 356 304 417 260 417 171 c 0
 417 112 383 54 330 21 c 0
 300 2 262 -8 223 -9 c 1
 219 -93 l 1
 211 -97 192 -98 182 -98 c 1
 187 -8 l 1x9e20
 125 -4 100 12 48 12 c 1
 37 58 33 81 29 153 c 1
 38 158 48 160 59 156 c 1
 77 76 121 36 188 26 c 1
 202 281 l 1x5d20
 197 284 191 286 186 288 c 0
 114 319 51 364 51 451 c 0
 51 547 130 607 220 610 c 1
 225 690 l 1
 234 693 249 695 262 695 c 1
 257 609 l 1x9c60
 319 606 324 591 371 585 c 1x9ca0
238 268 m 1x9d20
 225 24 l 1
 298 25 339 65 339 139 c 0
 339 217 289 247 238 268 c 1x9d20
207 367 m 1x9ca0
 219 578 l 1
 164 577 118 528 118 476 c 0
 118 422 162 389 207 367 c 1x9ca0
EndSplineSet
EndChar

StartChar: percent
Encoding: 37 37 6
Width: 637
GlyphClass: 2
Flags: MW
HStem: -12 31<467.5 504.5 467.5 512.5> 225 31<498.5 530> 303 31<146 182.5 146 191> 484 37<355 369> 540 31<176.5 204 154 210>
VStem: 57 54<386.5 427 372 456> 244 33<450 484.5 448 504> 378 55<71.5 112 57 139> 565 33<136 190>
LayerCount: 2
Fore
SplineSet
364 521 m 0
 406 521 483 533 514 575 c 1
 546 559 l 1
 136 -12 l 1
 102 3 l 1
 461 503 l 1
 423 488 384 484 354 484 c 0
 331 484 293 494 274 505 c 1
 276 498 277 489 277 480 c 0
 277 416 233 303 149 303 c 0
 87 303 57 361 57 412 c 0
 57 500 118 571 190 571 c 0
 218 571 247 558 257 546 c 1
 311 521 346 521 364 521 c 0
378 98 m 0
 378 180 438 256 512 256 c 0
 552 256 598 238 598 165 c 0
 598 98 554 -12 471 -12 c 0
 410 -12 378 45 378 98 c 0
111 398 m 0
 111 346 137 334 155 334 c 0
 210 334 244 421 244 479 c 0
 244 529 219 540 201 540 c 0
 152 540 111 456 111 398 c 0
433 83 m 0
 433 31 458 19 477 19 c 0
 532 19 565 108 565 164 c 0
 565 216 537 225 523 225 c 0
 474 225 433 141 433 83 c 0
EndSplineSet
EndChar

StartChar: ampersand
Encoding: 38 38 7
Width: 705
GlyphClass: 2
Flags: MW
HStem: -10 33<210.5 277.5 210.5 277.5> 393 33<482 482 661 661> 614 33<313 346.5>
VStem: 43 82<107 191.5 107 195.5> 177 74<507.5 546.5> 390 69<521 561.5> 534 132
LayerCount: 2
Fore
SplineSet
421 94 m 1
 375 31 320 -10 235 -10 c 0
 128 -10 43 34 43 156 c 0
 43 235 96 302 228 376 c 1
 191 440 177 479 177 517 c 0
 177 576 231 647 331 647 c 0
 401 647 459 602 459 539 c 0
 459 484 393 419 310 371 c 1
 314 363 l 2
 332 332 390 249 436 187 c 1
 472 240 496 283 513 315 c 0
 551 385 536 390 482 393 c 1
 476 399 476 420 482 426 c 1
 502 425 543 424 577 424 c 0
 611 424 641 425 661 426 c 1
 667 420 667 399 661 393 c 1
 600 389 593 384 547 302 c 0
 520 254 498 214 458 157 c 1
 494 107 l 2
 525 64 555 44 571 44 c 0
 604 44 627 59 647 98 c 1
 658 98 663 93 668 88 c 1
 645 18 600 -10 565 -10 c 0
 534 -10 497 -8 450 57 c 2
 421 94 l 1
250 338 m 1
 147 281 125 227 125 156 c 0
 125 58 179 23 242 23 c 0
 313 23 349 59 398 126 c 1
 341 201 261 317 250 338 c 1
289 409 m 1
 353 451 390 503 390 539 c 0
 390 584 367 614 326 614 c 0
 300 614 251 585 251 519 c 0
 251 496 263 458 289 409 c 1
EndSplineSet
Substitution2: "'ss06' Style Set 6 lookup 45 subtable" ampersand.alt
Substitution2: "'salt' Stylistic Alternatives lookup 22 subtable" ampersand.alt
EndChar

StartChar: quotesingle
Encoding: 39 39 8
Width: 190
GlyphClass: 2
Flags: MW
HStem: 426 218<79 117>
VStem: 53 86<603 605>
LayerCount: 2
Fore
SplineSet
79 426 m 1
 79 426 53 585 53 594 c 0
 53 616 74 644 104 644 c 0
 130 644 139 627 139 611 c 0
 139 595 106 430 106 430 c 1
 79 426 l 1
EndSplineSet
EndChar

StartChar: parenleft
Encoding: 40 40 9
Width: 298
GlyphClass: 2
Flags: MW
HStem: -204 911<256 256>
VStem: 44 83<229.5 345>
LayerCount: 2
Fore
SplineSet
44 252 m 0
 44 438 137 605 256 707 c 1
 267 706 274 699 277 689 c 1
 245 653 127 515 127 252 c 0
 127 -11 244 -149 277 -187 c 1
 274 -195 266 -202 256 -204 c 1
 48 -24 44 207 44 252 c 0
EndSplineSet
MultipleSubs2: "'c2sc' Capitals to Small Capitals lookup 12 subtable" parenleft.sc
Substitution2: "'case' Case-Sensitive Forms lookup 8 subtable" parenleft.sc
Substitution2: "'subs' Subscript lookup 7 subtable" uni208D
Substitution2: "'sups' Superscript lookup 6 subtable" uni207D
Substitution2: "Single Substitution lookup 4 subtable" uni207D
Substitution2: "Single Substitution lookup 3 subtable" uni208D
EndChar

StartChar: parenright
Encoding: 41 41 10
Width: 298
GlyphClass: 2
Flags: MW
HStem: 671 20G
VStem: 171 83<159 274.5 159 383.5>
LayerCount: 2
Fore
SplineSet
254 252 m 0
 254 66 161 -101 42 -203 c 1
 31 -202 24 -195 21 -185 c 1
 53 -149 171 -11 171 252 c 0
 171 515 54 653 21 691 c 1
 24 699 32 706 42 708 c 1
 250 528 254 297 254 252 c 0
EndSplineSet
MultipleSubs2: "'c2sc' Capitals to Small Capitals lookup 12 subtable" parenright.sc
Substitution2: "'case' Case-Sensitive Forms lookup 8 subtable" parenright.sc
Substitution2: "'subs' Subscript lookup 7 subtable" uni208E
Substitution2: "'sups' Superscript lookup 6 subtable" uni207E
Substitution2: "Single Substitution lookup 4 subtable" uni207E
Substitution2: "Single Substitution lookup 3 subtable" uni208E
EndChar

StartChar: asterisk
Encoding: 42 42 11
Width: 369
GlyphClass: 2
Flags: MW
HStem: 551 67<66 133.5> 678 20G<172 190>
VStem: 151 63<649.5 669.5>
LayerCount: 2
Fore
SplineSet
168 547 m 1
 155 550 141 551 126 551 c 0
 77 551 45 558 45 588 c 0
 45 602 54 618 78 618 c 0
 112 618 130 585 174 567 c 1
 170 606 151 633 151 659 c 0
 151 680 163 698 181 698 c 0
 199 698 214 687 214 663 c 0
 214 636 197 596 195 566 c 1
 241 586 257 618 290 618 c 0
 317 618 324 598 324 588 c 0
 324 558 289 551 255 551 c 0
 236 551 218 550 200 547 c 1
 234 510 283 500 283 460 c 0
 283 442 268 431 254 431 c 0
 215 431 208 496 183 535 c 1
 158 490 151 431 113 431 c 0
 96 431 84 444 84 459 c 0
 84 502 135 510 168 547 c 1
EndSplineSet
EndChar

StartChar: plus
Encoding: 43 43 12
Width: 550
GlyphClass: 2
Flags: MW
HStem: 226 50<70.5 250 85 250 85 250 300 463> 442 20G<278 287>
VStem: 250 50<60 66 66 226 276 435 435 441.5>
LayerCount: 2
Fore
SplineSet
250 435 m 2
 250 448 273 462 283 462 c 0
 291 462 300 458 300 448 c 2
 300 276 l 1
 476 276 l 2
 486 276 490 267 490 259 c 0
 490 249 476 226 463 226 c 2
 300 226 l 1
 300 66 l 2
 300 54 281 41 266 41 c 0
 258 41 250 47 250 56 c 2
 250 226 l 1
 75 226 l 2
 66 226 60 234 60 242 c 0
 60 257 73 276 85 276 c 2
 250 276 l 1
 250 435 l 2
EndSplineSet
Substitution2: "'subs' Subscript lookup 7 subtable" uni208A
Substitution2: "'sups' Superscript lookup 6 subtable" uni207A
Substitution2: "Single Substitution lookup 4 subtable" uni207A
Substitution2: "Single Substitution lookup 3 subtable" uni208A
EndChar

StartChar: comma
Encoding: 44 44 13
Width: 220
GlyphClass: 2
Flags: MW
HStem: -133 228
VStem: 131 39<-39 -17.5>
LayerCount: 2
Fore
SplineSet
104 95 m 0
 144 95 170 56 170 -4 c 0
 170 -74 112 -122 52 -133 c 1
 45 -126 43 -119 43 -109 c 1
 95 -96 131 -50 131 -29 c 0
 131 -6 114 0 95 2 c 0
 77 5 51 15 51 46 c 0
 51 74 73 95 104 95 c 0
EndSplineSet
EndChar

StartChar: hyphen
Encoding: 45 45 14
Width: 338
GlyphClass: 2
Flags: MW
HStem: 223 60<50.5 284 65 271>
VStem: 40 258<237 268>
LayerCount: 2
Fore
SplineSet
271 223 m 2
 55 223 l 2
 46 223 40 232 40 242 c 0
 40 260 53 283 65 283 c 2
 284 283 l 2
 294 283 298 273 298 263 c 0
 298 251 284 223 271 223 c 2
EndSplineSet
MultipleSubs2: "'c2sc' Capitals to Small Capitals lookup 12 subtable" hyphen.sc
MultipleSubs2: "'smcp' Lowercase to Small Capitals lookup 10 subtable" hyphen.sc
Substitution2: "'case' Case-Sensitive Forms lookup 8 subtable" hyphen.cap
Substitution2: "'subs' Subscript lookup 7 subtable" uni208B
Substitution2: "'sups' Superscript lookup 6 subtable" uni207B
Substitution2: "Single Substitution lookup 4 subtable" uni207B
Substitution2: "Single Substitution lookup 3 subtable" uni208B
EndChar

StartChar: period
Encoding: 46 46 15
Width: 220
GlyphClass: 2
Flags: MW
HStem: -10 106<95.5 124.5>
VStem: 57 106<28.5 57.5>
LayerCount: 2
Fore
SplineSet
57 43 m 0
 57 72 81 96 110 96 c 0
 139 96 163 72 163 43 c 0
 163 14 139 -10 110 -10 c 0
 81 -10 57 14 57 43 c 0
EndSplineSet
EndChar

StartChar: slash
Encoding: 47 47 16
Width: 323
GlyphClass: 2
Flags: MW
HStem: 626 20G<252 293 293 293>
VStem: 15 278
LayerCount: 2
Fore
SplineSet
293 646 m 1
 56 -59 l 1
 15 -59 l 1
 252 646 l 1
 293 646 l 1
EndSplineSet
Substitution2: "'sups' Superscript lookup 6 subtable" fraction
Substitution2: "Single Substitution lookup 4 subtable" fraction
EndChar

StartChar: zero
Encoding: 48 48 17
Width: 465
GlyphClass: 2
Flags: MW
HStem: -10 35<208.5 238 182.5 266.5> 575 35<209.5 240.5>
VStem: 39 87<240.5 393> 335 87<276 352.5 185.5 389>
LayerCount: 2
Fore
SplineSet
228 -10 m 0
 189 -10 155 4 127 32 c 0
 72 87 39 187 39 294 c 0
 39 492 133 610 232 610 c 0
 286 610 328 580 354 545 c 0
 398 487 422 402 422 303 c 0
 422 68 305 -10 228 -10 c 0
232 575 m 0
 187 575 126 529 126 283 c 0
 126 196 136 25 229 25 c 0
 247 25 296 34 318 116 c 0
 332 167 335 230 335 322 c 0
 335 456 308 532 277 558 c 0
 265 569 249 575 232 575 c 0
EndSplineSet
Substitution2: "'zero' Slashed Zero lookup 19 subtable" zero.slash
Substitution2: "'pnum' Proportional Numbers lookup 17 subtable" zero.fitted
Substitution2: "'onum' Oldstyle Figures lookup 15 subtable" zero.oldstyle
Substitution2: "'case' Case-Sensitive Forms lookup 8 subtable" zero.cap
Substitution2: "'subs' Subscript lookup 7 subtable" uni2080
Substitution2: "'sups' Superscript lookup 6 subtable" uni2070
Substitution2: "Single Substitution lookup 4 subtable" uni2070
Substitution2: "Single Substitution lookup 3 subtable" uni2080
EndChar

StartChar: one
Encoding: 49 49 18
Width: 465
GlyphClass: 2
Flags: MW
HStem: -2 33<114 114 375 375> 588 20G<285 287>
VStem: 211 77<122 448 448 465>
LayerCount: 2
Fore
SplineSet
288 122 m 2
 288 39 305 34 375 31 c 1
 381 25 381 4 375 -2 c 1
 325 -1 301 0 253 0 c 0
 199 0 163 -1 114 -2 c 1
 108 4 108 25 114 31 c 1
 184 34 211 39 211 122 c 2
 211 448 l 2
 211 482 208 506 191 506 c 0
 172 506 150 500 104 481 c 1
 95 487 91 497 89 508 c 1
 177 549 230 574 285 608 c 0
 289 608 291 608 291 603 c 0
 289 590 288 529 288 469 c 2
 288 122 l 2
EndSplineSet
Substitution2: "'pnum' Proportional Numbers lookup 17 subtable" one.fitted
Substitution2: "'onum' Oldstyle Figures lookup 15 subtable" one.oldstyle
Substitution2: "'case' Case-Sensitive Forms lookup 8 subtable" one.cap
Substitution2: "'subs' Subscript lookup 7 subtable" uni2081
Substitution2: "'sups' Superscript lookup 6 subtable" uni00B9
Substitution2: "Single Substitution lookup 4 subtable" uni00B9
Substitution2: "Single Substitution lookup 3 subtable" uni2081
EndChar

StartChar: two
Encoding: 50 50 19
Width: 465
GlyphClass: 2
Flags: MW
HStem: 0 65<119 313 135 310> 575 35<198.5 253>
VStem: 52 83<0 0 0 27.5> 61 75<457.5 526.5> 61 87<458 473 458 498> 322 88<422 502>
LayerCount: 2
Fore
SplineSet
61 468 m 0xcc
 61 528 130 610 241 610 c 0
 322 610 410 566 410 458 c 0
 410 382 367 338 310 283 c 2
 209 186 l 2
 204 181 135 113 135 65 c 1
 313 65 l 2
 349 65 366 90 383 161 c 1
 393 163 406 161 412 156 c 1
 411 126 401 51 388 -2 c 1
 388 -2 342 0 310 0 c 2
 135 0 l 2
 103 0 52 -2 52 -2 c 1xe4
 52 57 68 105 166 205 c 2
 240 278 l 2
 299 338 322 390 322 454 c 0
 322 550 271 575 235 575 c 0
 162 575 136 539 136 514 c 0xd4
 136 506 142 497 144 490 c 0
 146 483 148 477 148 469 c 0
 148 447 118 429 101 429 c 0
 80 429 61 447 61 468 c 0xcc
EndSplineSet
Substitution2: "'pnum' Proportional Numbers lookup 17 subtable" two.fitted
Substitution2: "'onum' Oldstyle Figures lookup 15 subtable" two.oldstyle
Substitution2: "'case' Case-Sensitive Forms lookup 8 subtable" two.cap
Substitution2: "'subs' Subscript lookup 7 subtable" uni2082
Substitution2: "'sups' Superscript lookup 6 subtable" uni00B2
Substitution2: "Single Substitution lookup 4 subtable" uni00B2
Substitution2: "Single Substitution lookup 3 subtable" uni2082
EndChar

StartChar: three
Encoding: 51 51 20
Width: 465
GlyphClass: 2
Flags: MW
HStem: -10 35<175.5 218.5 175.5 247.5> 575 35<202 236.5>
VStem: 47 73<489.5 497.5> 298 78<465.5 507 465.5 517> 325 88<133 241.5>
LayerCount: 2
Fore
SplineSet
215 575 m 0xf0
 189 575 120 563 120 499 c 0
 120 480 116 447 81 447 c 0
 57 447 47 467 47 481 c 0
 47 514 89 610 236 610 c 0
 288 610 323 593 345 571 c 0
 369 546 376 522 376 492 c 0xf0
 376 439 353 398 271 359 c 1
 272 357 l 1
 331 347 413 308 413 199 c 0
 413 67 307 -10 188 -10 c 0
 128 -10 44 17 44 57 c 0
 44 73 65 92 86 92 c 0
 106 92 119 80 129 66 c 0
 141 48 150 25 201 25 c 0
 236 25 325 52 325 185 c 0xe8
 325 298 251 314 194 314 c 0
 181 314 163 314 146 312 c 1
 141 344 l 1
 240 358 298 435 298 485 c 0
 298 549 258 575 215 575 c 0xf0
EndSplineSet
Substitution2: "'pnum' Proportional Numbers lookup 17 subtable" three.fitted
Substitution2: "'onum' Oldstyle Figures lookup 15 subtable" three.oldstyle
Substitution2: "'case' Case-Sensitive Forms lookup 8 subtable" three.cap
Substitution2: "'subs' Subscript lookup 7 subtable" uni2083
Substitution2: "'sups' Superscript lookup 6 subtable" uni00B3
Substitution2: "Single Substitution lookup 4 subtable" uni00B3
Substitution2: "Single Substitution lookup 3 subtable" uni2083
EndChar

StartChar: four
Encoding: 52 52 21
Width: 465
GlyphClass: 2
Flags: MW
HStem: -2 33<190 190 417 417> 172 47<52 271 80 271 80 271 347 416> 590 20G<315 347 347 347>
VStem: 271 76<80 172 219 507 507 507>
LayerCount: 2
Fore
SplineSet
430 219 m 2
 441 219 445 213 445 203 c 0
 445 191 430 172 416 172 c 2
 347 172 l 1
 347 80 l 2
 347 33 368 35 417 31 c 1
 423 25 423 4 417 -2 c 1
 385 -1 347 0 308 0 c 0
 262 0 222 -1 190 -2 c 1
 184 4 184 25 190 31 c 1
 233 34 271 34 271 80 c 2
 271 172 l 1
 67 172 l 2
 37 172 31 199 28 214 c 1
 120 357 236 522 299 599 c 0
 303 604 308 610 315 610 c 2
 347 610 l 1
 349 608 l 1
 347 600 347 561 347 511 c 2
 347 219 l 1
 430 219 l 2
271 507 m 1
 202 413 131 301 80 219 c 1
 271 219 l 1
 271 507 l 1
EndSplineSet
Substitution2: "'pnum' Proportional Numbers lookup 17 subtable" four.fitted
Substitution2: "'onum' Oldstyle Figures lookup 15 subtable" four.oldstyle
Substitution2: "'case' Case-Sensitive Forms lookup 8 subtable" four.cap
Substitution2: "'subs' Subscript lookup 7 subtable" uni2084
Substitution2: "'sups' Superscript lookup 6 subtable" uni2074
Substitution2: "Single Substitution lookup 4 subtable" uni2074
Substitution2: "Single Substitution lookup 3 subtable" uni2084
EndChar

StartChar: five
Encoding: 53 53 22
Width: 465
GlyphClass: 2
Flags: MW
HStem: -11 35<190 239 190 258> 341 50<207.5 235.5> 533 67<244 244.5 199.5 283> 587 20G<389 389>
VStem: 319 89<144 243.5>
LayerCount: 2
Fore
SplineSet
319 189 m 0xe8
 319 298 268 341 203 341 c 0
 167 341 129 337 76 317 c 1
 110 605 l 1
 145 602 181 600 218 600 c 0xe8
 271 600 325 605 382 611 c 1
 389 607 l 1xd8
 373 539 l 1
 332 535 298 533 268 533 c 0
 220 533 188 538 151 542 c 1
 131 375 l 1
 149 382 186 391 229 391 c 0
 341 391 408 304 408 207 c 0
 408 81 320 -11 196 -11 c 0
 139 -11 54 23 54 64 c 0
 54 84 73 101 92 101 c 0
 113 101 130 86 143 69 c 0
 158 49 171 24 209 24 c 0
 269 24 319 94 319 189 c 0xe8
EndSplineSet
Substitution2: "'pnum' Proportional Numbers lookup 17 subtable" five.fitted
Substitution2: "'onum' Oldstyle Figures lookup 15 subtable" five.oldstyle
Substitution2: "'case' Case-Sensitive Forms lookup 8 subtable" five.cap
Substitution2: "'subs' Subscript lookup 7 subtable" uni2085
Substitution2: "'sups' Superscript lookup 6 subtable" uni2075
Substitution2: "Single Substitution lookup 4 subtable" uni2075
Substitution2: "Single Substitution lookup 3 subtable" uni2085
EndChar

StartChar: six
Encoding: 54 54 23
Width: 465
GlyphClass: 2
Flags: MW
HStem: -11 35<215.5 271.5 215.5 301.5> 330 35<226 267>
VStem: 44 83<143.5 240.5 143.5 271.5> 338 83<159 209>
LayerCount: 2
Fore
SplineSet
144 343 m 1
 174 357 213 365 239 365 c 0
 375 365 421 288 421 202 c 0
 421 116 367 -11 236 -11 c 0
 159 -11 44 29 44 232 c 0
 44 311 75 402 137 474 c 0
 193 539 255 581 356 611 c 1
 364 606 368 597 368 585 c 1
 235 535 171 434 144 343 c 1
135 307 m 1
 129 278 127 252 127 229 c 0
 127 58 184 24 247 24 c 0
 296 24 338 74 338 184 c 0
 338 234 316 330 218 330 c 0
 201 330 168 329 135 307 c 1
EndSplineSet
Substitution2: "'pnum' Proportional Numbers lookup 17 subtable" six.fitted
Substitution2: "'onum' Oldstyle Figures lookup 15 subtable" six.oldstyle
Substitution2: "'case' Case-Sensitive Forms lookup 8 subtable" six.cap
Substitution2: "'subs' Subscript lookup 7 subtable" uni2086
Substitution2: "'sups' Superscript lookup 6 subtable" uni2076
Substitution2: "Single Substitution lookup 4 subtable" uni2076
Substitution2: "Single Substitution lookup 3 subtable" uni2086
EndChar

StartChar: seven
Encoding: 55 55 24
Width: 465
GlyphClass: 2
Flags: MW
HStem: -10 21G<200 200> -6 21G<124 124> 535 65<154 170 170 331 331 349>
VStem: 51 373
LayerCount: 2
Fore
SplineSet
170 535 m 2x70
 138 535 105 528 83 448 c 1
 72 447 62 448 51 451 c 1
 59 503 70 563 71 611 c 0
 71 614 72 614 75 614 c 0
 93 610 91 600 125 600 c 2
 331 600 l 2
 369 600 391 606 408 611 c 1
 424 599 l 1
 312 326 257 160 200 -10 c 1xb0
 132 -13 l 1
 124 -6 l 1
 192 146 271 341 349 535 c 1
 170 535 l 2x70
EndSplineSet
Substitution2: "'pnum' Proportional Numbers lookup 17 subtable" seven.fitted
Substitution2: "'onum' Oldstyle Figures lookup 15 subtable" seven.oldstyle
Substitution2: "'case' Case-Sensitive Forms lookup 8 subtable" seven.cap
Substitution2: "'subs' Subscript lookup 7 subtable" uni2087
Substitution2: "'sups' Superscript lookup 6 subtable" uni2077
Substitution2: "Single Substitution lookup 4 subtable" uni2077
Substitution2: "Single Substitution lookup 3 subtable" uni2087
EndChar

StartChar: eight
Encoding: 56 56 25
Width: 465
GlyphClass: 2
Flags: MW
HStem: -10 35<203.5 248.5 203.5 289.5> 575 35<204 266.5>
VStem: 46 67<101 161 101 165.5> 71 71<475.5 510.5> 323 70<459 509> 346 73<124 166>
LayerCount: 2
Fore
SplineSet
393 485 m 0xe8
 393 421 317 369 270 346 c 1
 341 303 l 2
 394 271 419 220 419 162 c 0
 419 86 355 -10 224 -10 c 0
 118 -10 46 44 46 146 c 0
 46 185 63 230 104 266 c 0xe4
 129 288 156 306 185 321 c 1
 159 337 l 2
 98 375 71 416 71 472 c 0xd8
 71 549 137 610 239 610 c 0
 337 610 393 557 393 485 c 0xe8
226 25 m 0
 271 25 346 42 346 142 c 0
 346 190 321 237 259 275 c 2
 212 303 l 1
 126 246 113 176 113 146 c 0
 113 56 181 25 226 25 c 0
234 575 m 0xd8
 174 575 142 537 142 491 c 0
 142 460 149 427 212 386 c 2
 243 367 l 1
 270 387 323 432 323 486 c 0
 323 532 299 575 234 575 c 0xd8
EndSplineSet
Substitution2: "'pnum' Proportional Numbers lookup 17 subtable" eight.fitted
Substitution2: "'onum' Oldstyle Figures lookup 15 subtable" eight.oldstyle
Substitution2: "'case' Case-Sensitive Forms lookup 8 subtable" eight.cap
Substitution2: "'subs' Subscript lookup 7 subtable" uni2088
Substitution2: "'sups' Superscript lookup 6 subtable" uni2078
Substitution2: "Single Substitution lookup 4 subtable" uni2078
Substitution2: "Single Substitution lookup 3 subtable" uni2088
EndChar

StartChar: nine
Encoding: 57 57 26
Width: 465
GlyphClass: 2
Flags: MW
HStem: -12 21G 234 35<204 245> 575 35<199.5 255.5>
VStem: 50 83<390 440> 344 83<359 455.5>
LayerCount: 2
Fore
SplineSet
327 256 m 1
 297 242 258 234 232 234 c 0
 96 234 50 311 50 397 c 0
 50 483 104 610 235 610 c 0
 312 610 427 570 427 367 c 0
 427 288 396 197 334 125 c 0
 278 60 216 18 115 -12 c 1
 107 -7 103 2 103 14 c 1
 236 64 300 165 327 256 c 1
336 292 m 1
 342 321 344 348 344 370 c 0
 344 541 287 575 224 575 c 0
 175 575 133 525 133 415 c 0
 133 365 155 269 253 269 c 0
 270 269 303 270 336 292 c 1
EndSplineSet
Substitution2: "'pnum' Proportional Numbers lookup 17 subtable" nine.fitted
Substitution2: "'onum' Oldstyle Figures lookup 15 subtable" nine.oldstyle
Substitution2: "'case' Case-Sensitive Forms lookup 8 subtable" nine.cap
Substitution2: "'subs' Subscript lookup 7 subtable" uni2089
Substitution2: "'sups' Superscript lookup 6 subtable" uni2079
Substitution2: "Single Substitution lookup 4 subtable" uni2079
Substitution2: "Single Substitution lookup 3 subtable" uni2089
EndChar

StartChar: colon
Encoding: 58 58 27
Width: 236
GlyphClass: 2
Flags: MW
HStem: 7 106<108.5 137.5> 305 106<108.5 137.5>
VStem: 70 106<45.5 74.5 343.5 372.5>
LayerCount: 2
Fore
SplineSet
70 60 m 0
 70 89 94 113 123 113 c 0
 152 113 176 89 176 60 c 0
 176 31 152 7 123 7 c 0
 94 7 70 31 70 60 c 0
70 358 m 0
 70 387 94 411 123 411 c 0
 152 411 176 387 176 358 c 0
 176 329 152 305 123 305 c 0
 94 305 70 329 70 358 c 0
EndSplineSet
EndChar

StartChar: semicolon
Encoding: 59 59 28
Width: 236
GlyphClass: 2
Flags: MW
HStem: 302 106<108.5 137.5>
VStem: 70 106<340.5 369.5> 150 39<-39 -17.5>
LayerCount: 2
Fore
SplineSet
123 95 m 0xa0
 163 95 189 56 189 -4 c 0
 189 -74 131 -122 71 -133 c 1
 64 -126 62 -119 62 -109 c 1
 114 -96 150 -50 150 -29 c 0
 150 -6 133 0 114 2 c 0
 96 5 70 15 70 46 c 0
 70 74 92 95 123 95 c 0xa0
70 355 m 0xc0
 70 384 94 408 123 408 c 0
 152 408 176 384 176 355 c 0
 176 326 152 302 123 302 c 0
 94 302 70 326 70 355 c 0xc0
EndSplineSet
EndChar

StartChar: less
Encoding: 60 60 29
Width: 550
GlyphClass: 2
Flags: MW
HStem: 73 331<455 455>
VStem: 58 407
LayerCount: 2
Fore
SplineSet
138 239 m 1
 455 123 l 1
 468 109 469 79 455 73 c 1
 65 215 l 1
 56 230 56 246 65 263 c 1
 455 404 l 1
 469 398 468 368 455 354 c 1
 138 239 l 1
EndSplineSet
EndChar

StartChar: equal
Encoding: 61 61 30
Width: 550
GlyphClass: 2
Flags: MW
HStem: 143 50<70.5 477 85 464> 309 50<70.5 477 85 464>
VStem: 60 431<155 180 171 332.5>
LayerCount: 2
Fore
SplineSet
464 309 m 2
 75 309 l 2
 66 309 60 317 60 325 c 0
 60 340 73 359 85 359 c 2
 477 359 l 2
 487 359 491 350 491 342 c 0
 491 332 477 309 464 309 c 2
464 143 m 2
 75 143 l 2
 66 143 60 151 60 159 c 0
 60 174 73 193 85 193 c 2
 477 193 l 2
 487 193 491 184 491 176 c 0
 491 166 477 143 464 143 c 2
EndSplineSet
Substitution2: "'subs' Subscript lookup 7 subtable" uni208C
Substitution2: "'sups' Superscript lookup 6 subtable" uni207C
Substitution2: "Single Substitution lookup 4 subtable" uni207C
Substitution2: "Single Substitution lookup 3 subtable" uni208C
EndChar

StartChar: greater
Encoding: 62 62 31
Width: 550
GlyphClass: 2
Flags: MW
HStem: 71 331<95 95>
VStem: 85 407
LayerCount: 2
Fore
SplineSet
412 236 m 1
 95 352 l 1
 82 366 81 396 95 402 c 1
 485 260 l 1
 494 245 494 229 485 212 c 1
 95 71 l 1
 81 77 82 107 95 121 c 1
 412 236 l 1
EndSplineSet
EndChar

StartChar: question
Encoding: 63 63 32
Width: 435
GlyphClass: 2
Flags: MW
HStem: -10 106<182.5 211.5> 626 33<194.5 239.5>
VStem: 46 68<512.5 587> 46 80<512.5 528.5 510.5 549> 144 106<28.5 57.5> 181 33<184 228> 306 83<480.5 536.5>
LayerCount: 2
Fore
SplineSet
114 572 m 0xe6
 114 557 116 551 120 546 c 0
 124 541 126 535 126 522 c 0
 126 499 106 487 87 487 c 0
 71 487 46 495 46 530 c 0
 46 568 67 596 97 620 c 0xd6
 126 645 168 659 221 659 c 0
 323 659 389 599 389 508 c 0
 389 429 327 385 280 351 c 0
 257 334 237 318 228 301 c 0
 215 276 214 252 214 228 c 2
 214 184 l 2
 214 177 205 174 197 174 c 0
 189 174 181 177 181 184 c 2
 181 230 l 2
 181 273 186 332 251 391 c 0
 291 428 306 457 306 504 c 0
 306 569 268 626 211 626 c 0
 154 626 114 602 114 572 c 0xe6
144 43 m 0xda
 144 72 168 96 197 96 c 0
 226 96 250 72 250 43 c 0
 250 14 226 -10 197 -10 c 0
 168 -10 144 14 144 43 c 0xda
EndSplineSet
EndChar

StartChar: at
Encoding: 64 64 33
Width: 895
GlyphClass: 2
Flags: MW
HStem: -158 33<344 510.5> 27 35<593 645 593 660> 29 41<392.5 412.5> 379 31<495.5 522> 580 31<383 521.5>
VStem: 59 80<166 330.5> 273 73<138 193 138 224.5> 515 68<69 75.5> 759 80<225 375.5 225 378>
LayerCount: 2
Fore
SplineSet
583 74 m 0xdf80
 583 64 592 62 594 62 c 0
 696 62 759 109 759 275 c 0
 759 481 584 580 459 580 c 0
 307 580 139 478 139 241 c 0
 139 91 215 -125 473 -125 c 0
 558 -125 620 -102 674 -59 c 1
 687 -77 l 1
 627 -123 567 -158 454 -158 c 0
 215 -158 59 10 59 223 c 0
 59 438 244 611 469 611 c 0
 684 611 839 469 839 282 c 0
 839 168 769 27 551 27 c 0
 522 27 515 52 515 68 c 0xdf80
 515 83 522 106 530 131 c 1
 528 132 l 1
 484 58 430 29 395 29 c 0xbf80
 295 29 273 113 273 153 c 0
 273 296 400 410 506 410 c 0
 539 410 573 393 583 367 c 1
 588 391 l 1
 641 404 l 1
 656 399 l 1
 596 141 l 2
 590 114 583 81 583 74 c 0xdf80
569 316 m 0
 569 354 540 379 504 379 c 0
 487 379 444 370 414 339 c 0
 363 288 346 224 346 162 c 0
 346 114 361 70 424 70 c 0xbf80
 459 70 508 127 539 200 c 0
 552 231 569 282 569 316 c 0
EndSplineSet
EndChar

StartChar: A
Encoding: 65 65 34
Width: 695
GlyphClass: 2
Flags: MW
HStem: -2 33<7 7 224 224 440 440 685 685> 241 42<233 440 263 440 263 456> 638 20G
VStem: 3 149
AnchorPoint: "Anchor-5" 116 5 basechar 0
AnchorPoint: "Anchor-2" 308 -110 basechar 0
AnchorPoint: "Anchor-0" 354 850 basechar 0
LayerCount: 2
Fore
SplineSet
155 79 m 2
 139 38 186 34 224 31 c 1
 230 25 230 4 224 -2 c 1
 187 -1 137 0 96 0 c 0
 66 0 33 -1 7 -2 c 1
 1 4 1 25 7 31 c 1
 51 34 81 40 107 102 c 2
 334 638 l 1
 347 638 374 649 389 658 c 1
 595 86 l 2
 612 38 646 35 685 31 c 1
 691 25 691 4 685 -2 c 1
 650 -1 612 0 571 0 c 0
 532 0 477 -1 440 -2 c 1
 434 4 434 25 440 31 c 1
 488 34 526 38 514 72 c 2
 456 241 l 1
 245 241 l 2
 221 241 215 237 210 224 c 2
 155 79 l 2
263 283 m 2
 440 283 l 1
 346 555 l 1
 340 555 l 1
 238 296 l 2
 234 286 241 283 263 283 c 2
EndSplineSet
MultipleSubs2: "'c2sc' Capitals to Small Capitals lookup 12 subtable" a.sc
Position2: "'cpsp' Capital Spacing lookup 3 subtable" dx=2 dy=0 dh=5 dv=0
EndChar

StartChar: B
Encoding: 66 66 35
Width: 588
GlyphClass: 2
Flags: MW
HStem: -2 33<253 350 239 394.5> 332 34<191 265 191 260> 613 34<255.5 306>
VStem: 106 85<122 332 366 523 523 550> 407 81<466 526.5 466 532> 454 93<141 210>
AnchorPoint: "Anchor-6" 306 175 basechar 0
AnchorPoint: "Anchor-5" 250 0 basechar 0
AnchorPoint: "Anchor-3" 509 732 basechar 0
AnchorPoint: "Anchor-2" 268 -110 basechar 0
AnchorPoint: "Anchor-0" 267 850 basechar 0
LayerCount: 2
Fore
SplineSet
148 645 m 0xf8
 184 645 238 647 273 647 c 0
 459 647 488 560 488 493 c 0xf8
 488 439 443 387 393 362 c 1
 393 360 l 1
 480 335 547 280 547 184 c 0xf4
 547 98 494 -2 295 -2 c 0
 211 -2 185 0 149 0 c 0
 112 0 58 -1 19 -2 c 1
 13 4 13 25 19 31 c 1
 89 34 106 39 106 122 c 2
 106 523 l 2
 106 606 89 611 19 614 c 1
 13 620 13 641 19 647 c 1
 58 646 112 645 148 645 c 0xf8
191 332 m 1
 191 118 l 2
 191 57 204 31 274 31 c 0
 426 31 454 92 454 165 c 0xf4
 454 255 397 332 260 332 c 2
 191 332 l 1
191 550 m 2
 191 366 l 1
 265 366 l 2
 348 366 407 396 407 481 c 0xf8
 407 583 334 613 278 613 c 0
 191 613 191 603 191 550 c 2
EndSplineSet
MultipleSubs2: "'c2sc' Capitals to Small Capitals lookup 12 subtable" b.sc
Position2: "'cpsp' Capital Spacing lookup 3 subtable" dx=2 dy=0 dh=5 dv=0
EndChar

StartChar: C
Encoding: 67 67 36
Width: 646
GlyphClass: 2
Flags: MW
HStem: -10 41<288.5 402.5 288.5 405.5> 621 37<321 416>
VStem: 37 91<256 362>
AnchorPoint: "Anchor-6" 346 315 basechar 0
AnchorPoint: "Anchor-5" 356 -7 basechar 0
AnchorPoint: "Anchor-3" 609 732 basechar 0
AnchorPoint: "Anchor-2" 363 -110 basechar 0
AnchorPoint: "Anchor-1" 620 606 basechar 0
AnchorPoint: "Anchor-0" 340 850 basechar 0
LayerCount: 2
Fore
SplineSet
357 -10 m 0
 142 -10 37 136 37 310 c 0
 37 414 77 512 143 573 c 0
 202 627 273 658 358 658 c 0
 481 658 526 618 577 613 c 1
 587 558 594 510 599 458 c 1
 588 452 578 449 566 453 c 1
 540 539 485 621 347 621 c 0
 295 621 237 593 187 532 c 0
 151 487 128 415 128 329 c 0
 128 183 221 31 356 31 c 0
 449 31 517 62 588 140 c 1
 599 140 606 134 611 125 c 1
 543 36 454 -10 357 -10 c 0
EndSplineSet
MultipleSubs2: "'c2sc' Capitals to Small Capitals lookup 12 subtable" c.sc
Position2: "'cpsp' Capital Spacing lookup 3 subtable" dx=2 dy=0 dh=5 dv=0
EndChar

StartChar: D
Encoding: 68 68 37
Width: 701
GlyphClass: 2
Flags: MW
HStem: -2 34<279.5 370.5 251 401.5> 613 34<277.5 383>
VStem: 106 85<122 523 523 564> 562 96<185 361>
AnchorPoint: "Anchor-6" 346 315 basechar 0
AnchorPoint: "Anchor-5" 309 1 basechar 0
AnchorPoint: "Anchor-3" 619 732 basechar 0
AnchorPoint: "Anchor-2" 309 -110 basechar 0
AnchorPoint: "Anchor-0" 306 850 basechar 0
LayerCount: 2
Fore
SplineSet
19 647 m 1
 59 646 112 645 148 645 c 0
 187 645 242 647 313 647 c 0
 505 647 658 494 658 308 c 0
 658 62 472 -2 331 -2 c 0
 228 -2 186 0 149 0 c 0
 111 0 58 -1 19 -2 c 1
 13 4 13 25 19 31 c 1
 89 34 106 39 106 122 c 2
 106 523 l 2
 106 606 89 611 19 614 c 1
 13 620 13 641 19 647 c 1
191 84 m 2
 191 52 202 32 300 32 c 0
 441 32 562 82 562 284 c 0
 562 438 491 613 275 613 c 0
 226 613 191 599 191 564 c 2
 191 84 l 2
EndSplineSet
MultipleSubs2: "'c2sc' Capitals to Small Capitals lookup 12 subtable" d.sc
Position2: "'cpsp' Capital Spacing lookup 3 subtable" dx=2 dy=0 dh=5 dv=0
EndChar

StartChar: E
Encoding: 69 69 38
Width: 557
GlyphClass: 2
Flags: MW
HStem: 0 39<246 362 362 363> 323 38<190 281 190 281> 409 20G<372 405> 413 20G 605 40<229 256 256 331> 629 20G<451 452.5>
VStem: 105 85<122 323 361 523 523 541>
AnchorPoint: "Anchor-5" 287 4 basechar 0
AnchorPoint: "Anchor-3" 527 732 basechar 0
AnchorPoint: "Anchor-2" 287 -110 basechar 0
AnchorPoint: "Anchor-0" 281 850 basechar 0
LayerCount: 2
Fore
SplineSet
281 361 m 2xda
 366 361 369 374 372 429 c 1xda
 378 435 399 435 405 429 c 1
 404 405 403 371 403 343 c 0
 403 309 404 281 405 255 c 1
 399 249 378 249 372 255 c 1
 369 300 366 323 281 323 c 2
 190 323 l 1
 190 102 l 2
 190 55 204 39 246 39 c 2
 362 39 l 2
 438 39 473 98 493 170 c 1
 506 173 518 171 528 165 c 1
 520 114 505 48 491 -2 c 1
 491 -2 411 0 363 0 c 2
 148 0 l 2
 115 0 55 -1 18 -2 c 1
 12 4 12 25 18 31 c 1
 88 34 105 39 105 122 c 2
 105 523 l 2
 105 606 88 611 18 614 c 1
 12 620 12 641 18 647 c 1
 58 646 117 645 147 645 c 2
 402 645 l 2xea
 426 645 434 646 451 649 c 0
 454 649 455 648 455 646 c 0xd6
 457 638 472 542 477 501 c 1
 467 496 456 494 444 496 c 1
 422 565 406 605 331 605 c 2
 256 605 l 2
 202 605 190 585 190 541 c 2
 190 361 l 1
 281 361 l 2xda
EndSplineSet
MultipleSubs2: "'c2sc' Capitals to Small Capitals lookup 12 subtable" e.sc
Position2: "'cpsp' Capital Spacing lookup 3 subtable" dx=2 dy=0 dh=5 dv=0
EndChar

StartChar: F
Encoding: 70 70 39
Width: 485
GlyphClass: 2
Flags: MW
HStem: -2 21G 323 38<190 283 190 283> 409 20G<374 407> 413 20G 605 40<224 246 246 291> 629 20G<449 450.5>
VStem: 105 85<122 323 361 523 523 541>
AnchorPoint: "Anchor-5" 153 -1 basechar 0
AnchorPoint: "Anchor-3" 507 732 basechar 0
AnchorPoint: "Anchor-2" 209 -110 basechar 0
AnchorPoint: "Anchor-0" 284 850 basechar 0
LayerCount: 2
Fore
SplineSet
283 323 m 2xda
 190 323 l 1
 190 122 l 2
 190 39 207 34 277 31 c 1
 283 25 283 4 277 -2 c 1
 242 -1 193 0 148 0 c 0
 103 0 53 -1 18 -2 c 1
 12 4 12 25 18 31 c 1
 88 34 105 39 105 122 c 2
 105 523 l 2
 105 606 88 611 18 614 c 1
 12 620 12 641 18 647 c 1
 58 646 115 645 147 645 c 2
 402 645 l 2xda
 427 645 432 646 449 649 c 0
 452 649 453 648 453 646 c 0xd6
 455 638 470 542 475 501 c 1
 467 498 456 496 444 496 c 1
 422 565 397 605 291 605 c 2
 246 605 l 2
 202 605 190 595 190 541 c 2
 190 361 l 1
 283 361 l 2
 368 361 371 374 374 429 c 1xda
 380 435 401 435 407 429 c 1
 406 403 405 377 405 343 c 0xea
 405 309 406 280 407 255 c 1
 401 249 380 249 374 255 c 1
 371 300 368 323 283 323 c 2xda
EndSplineSet
MultipleSubs2: "'c2sc' Capitals to Small Capitals lookup 12 subtable" f.sc
Position2: "'cpsp' Capital Spacing lookup 3 subtable" dx=2 dy=0 dh=5 dv=0
EndChar

StartChar: G
Encoding: 71 71 40
Width: 685
GlyphClass: 2
Flags: MW
HStem: -10 36<296 402 296 411> 265 36<448 448 661 661> 622 36<305 432.5 293.5 435.5>
VStem: 37 96<261 414.5 261 417> 530 85<95.5 101 101 217>
AnchorPoint: "Anchor-6" 308 335 basechar 0
AnchorPoint: "Anchor-5" 337 2 basechar 0
AnchorPoint: "Anchor-3" 631 732 basechar 0
AnchorPoint: "Anchor-2" 367 -110 basechar 0
AnchorPoint: "Anchor-1" 600 606 basechar 0
AnchorPoint: "Anchor-0" 365 850 basechar 0
LayerCount: 2
Fore
SplineSet
377 658 m 0
 488 658 525 623 585 613 c 1
 601 541 606 501 608 459 c 1
 597 454 586 452 575 453 c 1
 549 539 508 622 363 622 c 0
 247 622 133 502 133 327 c 0
 133 195 217 26 375 26 c 0
 429 26 496 32 530 64 c 1
 530 217 l 2
 530 257 503 261 448 265 c 1
 442 271 442 295 448 301 c 1
 492 300 539 299 572 299 c 0
 612 299 637 300 661 301 c 1
 667 295 667 271 661 265 c 1
 632 262 615 252 615 217 c 2
 615 101 l 2
 615 90 620 82 631 73 c 1
 563 15 470 -10 352 -10 c 0
 161 -10 37 127 37 307 c 0
 37 527 210 658 377 658 c 0
EndSplineSet
MultipleSubs2: "'c2sc' Capitals to Small Capitals lookup 12 subtable" g.sc
Position2: "'cpsp' Capital Spacing lookup 3 subtable" dx=2 dy=0 dh=5 dv=0
EndChar

StartChar: H
Encoding: 72 72 41
Width: 730
GlyphClass: 2
Flags: MW
HStem: -2 21G 321 42<191 533 191 533> 627 20G
VStem: 106 85<122 321 363 523> 533 85<122 321 321 321 363 523>
AnchorPoint: "Anchor-6" 356 485 basechar 0
AnchorPoint: "Anchor-5" 150 0 basechar 0
AnchorPoint: "Anchor-3" 729 732 basechar 0
AnchorPoint: "Anchor-2" 362 -110 basechar 0
AnchorPoint: "Anchor-0" 361 850 basechar 0
LayerCount: 2
Fore
SplineSet
618 122 m 2
 618 39 635 34 705 31 c 1
 711 25 711 4 705 -2 c 1
 661 -1 613 0 576 0 c 0
 539 0 491 -1 446 -2 c 1
 440 4 440 25 446 31 c 1
 516 34 533 39 533 122 c 2
 533 321 l 1
 191 321 l 1
 191 122 l 2
 191 39 208 34 278 31 c 1
 284 25 284 4 278 -2 c 1
 234 -1 185 0 149 0 c 0
 111 0 63 -1 19 -2 c 1
 13 4 13 25 19 31 c 1
 89 34 106 39 106 122 c 2
 106 523 l 2
 106 606 89 611 19 614 c 1
 13 620 13 641 19 647 c 1
 57 646 98 645 148 645 c 0
 199 645 240 646 278 647 c 1
 284 641 284 620 278 614 c 1
 208 611 191 606 191 523 c 2
 191 363 l 1
 533 363 l 1
 533 523 l 2
 533 606 516 611 446 614 c 1
 440 620 440 641 446 647 c 1
 490 646 538 645 575 645 c 0
 613 645 664 646 705 647 c 1
 711 641 711 620 705 614 c 1
 635 611 618 606 618 523 c 2
 618 122 l 2
EndSplineSet
MultipleSubs2: "'c2sc' Capitals to Small Capitals lookup 12 subtable" h.sc
Position2: "'cpsp' Capital Spacing lookup 3 subtable" dx=2 dy=0 dh=5 dv=0
EndChar

StartChar: I
Encoding: 73 73 42
Width: 297
GlyphClass: 2
Flags: MW
HStem: -2 21G 627 20G
VStem: 106 85<122 523>
AnchorPoint: "Anchor-6" 148 325 basechar 0
AnchorPoint: "Anchor-5" 147 1 basechar 0
AnchorPoint: "Anchor-2" 147 -110 basechar 0
AnchorPoint: "Anchor-0" 150 850 basechar 0
LayerCount: 2
Fore
SplineSet
191 122 m 2
 191 39 208 34 278 31 c 1
 284 25 284 4 278 -2 c 1
 233 -1 185 0 149 0 c 0
 113 0 64 -1 19 -2 c 1
 13 4 13 25 19 31 c 1
 89 34 106 39 106 122 c 2
 106 523 l 2
 106 606 89 611 19 614 c 1
 13 620 13 641 19 647 c 1
 66 646 115 645 148 645 c 0
 187 645 234 646 278 647 c 1
 284 641 284 620 278 614 c 1
 208 611 191 606 191 523 c 2
 191 122 l 2
EndSplineSet
MultipleSubs2: "'c2sc' Capitals to Small Capitals lookup 12 subtable" i.sc
Position2: "'cpsp' Capital Spacing lookup 3 subtable" dx=2 dy=0 dh=5 dv=0
EndChar

StartChar: J
Encoding: 74 74 43
Width: 322
GlyphClass: 2
Flags: MW
HStem: -172 45<-4 72.5> 614 33<44 44 303 303>
VStem: 141 85<81 103 103 523>
AnchorPoint: "Anchor-6" 186 315 basechar 0
AnchorPoint: "Anchor-2" 109 -319 basechar 0
AnchorPoint: "Anchor-0" 182 850 basechar 0
LayerCount: 2
Fore
SplineSet
226 523 m 2
 226 103 l 2
 226 -40 168 -92 124 -129 c 0
 83 -164 52 -172 7 -172 c 0
 -15 -172 -68 -154 -68 -118 c 0
 -68 -96 -38 -75 -24 -75 c 0
 1 -75 10 -88 16 -100 c 0
 23 -115 37 -127 56 -127 c 0
 89 -127 141 -99 141 81 c 2
 141 523 l 2
 141 606 124 611 44 614 c 1
 38 620 38 641 44 647 c 1
 94 646 147 645 183 645 c 0
 222 645 265 646 303 647 c 1
 309 641 309 620 303 614 c 1
 243 611 226 606 226 523 c 2
EndSplineSet
Substitution2: "'ss02' Style Set 2 lookup 41 subtable" J.alt
Substitution2: "'salt' Stylistic Alternatives lookup 20 subtable" J.alt
MultipleSubs2: "'c2sc' Capitals to Small Capitals lookup 12 subtable" j.sc
Position2: "'cpsp' Capital Spacing lookup 3 subtable" dx=2 dy=0 dh=5 dv=0
EndChar

StartChar: K
Encoding: 75 75 44
Width: 637
GlyphClass: 2
Flags: MW
HStem: -2 33<19 19 278 278 627 627> 309 38<191 191> 614 33<19 19 278 278 407 407 615 615>
VStem: 106 85<122 309 347 523> 454 166
AnchorPoint: "Anchor-5" 148 -1 basechar 0
AnchorPoint: "Anchor-3" 649 732 basechar 0
AnchorPoint: "Anchor-2" 342 -110 basechar 0
AnchorPoint: "Anchor-0" 336 850 basechar 0
LayerCount: 2
Fore
SplineSet
191 122 m 2
 191 39 208 34 278 31 c 1
 284 25 284 4 278 -2 c 1
 233 -1 187 0 149 0 c 0
 110 0 64 -1 19 -2 c 1
 13 4 13 25 19 31 c 1
 89 34 106 39 106 122 c 2
 106 523 l 2
 106 606 89 611 19 614 c 1
 13 620 13 641 19 647 c 1
 64 646 110 645 148 645 c 0
 185 645 232 646 278 647 c 1
 284 641 284 620 278 614 c 1
 208 611 191 606 191 523 c 2
 191 347 l 1
 226 350 249 363 270 386 c 2
 435 562 l 2
 477 607 443 611 407 614 c 1
 401 620 401 641 407 647 c 1
 444 646 483 645 520 645 c 0
 552 645 584 646 615 647 c 1
 621 641 621 620 615 614 c 1
 575 611 535 607 489 558 c 2
 342 407 l 2
 308 372 307 365 307 358 c 0
 307 350 312 342 320 333 c 2
 539 73 l 2
 570 37 598 34 627 31 c 1
 633 25 633 4 627 -2 c 1
 594 -1 560 0 526 0 c 0
 505 0 492 -1 472 -2 c 0
 468 -2 467 1 467 4 c 0
 465 20 451 47 431 73 c 2
 274 271 l 2
 254 297 225 308 191 309 c 1
 191 122 l 2
EndSplineSet
Substitution2: "'ss02' Style Set 2 lookup 41 subtable" K.alt
Substitution2: "'salt' Stylistic Alternatives lookup 20 subtable" K.alt
MultipleSubs2: "'c2sc' Capitals to Small Capitals lookup 12 subtable" k.sc
Position2: "'cpsp' Capital Spacing lookup 3 subtable" dx=2 dy=0 dh=5 dv=0
EndChar

StartChar: L
Encoding: 76 76 45
Width: 528
GlyphClass: 2
Flags: MW
HStem: 0 39<248 311 311 362> 627 20G
VStem: 106 85<122 523>
AnchorPoint: "Anchor-6" 288 315 basechar 0
AnchorPoint: "Anchor-5" 262 1 basechar 0
AnchorPoint: "Anchor-3" 471 732 basechar 0
AnchorPoint: "Anchor-2" 262 -110 basechar 0
AnchorPoint: "Anchor-0" 151 850 basechar 0
LayerCount: 2
Fore
SplineSet
149 0 m 2
 115 0 58 -1 19 -2 c 1
 13 4 13 25 19 31 c 1
 89 34 106 39 106 122 c 2
 106 523 l 2
 106 606 89 611 19 614 c 1
 13 620 13 641 19 647 c 1
 65 646 112 645 148 645 c 0
 186 645 233 646 278 647 c 1
 284 641 284 620 278 614 c 1
 208 611 191 606 191 523 c 2
 191 109 l 2
 191 58 209 39 248 39 c 2
 311 39 l 2
 417 39 454 98 474 170 c 1
 486 172 497 170 507 165 c 1
 501 113 491 48 481 -2 c 1
 481 -2 389 0 362 0 c 2
 149 0 l 2
EndSplineSet
MultipleSubs2: "'c2sc' Capitals to Small Capitals lookup 12 subtable" l.sc
Position2: "'cpsp' Capital Spacing lookup 3 subtable" dx=2 dy=0 dh=5 dv=0
EndChar

StartChar: M
Encoding: 77 77 46
Width: 839
GlyphClass: 2
Flags: MW
HStem: -10 21G<393 399> -2 21G 524 123<67 174 67 172> 534 113 627 20G<67 67 777 777>
VStem: 16 118 135 37<524 533> 663 157
AnchorPoint: "Anchor-6" 426 445 basechar 0
AnchorPoint: "Anchor-5" 107 2 basechar 0
AnchorPoint: "Anchor-2" 393 -110 basechar 0
AnchorPoint: "Anchor-0" 431 850 basechar 0
LayerCount: 2
Fore
SplineSet
663 116 m 2x4d
 637 534 l 1
 635 534 l 1x55
 410 5 l 2
 406 -3 402 -10 396 -10 c 0
 390 -10 384 -2 381 5 c 2
 174 524 l 1
 172 524 l 1xa3
 134 123 l 2
 129 67 134 36 200 31 c 1
 206 25 206 4 200 -2 c 1
 170 -1 130 0 106 0 c 0
 82 0 50 -1 20 -2 c 1
 14 4 14 25 20 31 c 1
 77 36 89 61 95 121 c 2x4d
 135 533 l 2
 142 608 136 610 67 614 c 1
 61 620 61 641 67 647 c 1
 212 645 l 1x4b
 417 137 l 2
 420 129 423 124 425 124 c 0
 427 124 430 128 434 138 c 2
 646 645 l 1
 777 647 l 1
 783 641 783 620 777 614 c 1
 709 610 704 596 708 542 c 2
 738 121 l 2
 744 38 747 34 815 31 c 1
 821 25 821 4 815 -2 c 1
 782 -1 736 0 706 0 c 0
 676 0 636 -1 599 -2 c 1
 593 4 593 25 599 31 c 1
 664 34 668 35 663 116 c 2x4d
EndSplineSet
MultipleSubs2: "'c2sc' Capitals to Small Capitals lookup 12 subtable" m.sc
Position2: "'cpsp' Capital Spacing lookup 3 subtable" dx=2 dy=0 dh=5 dv=0
EndChar

StartChar: N
Encoding: 78 78 47
Width: 699
GlyphClass: 2
Flags: MW
HStem: -10 21G<574 589> -2 21G 614 33<23 23 469 469 692 692>
VStem: 102 49<133 439> 556 49<185 512>
AnchorPoint: "Anchor-6" 356 320 basechar 0
AnchorPoint: "Anchor-5" 125 -4 basechar 0
AnchorPoint: "Anchor-2" 348 -110 basechar 0
AnchorPoint: "Anchor-0" 346 850 basechar 0
LayerCount: 2
Fore
SplineSet
556 512 m 2x78
 556 603 539 607 469 614 c 1
 463 620 463 641 469 647 c 1
 513 646 559 645 580 645 c 0
 604 645 651 646 692 647 c 1
 698 641 698 620 692 614 c 1
 622 607 605 601 605 512 c 2
 605 21 l 2
 605 2 596 -10 582 -10 c 0
 566 -10 553 -1 542 14 c 2xb8
 193 455 l 2
 176 477 165 488 159 488 c 0
 151 488 151 473 151 439 c 2
 151 133 l 2
 151 42 168 38 238 31 c 1
 244 25 244 4 238 -2 c 1
 196 -1 150 0 127 0 c 0
 103 0 58 -1 15 -2 c 1
 9 4 9 25 15 31 c 1
 85 38 102 44 102 133 c 2
 102 550 l 1
 96 576 66 611 23 614 c 1
 17 620 17 641 23 647 c 1
 158 645 l 1
 501 210 l 2
 530 173 545 155 549 155 c 0
 556 155 556 166 556 185 c 2
 556 512 l 2x78
EndSplineSet
MultipleSubs2: "'c2sc' Capitals to Small Capitals lookup 12 subtable" n.sc
Position2: "'cpsp' Capital Spacing lookup 3 subtable" dx=2 dy=0 dh=5 dv=0
EndChar

StartChar: O
Encoding: 79 79 48
Width: 702
GlyphClass: 2
Flags: MW
HStem: -10 36<309 405.5> 622 36<281.5 397>
VStem: 37 96<231 407> 570 96<287 411>
AnchorPoint: "Anchor-6" 346 322 basechar 0
AnchorPoint: "Anchor-5" 350 0 basechar 0
AnchorPoint: "Anchor-2" 350 -110 basechar 0
AnchorPoint: "Anchor-1" 620 606 basechar 0
AnchorPoint: "Anchor-0" 335 850 basechar 0
LayerCount: 2
Fore
SplineSet
666 329 m 0
 666 245 644 173 604 116 c 0
 549 38 461 -10 350 -10 c 0
 180 -10 37 113 37 310 c 0
 37 504 150 658 344 658 c 0
 523 658 666 536 666 329 c 0
331 622 m 0
 232 622 133 537 133 327 c 0
 133 135 248 26 370 26 c 0
 484 26 570 131 570 310 c 0
 570 512 463 622 331 622 c 0
EndSplineSet
MultipleSubs2: "'c2sc' Capitals to Small Capitals lookup 12 subtable" o.sc
Position2: "'cpsp' Capital Spacing lookup 3 subtable" dx=2 dy=0 dh=5 dv=0
EndChar

StartChar: P
Encoding: 80 80 49
Width: 541
GlyphClass: 2
Flags: MW
HStem: -2 33<17 17 291 291> 282 34<252.5 313.5 252.5 361> 618 34<264 310.5> 627 20G
VStem: 104 85<122 292 321 523 523 554> 414 93<443.5 515.5 443.5 531.5>
AnchorPoint: "Anchor-6" 286 464 basechar 0
AnchorPoint: "Anchor-5" 150 -3 basechar 0
AnchorPoint: "Anchor-3" 509 732 basechar 0
AnchorPoint: "Anchor-2" 240 -110 basechar 0
AnchorPoint: "Anchor-0" 277 850 basechar 0
LayerCount: 2
Fore
SplineSet
104 523 m 2xec
 104 606 87 611 17 614 c 1
 11 620 11 641 17 647 c 1xdc
 57 646 109 645 146 645 c 0
 186 645 245 652 283 652 c 0
 468 652 507 545 507 486 c 0
 507 401 452 282 270 282 c 0
 235 282 211 285 189 292 c 1
 189 122 l 2
 189 39 213 35 291 31 c 1
 297 25 297 4 291 -2 c 1
 241 -1 182 0 147 0 c 0
 111 0 62 -1 17 -2 c 1
 11 4 11 25 17 31 c 1
 87 34 104 39 104 122 c 2
 104 523 l 2xec
189 554 m 2
 189 321 l 1
 200 318 240 316 265 316 c 0
 362 316 414 360 414 468 c 0
 414 595 345 618 276 618 c 0
 204 618 189 583 189 554 c 2
EndSplineSet
MultipleSubs2: "'c2sc' Capitals to Small Capitals lookup 12 subtable" p.sc
Position2: "'cpsp' Capital Spacing lookup 3 subtable" dx=2 dy=0 dh=5 dv=0
EndChar

StartChar: Q
Encoding: 81 81 50
Width: 702
GlyphClass: 2
Flags: MW
HStem: -209 57 -114 44 -8 34 622 36<281.5 397>
VStem: 37 96<231 407> 570 96<287 411>
AnchorPoint: "Anchor-6" 336 324 basechar 0
AnchorPoint: "Anchor-3" 619 732 basechar 0
AnchorPoint: "Anchor-1" 620 606 basechar 0
AnchorPoint: "Anchor-0" 348 850 basechar 0
LayerCount: 2
Fore
SplineSet
353 -12 m 0
 323.956054688 -14.3232421875 429.146484375 -46.689453125 476 -69 c 0
 518 -89 552 -109 594 -109 c 0
 623 -109 659 -99 681 -72 c 1
 698 -84 l 1
 659 -140 617 -166 554 -166 c 0
 483 -166 433 -139 386 -112 c 0
 347 -90 311 -71 268 -71 c 0
 260 -71 247 -74 233 -84 c 0
 220 -98 207 -113 195 -130 c 1
 156 -110 l 1
 161 -102 167 -94 174 -87 c 0
 210 -44 248 -39 309 -8 c 1
 158 11 37 129 37 310 c 0
 37 504 150 658 344 658 c 0
 523 658 666 536 666 329 c 0
 666 245 643.450195312 173.381835938 604 116 c 0
 560 52 470.204101562 -2.6259765625 353 -12 c 0
331 622 m 0
 232 622 133 537 133 327 c 0
 133 135 248 26 370 26 c 0
 484 26 570 131 570 310 c 0
 570 512 463 622 331 622 c 0
EndSplineSet
Substitution2: "'salt' Stylistic Alternatives lookup 20 subtable" Q.u
MultipleSubs2: "'c2sc' Capitals to Small Capitals lookup 12 subtable" q.sc
Position2: "'cpsp' Capital Spacing lookup 3 subtable" dx=2 dy=0 dh=5 dv=0
EndChar

StartChar: R
Encoding: 82 82 51
Width: 587
GlyphClass: 2
Flags: MW
HStem: -10 31<515 586> -2 21G 291 34<189 231> 618 34<247.5 302.5 247.5 302.5> 627 20G
VStem: 104 85<122 291 325 523 523 554> 405 92<426.5 504 426.5 537>
AnchorPoint: "Anchor-6" 278 468 basechar 0
AnchorPoint: "Anchor-5" 148 -1 basechar 0
AnchorPoint: "Anchor-3" 519 732 basechar 0
AnchorPoint: "Anchor-2" 258 -110 basechar 0
AnchorPoint: "Anchor-0" 269 850 basechar 0
LayerCount: 2
Fore
SplineSet
189 122 m 2xb6
 189 39 206 34 276 31 c 1
 282 25 282 4 276 -2 c 1
 232 -1 185 0 147 0 c 0
 109 0 62 -1 17 -2 c 1
 11 4 11 25 17 31 c 1
 87 34 104 39 104 122 c 2
 104 523 l 2
 104 606 87 611 17 614 c 1
 11 620 11 641 17 647 c 1x6e
 64 646 111 645 146 645 c 0
 182 645 224 652 271 652 c 0
 334 652 396 649 444 604 c 0
 480 570 497 529 497 479 c 0
 497 374 407 322 364 308 c 1
 490 98 l 2
 516 55 541 21 586 21 c 1
 590 13 591 4 587 -3 c 1
 577 -8 560 -10 545 -10 c 0
 485 -10 442 32 413 79 c 2
 306 253 l 2
 292 276 273 291 189 291 c 1
 189 122 l 2xb6
272 618 m 0
 201 618 189 583 189 554 c 2
 189 325 l 1
 237 325 l 2
 334 325 405 353 405 478 c 0
 405 596 333 618 272 618 c 0
EndSplineSet
Substitution2: "'ss02' Style Set 2 lookup 41 subtable" R.alt
Substitution2: "'salt' Stylistic Alternatives lookup 20 subtable" R.alt
MultipleSubs2: "'c2sc' Capitals to Small Capitals lookup 12 subtable" r.sc
Position2: "'cpsp' Capital Spacing lookup 3 subtable" dx=2 dy=0 dh=5 dv=0
EndChar

StartChar: S
Encoding: 83 83 52
Width: 485
GlyphClass: 2
Flags: MW
HStem: -10 36<188.5 249.5> 13 155 624 34<202.5 280.5>
VStem: 51 71<470 538> 360 84<152 198>
AnchorPoint: "Anchor-6" 236 345 basechar 0
AnchorPoint: "Anchor-5" 224 2 basechar 0
AnchorPoint: "Anchor-3" 481 732 basechar 0
AnchorPoint: "Anchor-2" 234 -110 basechar 0
AnchorPoint: "Anchor-0" 232 850 basechar 0
LayerCount: 2
Fore
SplineSet
395 631 m 1xb8
 405 578 409 550 413 502 c 1
 404 495 391 494 380 496 c 1
 360 562 329 624 232 624 c 0
 173 624 122 568 122 512 c 0
 122 428 222 390 282 368 c 0
 364 337 444 290 444 184 c 0
 444 120 408 59 350 23 c 0
 315 1 272 -10 227 -10 c 0xb8
 138 -10 110 13 47 13 c 1
 35 62 31 88 27 165 c 1x78
 37 170 47 172 60 168 c 1
 82 69 142 26 235 26 c 0
 315 26 360 68 360 149 c 0
 360 247 286 275 226 298 c 0
 138 332 51 380 51 485 c 0
 51 591 140 658 241 658 c 0
 339 658 337 639 395 631 c 1xb8
EndSplineSet
MultipleSubs2: "'c2sc' Capitals to Small Capitals lookup 12 subtable" s.sc
Position2: "'cpsp' Capital Spacing lookup 3 subtable" dx=2 dy=0 dh=5 dv=0
EndChar

StartChar: T
Encoding: 84 84 53
Width: 597
GlyphClass: 2
Flags: MW
HStem: -2 33<168 168 447 447> 606 39<378 390.5> 633 20G<31 32 575 575.5>
VStem: 265 85<122 504>
AnchorPoint: "Anchor-6" 307 285 basechar 0
AnchorPoint: "Anchor-5" 308 10 basechar 0
AnchorPoint: "Anchor-3" 619 732 basechar 0
AnchorPoint: "Anchor-2" 300 -110 basechar 0
AnchorPoint: "Anchor-0" 307 850 basechar 0
LayerCount: 2
Fore
SplineSet
350 122 m 2xd0
 350 39 367 34 447 31 c 1
 453 25 453 4 447 -2 c 1
 397 -1 346 0 308 0 c 0
 268 0 217 -1 168 -2 c 1
 162 4 162 25 168 31 c 1
 248 34 265 39 265 122 c 2
 265 507 l 2
 265 568 255 606 218 606 c 2
 169 606 l 2xd0
 103 606 57 580 37 500 c 1
 25 500 13 501 3 505 c 1
 14 553 24 605 28 650 c 0
 28 651 30 653 32 653 c 0xb0
 70 650 188 645 265 645 c 2
 351 645 l 2xd0
 430 645 541 650 575 653 c 0
 576 653 578 651 578 650 c 0xb0
 579 605 584 554 591 508 c 1
 582 504 568 503 557 503 c 1
 540 580 493 606 418 606 c 2
 396 606 l 2
 360 606 350 568 350 504 c 2
 350 122 l 2xd0
EndSplineSet
MultipleSubs2: "'c2sc' Capitals to Small Capitals lookup 12 subtable" t.sc
Position2: "'cpsp' Capital Spacing lookup 3 subtable" dx=2 dy=0 dh=5 dv=0
EndChar

StartChar: U
Encoding: 85 85 54
Width: 661
GlyphClass: 2
Flags: MW
HStem: -10 41<318 423.5> 614 33<10 10 264 264 434 434 652 652>
VStem: 87 85<233.5 266 266 523> 526 49<277 295 295 523>
AnchorPoint: "Anchor-6" 336 321 basechar 0
AnchorPoint: "Anchor-5" 328 4 basechar 0
AnchorPoint: "Anchor-2" 328 -110 basechar 0
AnchorPoint: "Anchor-0" 346 850 basechar 0
LayerCount: 2
Fore
SplineSet
172 523 m 2
 172 266 l 2
 172 201 174 125 223 78 c 0
 253 49 294 31 342 31 c 0
 511 31 526 165 526 277 c 2
 526 523 l 2
 526 604 509 607 434 614 c 1
 428 620 428 641 434 647 c 1
 480 646 529 645 550 645 c 0
 573 645 614 646 652 647 c 1
 658 641 658 620 652 614 c 1
 592 607 575 603 575 523 c 2
 575 295 l 2
 575 117 526 -10 321 -10 c 0
 219 -10 87 29 87 233 c 2
 87 523 l 2
 87 606 70 611 10 614 c 1
 4 620 4 641 10 647 c 1
 49 646 90 645 129 645 c 0
 168 645 217 646 264 647 c 1
 270 641 270 620 264 614 c 1
 187 611 172 606 172 523 c 2
EndSplineSet
MultipleSubs2: "'c2sc' Capitals to Small Capitals lookup 12 subtable" u.sc
Position2: "'cpsp' Capital Spacing lookup 3 subtable" dx=2 dy=0 dh=5 dv=0
EndChar

StartChar: V
Encoding: 86 86 55
Width: 652
GlyphClass: 2
Flags: MW
HStem: -12 21G<311 321.5> 614 33<6 6 230 230 448 448 645 645>
VStem: 1 166 513 137
AnchorPoint: "Anchor-6" 334 474 basechar 0
AnchorPoint: "Anchor-5" 318 3 basechar 0
AnchorPoint: "Anchor-3" 679 732 basechar 0
AnchorPoint: "Anchor-2" 318 -110 basechar 0
AnchorPoint: "Anchor-0" 336 850 basechar 0
LayerCount: 2
Fore
SplineSet
448 614 m 1
 442 620 442 641 448 647 c 1
 489 646 534 645 557 645 c 0
 580 645 615 646 645 647 c 1
 651 641 651 620 645 614 c 1
 582 607 566 568 547 521 c 2
 340 11 l 2
 334 -3 327 -12 316 -12 c 0
 306 -12 299 -5 293 11 c 2
 96 523 l 2
 69 592 61 609 6 614 c 1
 0 620 -1 641 5 647 c 1
 38 646 73 645 109 645 c 0
 145 645 190 646 230 647 c 1
 236 641 236 620 230 614 c 1
 162 607 156 594 179 534 c 2
 339 127 l 1
 343 127 l 1
 501 528 l 2
 522 582 522 609 448 614 c 1
EndSplineSet
MultipleSubs2: "'c2sc' Capitals to Small Capitals lookup 12 subtable" v.sc
Position2: "'cpsp' Capital Spacing lookup 3 subtable" dx=2 dy=0 dh=5 dv=0
EndChar

StartChar: W
Encoding: 87 87 56
Width: 951
GlyphClass: 2
Flags: MW
HStem: -12 21G<281.5 293.5 625 636.5> 614 33<6 6 215 215 340 340 565 565 744 744 941 941>
VStem: 2 160 336 173 454 55 813 133
AnchorPoint: "Anchor-5" 295 0 basechar 0
AnchorPoint: "Anchor-3" 979 732 basechar 0
AnchorPoint: "Anchor-2" 479 -110 basechar 0
AnchorPoint: "Anchor-0" 450 850 basechar 0
LayerCount: 2
Fore
SplineSet
810 565 m 2xf4
 825 608 785 611 744 614 c 1
 738 620 738 641 744 647 c 1
 784 646 828 645 854 645 c 0
 880 645 912 646 941 647 c 1
 947 641 947 620 941 614 c 1
 886 611 868 588 855 553 c 2
 654 14 l 2
 649 -1 642 -12 631 -12 c 0
 619 -12 614 -2 608 15 c 2
 493 347 l 2
 487 364 483 375 479 375 c 0
 474 375 471 370 462 350 c 2
 313 15 l 2
 306 -2 300 -12 287 -12 c 0
 276 -12 270 -1 265 15 c 2
 77 556 l 2
 58 610 51 611 6 614 c 1
 0 620 0 641 6 647 c 1
 35 646 64 645 99 645 c 0
 138 645 182 646 215 647 c 1
 221 641 221 620 215 614 c 1
 180 612 153 607 165 572 c 2
 311 130 l 1
 316 129 l 1
 445 422 l 2
 453 439 454 447 454 457 c 0
 454 466 451 476 447 488 c 2
 424 554 l 2xec
 415 580 393 611 340 614 c 1
 334 620 334 641 340 647 c 1
 372 646 407 645 440 645 c 0
 480 645 524 646 565 647 c 1
 571 641 571 620 565 614 c 1
 531 611 496 608 513 554 c 2
 651 132 l 1
 654 131 l 1
 810 565 l 2xf4
EndSplineSet
Substitution2: "'ss05' Style Set 5 lookup 44 subtable" W.alt
Substitution2: "'salt' Stylistic Alternatives lookup 20 subtable" W.alt
MultipleSubs2: "'c2sc' Capitals to Small Capitals lookup 12 subtable" w.sc
Position2: "'cpsp' Capital Spacing lookup 3 subtable" dx=2 dy=0 dh=5 dv=0
EndChar

StartChar: X
Encoding: 88 88 57
Width: 660
GlyphClass: 2
Flags: MW
HStem: -2 33<7 7 202 202 424 424 640 640> 614 33<18 18 233 233 432 432 627 627>
VStem: 3 150 3 641 13 177 468 176 481 151
AnchorPoint: "Anchor-6" 326 325 basechar 0
AnchorPoint: "Anchor-5" 102 0 basechar 0
AnchorPoint: "Anchor-3" 689 732 basechar 0
AnchorPoint: "Anchor-2" 307 -110 basechar 0
AnchorPoint: "Anchor-0" 332 850 basechar 0
LayerCount: 2
Fore
SplineSet
538 102 m 2xd0
 580 44 597 34 639 31 c 1
 645 25 646 4 640 -2 c 1
 610 -1 577 0 538 0 c 0
 498 0 461 -1 424 -2 c 1
 418 4 418 25 424 31 c 1
 480 34 476 45 448 85 c 2
 324 261 l 2
 318 269 314 272 310 272 c 0
 307 272 301 266 295 258 c 2
 163 73 l 2
 139 39 158 34 202 31 c 1
 208 25 208 4 202 -2 c 1
 162 -1 120 0 97 0 c 0
 74 0 37 -1 7 -2 c 1
 1 4 1 25 7 31 c 1xe4
 52 35 84 47 118 93 c 2
 266 291 l 2
 272 299 276 308 276 314 c 0
 276 324 270 332 262 344 c 2
 120 547 l 2
 79 606 60 611 18 614 c 1
 12 620 11 641 17 647 c 1
 47 646 80 645 119 645 c 0
 159 645 196 646 233 647 c 1
 239 641 239 620 233 614 c 1
 177 611 181 600 210 560 c 2
 320 396 l 2
 325 389 329 385 332 385 c 0
 336 385 342 389 348 397 c 2
 471 572 l 2
 495 605 476 611 432 614 c 1
 426 620 426 641 432 647 c 1
 472 646 514 645 537 645 c 0
 560 645 597 646 627 647 c 1
 633 641 633 620 627 614 c 1xca
 582 610 551 597 516 552 c 2
 379 375 l 2
 370 363 369 354 369 345 c 0
 369 335 375 325 385 312 c 2
 538 102 l 2xd0
EndSplineSet
MultipleSubs2: "'c2sc' Capitals to Small Capitals lookup 12 subtable" x.sc
Position2: "'cpsp' Capital Spacing lookup 3 subtable" dx=2 dy=0 dh=5 dv=0
EndChar

StartChar: Y
Encoding: 89 89 58
Width: 575
GlyphClass: 2
Flags: MW
HStem: -2 33<155 155 434 434> 614 33<6 6 221 221 395 395 569 569>
VStem: 1 170 252 85<122 249 249 258> 391 183 443 131
AnchorPoint: "Anchor-5" 293 1 basechar 0
AnchorPoint: "Anchor-2" 295 -110 basechar 0
AnchorPoint: "Anchor-0" 295 850 basechar 0
LayerCount: 2
Fore
SplineSet
337 122 m 2xd4
 337 39 354 34 434 31 c 1
 440 25 440 4 434 -2 c 1
 384 -1 334 0 295 0 c 0
 256 0 204 -1 155 -2 c 1
 149 4 149 25 155 31 c 1
 235 34 252 39 252 122 c 2
 252 249 l 2
 252 286 249 297 231 326 c 2
 100 547 l 2
 65 605 48 611 6 614 c 1
 0 620 -1 641 5 647 c 1
 35 646 68 645 107 645 c 0
 147 645 185 646 221 647 c 1
 227 641 227 620 221 614 c 1
 165 611 161 601 185 559 c 2
 301 354 l 2
 310 338 315 337 323 352 c 2
 434 561 l 2xf4
 455 601 439 611 395 614 c 1
 389 620 389 641 395 647 c 1
 427 646 463 645 486 645 c 0
 509 645 541 646 569 647 c 1
 575 641 575 620 569 614 c 1
 524 610 502 601 474 550 c 2
 355 334 l 2
 338 304 337 288 337 258 c 2
 337 122 l 2xd4
EndSplineSet
MultipleSubs2: "'c2sc' Capitals to Small Capitals lookup 12 subtable" y.sc
Position2: "'cpsp' Capital Spacing lookup 3 subtable" dx=2 dy=0 dh=5 dv=0
EndChar

StartChar: Z
Encoding: 90 90 59
Width: 604
GlyphClass: 2
Flags: MW
HStem: 0 38<180.5 189 180.5 424> 606 39<436 439>
VStem: 41 537
AnchorPoint: "Anchor-6" 305 321 basechar 0
AnchorPoint: "Anchor-5" 287 4 basechar 0
AnchorPoint: "Anchor-3" 619 732 basechar 0
AnchorPoint: "Anchor-2" 287 -110 basechar 0
AnchorPoint: "Anchor-0" 320 850 basechar 0
LayerCount: 2
Fore
SplineSet
551 -2 m 1
 551 -2 451 0 424 0 c 2
 60 0 l 2
 46 0 41 5 41 15 c 0
 41 22 43 30 49 38 c 0
 151 190 341 456 438 579 c 0
 443 586 446 592 446 597 c 0
 446 603 442 606 436 606 c 2
 225 602 l 2
 150 601 112 565 91 496 c 1
 80 496 71 498 61 501 c 1
 69 542 79 599 83 653 c 1
 120 650 217 645 264 645 c 2
 485 645 l 2
 515 645 546 647 558 647 c 0
 566 647 571 643 571 636 c 0
 571 625 568 618 547 591 c 0
 429 439 245 178 172 72 c 0
 167 63 164 57 164 52 c 0
 164 43 172 38 189 38 c 2
 382 42 l 2
 491 44 516 99 547 170 c 1
 560 170 571 167 578 165 c 1
 566 113 556 54 551 -2 c 1
EndSplineSet
MultipleSubs2: "'c2sc' Capitals to Small Capitals lookup 12 subtable" z.sc
Position2: "'cpsp' Capital Spacing lookup 3 subtable" dx=2 dy=0 dh=5 dv=0
EndChar

StartChar: bracketleft
Encoding: 91 91 60
Width: 356
GlyphClass: 2
Flags: MW
HStem: -193 30<320 320> 673 30<320 320>
VStem: 108 67<-93.5 -50 -50 561> 108 217
LayerCount: 2
Fore
SplineSet
108 -193 m 1xe0
 108 703 l 1xe0
 320 703 l 1xd0
 326 697 326 679 320 673 c 1
 183 663 175 648 175 561 c 2
 175 -50 l 2xe0
 175 -137 182 -152 320 -163 c 1
 326 -169 326 -187 320 -193 c 1xd0
 108 -193 l 1xe0
EndSplineSet
MultipleSubs2: "'c2sc' Capitals to Small Capitals lookup 12 subtable" bracketleft.sc
Substitution2: "'case' Case-Sensitive Forms lookup 8 subtable" bracketleft.sc
EndChar

StartChar: backslash
Encoding: 92 92 61
Width: 287
GlyphClass: 2
Flags: MW
HStem: 678 20G<11 55 55 55>
VStem: 11 274
LayerCount: 2
Fore
SplineSet
55 698 m 1
 285 -48 l 1
 241 -48 l 1
 11 698 l 1
 55 698 l 1
EndSplineSet
EndChar

StartChar: bracketright
Encoding: 93 93 62
Width: 356
GlyphClass: 2
Flags: MW
HStem: -192 30<36 36> 674 30<36 36>
VStem: 32 216 181 67<-50 561 561 604.5>
LayerCount: 2
Fore
SplineSet
248 704 m 1xd0
 248 -192 l 1xd0
 36 -192 l 1xe0
 30 -186 30 -168 36 -162 c 1
 173 -152 181 -137 181 -50 c 2
 181 561 l 2xd0
 181 648 174 663 36 674 c 1
 30 680 30 698 36 704 c 1xe0
 248 704 l 1xd0
EndSplineSet
MultipleSubs2: "'c2sc' Capitals to Small Capitals lookup 12 subtable" bracketright.sc
Substitution2: "'case' Case-Sensitive Forms lookup 8 subtable" bracketright.sc
EndChar

StartChar: asciicircum
Encoding: 94 94 63
Width: 518
GlyphClass: 2
Flags: MW
HStem: 593 57<259 259>
VStem: 112 295<346 346>
LayerCount: 2
Fore
SplineSet
259 593 m 1
 157 346 l 1
 112 346 l 1
 239 650 l 1
 281 650 l 1
 407 346 l 1
 362 346 l 1
 259 593 l 1
EndSplineSet
EndChar

StartChar: underscore
Encoding: 95 95 64
Width: 486
GlyphClass: 2
Flags: MW
HStem: -154 44<10 476 10 476>
VStem: 4 478
LayerCount: 2
Fore
SplineSet
476 -110 m 1
 484 -118 484 -146 476 -154 c 1
 10 -154 l 1
 2 -146 2 -118 10 -110 c 1
 476 -110 l 1
EndSplineSet
EndChar

StartChar: grave
Encoding: 96 96 65
Width: 392
GlyphClass: 2
Flags: MW
HStem: 538 163<146 243>
VStem: 96 158<546.5 667>
LayerCount: 2
Fore
SplineSet
178 699 m 2
 248 573 l 2
 253 563 254 556 254 549 c 0
 254 544 247 538 239 538 c 0
 233 538 226 543 210 558 c 2
 96 667 l 1
 98 678 l 1
 106 684 129 701 163 701 c 0
 168 701 174 700 178 699 c 2
EndSplineSet
EndChar

StartChar: a
Encoding: 97 97 66
Width: 457
GlyphClass: 2
Flags: MW
HStem: -10 41<166 179.5> -10 48<335 407.5> 406 33<193 229>
VStem: 36 83<86.5 124.5 86.5 132> 55 77<316 379.5> 293 78<48 123 101 123 123 233 233 233>
AnchorPoint: "Anchor-5" 167 -3 basechar 0
AnchorPoint: "Anchor-4" 410 16 basechar 0
AnchorPoint: "Anchor-2" 196 -110 basechar 0
AnchorPoint: "Anchor-0" 209 645 basechar 0
LayerCount: 2
Fore
SplineSet
293 48 m 1xb4
 291 48 l 1
 271 32 l 2
 227 -2 197 -10 162 -10 c 0
 92 -10 36 16 36 98 c 0xb4
 36 166 105 219 201 243 c 2
 287 264 l 2
 290 265 293 269 293 276 c 0
 293 389 246 406 212 406 c 0
 174 406 132 395 132 364 c 0
 132 353 133 347 134 344 c 0
 136 340 137 333 137 326 c 0
 137 313 119 292 90 292 c 0
 67 292 55 304 55 328 c 0
 55 385 138 439 220 439 c 0
 293 439 371 412 371 270 c 2
 371 123 l 2
 371 77 372 38 401 38 c 0
 414 38 431 48 438 54 c 1x6c
 449 48 453 39 455 27 c 1
 434 7 398 -10 360 -10 c 0
 310 -10 299 17 293 48 c 1xb4
293 233 m 1
 214 212 l 2
 140 193 119 147 119 102 c 0
 119 71 141 31 191 31 c 0
 219 31 253 54 279 75 c 0
 287 81 293 88 293 101 c 2
 293 233 l 1
EndSplineSet
MultipleSubs2: "'smcp' Lowercase to Small Capitals lookup 10 subtable" a.sc
Substitution2: "'subs' Subscript lookup 7 subtable" uni2090
Substitution2: "'sups' Superscript lookup 6 subtable" uni1D43
Substitution2: "Single Substitution lookup 4 subtable" uni1D43
Substitution2: "Single Substitution lookup 3 subtable" uni2090
EndChar

StartChar: b
Encoding: 98 98 67
Width: 493
GlyphClass: 2
Flags: MW
HStem: -10 34<217.5 276.5 213.5 286> 0 21G 395 44<257.5 289.5> 641 30 678 20G<148 152.5> 688 10<148 161>
VStem: 78 79<71 321 394.5 399 399 559 559 583> 370 86<167 272.5>
AnchorPoint: "Anchor-6" 236 215 basechar 0
AnchorPoint: "Anchor-3" 420 580 basechar 0
AnchorPoint: "Anchor-2" 234 -110 basechar 0
LayerCount: 2
Fore
SplineSet
167 394 m 0xab
 198 422 236 439 279 439 c 0
 366 439 456 364 456 242 c 0
 456 83 337 -10 235 -10 c 0
 200 -10 170 -4 147 15 c 0
 136 24 130 24 120 12 c 0
 112 3 102 -6 96 -12 c 1xab
 84 -12 79 -8 74 0 c 1
 77 14 78 32 78 71 c 2
 78 559 l 2
 78 638 67 638 23 641 c 2
 14 641 l 1
 8 647 6 663 8 671 c 1x73
 48 674 123 688 148 698 c 0
 157 698 161 695 161 688 c 2xa7
 161 688 157 648 157 583 c 2
 157 399 l 2
 157 390 161 388 167 394 c 0xab
174 363 m 0
 161 352 157 342 157 321 c 2
 157 71 l 1
 177 46 198 24 229 24 c 0
 324 24 370 110 370 224 c 0
 370 321 320 395 259 395 c 0
 230 395 200 386 174 363 c 0
EndSplineSet
MultipleSubs2: "'smcp' Lowercase to Small Capitals lookup 10 subtable" b.sc
Substitution2: "'subs' Subscript lookup 7 subtable" b.inferior
Substitution2: "'sups' Superscript lookup 6 subtable" uni1D47
Substitution2: "Single Substitution lookup 4 subtable" uni1D47
Substitution2: "Single Substitution lookup 3 subtable" b.inferior
EndChar

StartChar: c
Encoding: 99 99 68
Width: 428
GlyphClass: 2
Flags: MW
HStem: -10 49<220.5 265> 406 33<204 266.5>
VStem: 37 86<171.5 279>
AnchorPoint: "Anchor-6" 236 215 basechar 0
AnchorPoint: "Anchor-5" 242 -2 basechar 0
AnchorPoint: "Anchor-4" 361 42 basechar 0
AnchorPoint: "Anchor-2" 236 -110 basechar 0
AnchorPoint: "Anchor-0" 242 645 basechar 0
LayerCount: 2
Fore
SplineSet
398 91 m 1
 348 9 295 -10 235 -10 c 0
 109 -10 37 79 37 208 c 0
 37 350 143 439 242 439 c 0
 338 439 395 399 395 344 c 0
 395 313 367 300 346 300 c 0
 325 300 311 309 308 336 c 0
 304 371 296 406 237 406 c 0
 171 406 123 340 123 230 c 0
 123 113 184 39 257 39 c 0
 300 39 343 61 377 105 c 1
 386 104 394 100 398 91 c 1
EndSplineSet
MultipleSubs2: "'smcp' Lowercase to Small Capitals lookup 10 subtable" c.sc
Substitution2: "'subs' Subscript lookup 7 subtable" c.inferior
Substitution2: "'sups' Superscript lookup 6 subtable" uni1D9C
Substitution2: "Single Substitution lookup 4 subtable" uni1D9C
Substitution2: "Single Substitution lookup 3 subtable" c.inferior
EndChar

StartChar: d
Encoding: 100 100 69
Width: 506
GlyphClass: 2
Flags: MW
HStem: -10 47<208 228.5> 30 27<497 497> 404 35<237 265> 641 30 678 20G<415 419.5> 688 10<415 428>
VStem: 39 86<158.5 240> 345 79<124 130 130 314 314 329.5 431 559 559 583>
AnchorPoint: "Anchor-6" 236 215 basechar 0
AnchorPoint: "Anchor-4" 312 20 basechar 0
AnchorPoint: "Anchor-3" 490 580 basechar 0
AnchorPoint: "Anchor-2" 221 -110 basechar 0
AnchorPoint: "Anchor-1" 500 466 basechar 0
AnchorPoint: "Anchor-0" 218 645 basechar 0
LayerCount: 2
Fore
SplineSet
334 50 m 0xab
 285 10 248 -10 209 -10 c 0
 101 -10 39 80 39 203 c 0
 39 277 65 336 108 379 c 0
 148 417 192 439 258 439 c 0
 291 439 332 422 336 422 c 0
 343 422 345 424 345 431 c 2
 345 559 l 2
 345 638 334 638 290 641 c 2
 281 641 l 1
 275 647 273 663 275 671 c 1xb3
 315 674 390 688 415 698 c 0
 424 698 428 695 428 688 c 2
 428 688 424 648 424 583 c 2
 424 130 l 2
 424 81 433 62 497 57 c 1
 503 51 503 36 497 30 c 1x67
 436 23 401 8 379 -10 c 0
 373 -12 368 -13 360 -10 c 1
 360 -10 352 25 349 49 c 0
 348 56 339 54 334 50 c 0xab
345 124 m 2
 345 314 l 2
 345 345 342 352 328 368 c 0
 308 391 283 404 247 404 c 0
 227 404 185 401 154 354 c 0
 139 333 125 293 125 221 c 0
 125 96 181 37 235 37 c 0
 260 37 292 53 329 85 c 0
 343 97 345 105 345 124 c 2
EndSplineSet
MultipleSubs2: "'smcp' Lowercase to Small Capitals lookup 10 subtable" d.sc
Substitution2: "'subs' Subscript lookup 7 subtable" d.inferior
Substitution2: "'sups' Superscript lookup 6 subtable" uni1D48
Substitution2: "Single Substitution lookup 4 subtable" uni1D48
Substitution2: "Single Substitution lookup 3 subtable" d.inferior
EndChar

StartChar: e
Encoding: 101 101 70
Width: 447
GlyphClass: 2
Flags: MW
HStem: -10 49<244 275> 246 39 404 33<225 256>
VStem: 37 84<219 248 219 278> 320 86<294.5 305 257.5 341>
AnchorPoint: "Anchor-6" 236 215 basechar 0
AnchorPoint: "Anchor-5" 241 -3 basechar 0
AnchorPoint: "Anchor-4" 384 41 basechar 0
AnchorPoint: "Anchor-2" 234 -110 basechar 0
AnchorPoint: "Anchor-1" 420 396 basechar 0
AnchorPoint: "Anchor-0" 243 645 basechar 0
LayerCount: 2
Fore
SplineSet
386 93 m 1
 398 92 404 87 407 77 c 1
 367 25 313 -10 237 -10 c 0
 165 -10 118 14 84 54 c 0
 51 92 37 146 37 202 c 0
 37 354 150 437 237 437 c 0
 376 437 406 347 406 263 c 0
 406 252 399 246 387 246 c 2
 121 248 l 1
 121 190 133 144 153 111 c 0
 184 60 226 39 262 39 c 0
 320 39 349 55 386 93 c 1
124 282 m 1
 305 285 l 2
 316 285 320 290 320 299 c 0
 320 383 275 404 237 404 c 0
 213 404 143 395 124 282 c 1
EndSplineSet
MultipleSubs2: "'smcp' Lowercase to Small Capitals lookup 10 subtable" e.sc
Substitution2: "'subs' Subscript lookup 7 subtable" uni2091
Substitution2: "'sups' Superscript lookup 6 subtable" uni1D49
Substitution2: "Single Substitution lookup 4 subtable" uni1D49
Substitution2: "Single Substitution lookup 3 subtable" uni2091
EndChar

StartChar: f
Encoding: 102 102 71
Width: 310
GlyphClass: 2
Flags: MW
HStem: -2 21G 390 39<25 96 45 96 45 96 175 268> 664 34<237.5 269>
VStem: 96 79<122 390 429 469 469 486>
AnchorPoint: "Anchor-6" 136 215 basechar 0
AnchorPoint: "Anchor-3" 410 750 basechar 0
AnchorPoint: "Anchor-2" 132 -110 basechar 0
LayerCount: 2
Fore
SplineSet
175 122 m 2
 175 39 181 35 259 31 c 1
 265 25 265 4 259 -2 c 1
 224 -1 176 0 136 0 c 0
 96 0 61 -1 26 -2 c 1
 20 4 20 25 26 31 c 1
 80 35 96 39 96 122 c 2
 96 390 l 1
 27 390 l 2
 23 390 22 391 22 396 c 2
 22 409 l 2
 22 417 27 429 45 429 c 2
 96 429 l 1
 96 469 l 2
 96 625 189 698 273 698 c 0
 311 698 337 695 363 677 c 0
 384 661 395 643 395 626 c 0
 395 606 371 585 354 585 c 0
 333 585 322 599 314 617 c 0
 300 652 284 664 254 664 c 0
 221 664 175 640 175 486 c 2
 175 429 l 1
 283 429 l 2
 288 429 291 427 291 423 c 2
 291 403 l 2
 291 394 277 390 268 390 c 2
 175 390 l 1
 175 122 l 2
EndSplineSet
MultipleSubs2: "'smcp' Lowercase to Small Capitals lookup 10 subtable" f.sc
Substitution2: "'subs' Subscript lookup 7 subtable" f.inferior
Substitution2: "'sups' Superscript lookup 6 subtable" uni1DA0
Substitution2: "Single Substitution lookup 4 subtable" uni1DA0
Substitution2: "Single Substitution lookup 3 subtable" f.inferior
EndChar

StartChar: g
Encoding: 103 103 72
Width: 500
GlyphClass: 2
Flags: MW
HStem: -238 37<203 258.5> -12 61<238 300.5> -3 21G 136 31<210.5 253.5 193 274> 387 75<438.5 448.5 422 453.5> 408 31<194.5 253.5> 419 20G<186.5 260.5>
VStem: 32 69<-138 -102.5> 60 82<270 333> 68 53<77.5 91> 319 80<240 312.5 240 320.5> 417 55<-119 -78>
AnchorPoint: "Anchor-6" 227 285 basechar 0
AnchorPoint: "Anchor-3" 492 580 basechar 0
AnchorPoint: "Anchor-2" 229 -319 basechar 0
AnchorPoint: "Anchor-0" 231 645 basechar 0
LayerCount: 2
Fore
SplineSet
444 387 m 0xd8a0
 433 387 420 397 416 405 c 0
 410 414 403 417 396 417 c 0
 383 417 363 403 356 393 c 1
 385 363 399 336 399 289 c 0
 399 191 318 136 230 136 c 0
 191 136 163 143 139 157 c 1
 127 140 121 119 121 99 c 0
 121 56 156 42 185 42 c 0
 190 42 200 43 215 44 c 0xd260
 239 47 264 49 282 49 c 0
 319 49 389 48 428 16 c 0
 457 -8 472 -33 472 -65 c 0
 472 -173 326 -238 191 -238 c 0
 114 -238 32 -211 32 -124 c 0xd530
 32 -81 60 -35 114 -3 c 1
 88 10 68 38 68 74 c 0xb460
 68 108 84 151 112 175 c 1
 84 202 60 233 60 287 c 0
 60 379 142 439 231 439 c 0xd4a0
 290 439 323 419 335 411 c 1
 361 445 409 462 435 462 c 0
 462 462 481 446 481 425 c 0
 481 405 463 387 444 387 c 0xd8a0
132 -10 m 1xd530
 103 -45 101 -70 101 -104 c 0
 101 -172 185 -201 221 -201 c 0
 311 -201 417 -163 417 -91 c 0
 417 -65 405 -51 366 -29 c 0
 337 -13 295 -12 245 -12 c 0
 231 -12 203 -15 172 -15 c 0
 159 -15 143 -13 132 -10 c 1xd530
319 279 m 0xd4a0
 319 362 285 408 222 408 c 0
 167 408 142 372 142 302 c 0
 142 238 151 167 235 167 c 0
 272 167 319 186 319 279 c 0xd4a0
EndSplineSet
MultipleSubs2: "'smcp' Lowercase to Small Capitals lookup 10 subtable" g.sc
Substitution2: "'subs' Subscript lookup 7 subtable" g.inferior
Substitution2: "'sups' Superscript lookup 6 subtable" uni1D4D
Substitution2: "Single Substitution lookup 4 subtable" uni1D4D
Substitution2: "Single Substitution lookup 3 subtable" g.inferior
EndChar

StartChar: h
Encoding: 104 104 73
Width: 538
GlyphClass: 2
Flags: MW
HStem: -2 21G 387 52<321.5 322> 641 30 678 20G<158 162.5> 688 10<158 171>
VStem: 88 79<122 286 583 598.5> 377 79<122 271>
AnchorPoint: "Anchor-6" 264 215 basechar 0
AnchorPoint: "Anchor-4" 423 10 basechar 0
AnchorPoint: "Anchor-3" 429 580 basechar 0
AnchorPoint: "Anchor-2" 272 -110 basechar 0
AnchorPoint: "Anchor-0" 299 645 basechar 0
LayerCount: 2
Fore
SplineSet
167 286 m 2xd6
 167 122 l 2
 167 39 176 35 227 31 c 1
 233 25 233 4 227 -2 c 1
 199 -1 166 0 128 0 c 0
 88 0 51 -1 18 -2 c 1
 12 4 12 25 18 31 c 1
 76 35 88 39 88 122 c 2
 88 559 l 2
 88 638 77 638 33 641 c 2
 24 641 l 1
 18 647 16 663 18 671 c 1xe6
 58 674 133 688 158 698 c 0
 167 698 171 695 171 688 c 2xce
 171 688 167 648 167 583 c 2
 166 358 l 2
 166 346 171 352 174 356 c 0
 175 357 176 357 176 358 c 0
 237 426 297 439 346 439 c 0
 381 439 412 427 429 405 c 0
 452 375 456 326 456 271 c 2
 456 122 l 2
 456 40 467 36 523 31 c 1
 528 25 528 4 523 -2 c 1
 490 -1 457 0 417 0 c 0
 377 0 343 -1 315 -2 c 1
 310 4 310 25 315 31 c 1
 367 36 377 40 377 122 c 2
 377 274 l 2
 377 304 375 331 365 351 c 0
 353 374 332 387 312 387 c 0
 273 387 222 365 184 328 c 0
 176 319 167 307 167 286 c 2xd6
EndSplineSet
Substitution2: "'salt' Stylistic Alternatives lookup 20 subtable" h.alt
MultipleSubs2: "'smcp' Lowercase to Small Capitals lookup 10 subtable" h.sc
Substitution2: "'subs' Subscript lookup 7 subtable" h.inferior
Substitution2: "'sups' Superscript lookup 6 subtable" uni02B0
Substitution2: "Single Substitution lookup 4 subtable" uni02B0
Substitution2: "Single Substitution lookup 3 subtable" h.inferior
EndChar

StartChar: i
Encoding: 105 105 74
Width: 271
GlyphClass: 2
Flags: MW
HStem: -2 21G 422 20G<172 176> 435 7 547 100<130 152> 627 20G<130 155.5>
VStem: 90 100<586 607 584.5 611> 102 79<122 317 317 321>
AnchorPoint: "Anchor-6" 142 215 basechar 0
AnchorPoint: "Anchor-5" 137 12 basechar 0
AnchorPoint: "Anchor-4" 209 10 basechar 0
AnchorPoint: "Anchor-2" 136 -110 basechar 0
AnchorPoint: "Anchor-0" 137 795 basechar 0
LayerCount: 2
Fore
SplineSet
181 122 m 2xca
 181 39 192 35 253 31 c 1
 259 25 259 4 253 -2 c 1
 220 -1 182 0 142 0 c 0
 102 0 63 -1 30 -2 c 1
 24 4 24 25 30 31 c 1
 91 36 102 39 102 122 c 2
 102 317 l 2
 102 374 92 380 37 385 c 1
 35 391 33 407 35 413 c 1
 104 422 144 431 172 442 c 0
 180 442 185 439 185 435 c 2xaa
 185 435 181 371 181 321 c 2
 181 122 l 2xca
90 599 m 0xd4
 90 623 118 647 142 647 c 0
 169 647 190 619 190 595 c 0
 190 574 166 547 138 547 c 0
 114 547 90 573 90 599 c 0xd4
EndSplineSet
Substitution2: "Single Substitution lookup 25 subtable" dotlessi
Substitution2: "'smcp' Lowercase to Small Capitals in Latin lookup 11 subtable" idotaccent.sc
Substitution2: "'smcp' Lowercase to Small Capitals lookup 9 subtable" i.sc
Substitution2: "'subs' Subscript lookup 7 subtable" i.inferior
Substitution2: "'sups' Superscript lookup 6 subtable" uni2071
Substitution2: "Single Substitution lookup 4 subtable" uni2071
Substitution2: "Single Substitution lookup 3 subtable" i.inferior
EndChar

StartChar: j
Encoding: 106 106 75
Width: 272
GlyphClass: 2
Flags: MW
HStem: -223 44<-2.5 84> 422 20G<183 187> 435 7 547 100<139 161> 627 20G<139 164.5>
VStem: 99 100<586 607 584.5 611> 113 79<76 110 110 317 317 321>
AnchorPoint: "Anchor-6" 154 215 basechar 0
AnchorPoint: "Anchor-2" 109 -319 basechar 0
LayerCount: 2
Fore
SplineSet
113 317 m 2xca
 113 374 102 380 48 385 c 1
 46 391 44 407 46 413 c 1
 115 422 155 431 183 442 c 0
 191 442 196 439 196 435 c 2xaa
 196 435 192 371 192 321 c 2
 192 110 l 2
 192 -79 164 -151 117 -189 c 0
 80 -220 28 -223 7 -223 c 0
 -12 -223 -48 -209 -48 -180 c 0
 -48 -162 -27 -142 -16 -142 c 0
 6 -142 18 -158 28 -168 c 0
 35 -175 48 -179 59 -179 c 0
 109 -179 113 -56 113 76 c 2
 113 317 l 2xca
99 599 m 0xd4
 99 623 127 647 151 647 c 0
 178 647 199 619 199 595 c 0
 199 574 175 547 147 547 c 0
 123 547 99 573 99 599 c 0xd4
EndSplineSet
Substitution2: "Single Substitution lookup 25 subtable" uni0237
MultipleSubs2: "'smcp' Lowercase to Small Capitals lookup 10 subtable" j.sc
Substitution2: "'subs' Subscript lookup 7 subtable" j.inferior
Substitution2: "'sups' Superscript lookup 6 subtable" uni02B2
Substitution2: "Single Substitution lookup 4 subtable" uni02B2
Substitution2: "Single Substitution lookup 3 subtable" j.inferior
EndChar

StartChar: k
Encoding: 107 107 76
Width: 512
GlyphClass: 2
Flags: MW
HStem: -2 33<19 19 217 217 503 503> 209 25<165 165> 398 33<290 290 475 475> 641 30 678 20G<156 160.5> 688 10<156 169>
VStem: 86 79<122 209 234 559 559 583> 326 154
AnchorPoint: "Anchor-5" 108 -57 basechar 0
AnchorPoint: "Anchor-3" 536 696 basechar 0
AnchorPoint: "Anchor-2" 290 -214 basechar 0
AnchorPoint: "Anchor-0" 306 784 basechar 0
LayerCount: 2
Fore
SplineSet
86 122 m 2xeb
 86 559 l 2
 86 638 75 638 31 641 c 2
 22 641 l 1
 16 647 14 663 16 671 c 1xf3
 56 674 131 688 156 698 c 0
 165 698 169 695 169 688 c 2xe7
 169 688 165 648 165 583 c 2
 165 234 l 1
 184 237 211 249 233 265 c 0
 259 284 290 318 313 347 c 0
 322 359 346 394 290 398 c 1
 284 404 284 425 290 431 c 1
 313 430 350 429 388 429 c 0
 424 429 452 430 475 431 c 1
 481 425 481 404 475 398 c 1
 435 394 400 386 370 354 c 2
 282 263 l 2
 278 259 278 257 278 253 c 0
 278 248 281 244 285 239 c 2
 417 73 l 2
 444 39 469 35 503 31 c 1
 509 25 509 4 503 -2 c 1
 483 -1 452 0 421 0 c 0
 401 0 379 -1 359 -2 c 0
 356 -2 355 0 355 3 c 0
 354 15 342 34 313 73 c 2
 240 171 l 2
 228 187 219 196 208 204 c 0
 198 207 184 208 165 209 c 1
 165 122 l 2
 165 39 176 35 217 31 c 1
 223 25 223 4 217 -2 c 1
 194 -1 161 0 126 0 c 0
 86 0 52 -1 19 -2 c 1
 13 4 13 25 19 31 c 1
 75 35 86 39 86 122 c 2xeb
EndSplineSet
MultipleSubs2: "'smcp' Lowercase to Small Capitals lookup 10 subtable" k.sc
Substitution2: "'subs' Subscript lookup 7 subtable" k.inferior
Substitution2: "'sups' Superscript lookup 6 subtable" uni1D4F
Substitution2: "Single Substitution lookup 4 subtable" uni1D4F
Substitution2: "Single Substitution lookup 3 subtable" k.inferior
EndChar

StartChar: l
Encoding: 108 108 77
Width: 264
GlyphClass: 2
Flags: MW
HStem: -2 21G 678 20G<165 169.5> 688 10<165 178>
VStem: 95 79<122 559 559 583>
AnchorPoint: "Anchor-6" 136 215 basechar 0
AnchorPoint: "Anchor-5" 135 10 basechar 0
AnchorPoint: "Anchor-3" 249 733 basechar 0
AnchorPoint: "Anchor-2" 135 -110 basechar 0
AnchorPoint: "Anchor-0" 135 885 basechar 0
LayerCount: 2
Fore
SplineSet
95 122 m 2xd0
 95 559 l 2
 95 634 89 637 31 641 c 1
 25 647 23 663 25 671 c 1
 65 674 140 688 165 698 c 0
 174 698 178 695 178 688 c 2xb0
 178 688 174 648 174 583 c 2
 174 122 l 2
 174 39 185 34 246 31 c 1
 252 25 252 4 246 -2 c 1
 213 -1 175 0 135 0 c 0
 95 0 58 -1 23 -2 c 1
 17 4 17 25 23 31 c 1
 84 34 95 39 95 122 c 2xd0
EndSplineSet
MultipleSubs2: "'smcp' Lowercase to Small Capitals lookup 10 subtable" l.sc
Substitution2: "'subs' Subscript lookup 7 subtable" l.inferior
Substitution2: "'sups' Superscript lookup 6 subtable" uni02E1
Substitution2: "Single Substitution lookup 4 subtable" uni02E1
Substitution2: "Single Substitution lookup 3 subtable" l.inferior
EndChar

StartChar: m
Encoding: 109 109 78
Width: 790
GlyphClass: 2
Flags: MW
HStem: -2 21G 387 52<305 317 584.5 593> 422 20G<150 154>
VStem: 94 79<122 286> 364 79<122 281> 634 79<122 280>
CounterMasks: 1 1c
AnchorPoint: "Anchor-6" 278 215 basechar 0
AnchorPoint: "Anchor-5" 137 9 basechar 0
AnchorPoint: "Anchor-2" 408 -110 basechar 0
AnchorPoint: "Anchor-0" 392 645 basechar 0
LayerCount: 2
Fore
SplineSet
170 358 m 0xbc
 171 346 177 353 182 358 c 0
 224 405 276 439 334 439 c 0
 386 439 425 407 434 366 c 0
 436 357 442 362 445 365 c 0
 497 420 559 439 610 439 c 0
 698 439 713 369 713 280 c 2
 713 122 l 2
 713 40 722 35 777 31 c 1
 782 25 782 4 777 -2 c 1
 749 -1 714 0 674 0 c 0
 634 0 597 -1 572 -2 c 1
 567 4 567 25 572 31 c 1
 624 35 634 40 634 122 c 2
 634 298 l 2
 634 365 612 387 574 387 c 0
 535 387 490 374 442 321 c 1
 443 309 443 295 443 281 c 2
 443 122 l 2
 443 40 452 35 502 31 c 1
 507 25 507 4 502 -2 c 1
 477 -1 444 0 404 0 c 0
 364 0 327 -1 302 -2 c 1
 297 4 297 25 302 31 c 1
 356 35 364 40 364 122 c 2
 364 296 l 2
 364 363 336 387 298 387 c 0
 267 387 230 367 190 328 c 0xdc
 182 319 173 307 173 286 c 2
 173 122 l 2
 173 40 184 36 235 31 c 1
 241 25 241 4 235 -2 c 1
 205 -1 174 0 134 0 c 0
 94 0 56 -1 26 -2 c 1
 20 4 20 25 26 31 c 1
 81 35 94 40 94 122 c 2
 94 317 l 2
 94 375 83 380 29 385 c 1
 27 391 25 407 27 413 c 1
 96 422 122 431 150 442 c 0
 158 442 160 439 162 434 c 0
 167 424 169 388 170 358 c 0xbc
EndSplineSet
MultipleSubs2: "'smcp' Lowercase to Small Capitals lookup 10 subtable" m.sc
Substitution2: "'subs' Subscript lookup 7 subtable" m.inferior
Substitution2: "'sups' Superscript lookup 6 subtable" uni1D50
Substitution2: "Single Substitution lookup 4 subtable" uni1D50
Substitution2: "Single Substitution lookup 3 subtable" m.inferior
EndChar

StartChar: n
Encoding: 110 110 79
Width: 542
GlyphClass: 2
Flags: MW
HStem: -2 21G 387 52<323.5 324> 422 20G<152 156>
VStem: 96 76<122 358 317 358> 96 79<122 286> 379 79<122 271>
AnchorPoint: "Anchor-6" 264 215 basechar 0
AnchorPoint: "Anchor-5" 136 9 basechar 0
AnchorPoint: "Anchor-2" 265 -110 basechar 0
AnchorPoint: "Anchor-0" 264 646 basechar 0
LayerCount: 2
Fore
SplineSet
184 358 m 0xd4
 243 426 299 439 348 439 c 0
 383 439 414 427 431 405 c 0
 454 374 458 326 458 271 c 2
 458 122 l 2
 458 40 469 36 525 31 c 1
 530 25 530 4 525 -2 c 1
 495 -1 459 0 419 0 c 0
 379 0 347 -1 317 -2 c 1
 312 4 312 25 317 31 c 1
 369 36 379 40 379 122 c 2
 379 274 l 2
 379 304 377 331 367 351 c 0
 355 374 334 387 314 387 c 0
 275 387 230 365 192 328 c 0xcc
 184 319 175 307 175 286 c 2
 175 122 l 2
 175 40 185 36 236 31 c 1
 242 25 242 4 236 -2 c 1
 206 -1 176 0 136 0 c 0
 96 0 56 -1 26 -2 c 1
 20 4 20 25 26 31 c 1
 86 36 96 40 96 122 c 2
 96 317 l 2
 96 375 85 380 31 385 c 1
 29 391 27 407 29 413 c 1
 98 422 124 431 152 442 c 0xac
 160 442 162 439 164 434 c 0
 169 424 171 385 172 358 c 0xb4
 172 349 178 351 184 358 c 0xd4
EndSplineSet
MultipleSubs2: "'smcp' Lowercase to Small Capitals lookup 10 subtable" n.sc
Substitution2: "'subs' Subscript lookup 7 subtable" n.inferior
Substitution2: "'sups' Superscript lookup 6 subtable" uni207F
Substitution2: "Single Substitution lookup 4 subtable" uni207F
Substitution2: "Single Substitution lookup 3 subtable" n.inferior
EndChar

StartChar: o
Encoding: 111 111 80
Width: 504
GlyphClass: 2
Flags: MW
HStem: -10 35<213 283> 404 35<220 281>
VStem: 41 86<189.5 236.5> 377 86<183.5 254>
AnchorPoint: "Anchor-6" 236 215 basechar 0
AnchorPoint: "Anchor-5" 241 -3 basechar 0
AnchorPoint: "Anchor-4" 372 44 basechar 0
AnchorPoint: "Anchor-2" 243 -110 basechar 0
AnchorPoint: "Anchor-1" 420 396 basechar 0
AnchorPoint: "Anchor-0" 238 645 basechar 0
LayerCount: 2
Fore
SplineSet
41 205 m 0
 41 268 60 326 96 369 c 0
 133 412 187 439 253 439 c 0
 406 439 463 318 463 214 c 0
 463 153 443 90 398 46 c 0
 364 13 315 -10 251 -10 c 0
 109 -10 41 103 41 205 c 0
238 404 m 0
 148 404 127 315 127 228 c 0
 127 151 161 25 265 25 c 0
 312 25 377 56 377 182 c 0
 377 326 324 404 238 404 c 0
EndSplineSet
MultipleSubs2: "'smcp' Lowercase to Small Capitals lookup 10 subtable" o.sc
Substitution2: "'subs' Subscript lookup 7 subtable" uni2092
Substitution2: "'sups' Superscript lookup 6 subtable" uni1D52
Substitution2: "Single Substitution lookup 4 subtable" uni1D52
Substitution2: "Single Substitution lookup 3 subtable" uni2092
EndChar

StartChar: p
Encoding: 112 112 81
Width: 519
GlyphClass: 2
Flags: MW
HStem: -234 21G -10 34<245 288> 393 46<281 308> 422 20G<136 140>
VStem: 80 76 80 79<-110 -2 87 105 105 287> 395 86<194.5 264.5>
AnchorPoint: "Anchor-6" 246 215 basechar 0
AnchorPoint: "Anchor-3" 429 580 basechar 0
AnchorPoint: "Anchor-2" 179 -319 basechar 0
AnchorPoint: "Anchor-0" 271 646 basechar 0
LayerCount: 2
Fore
SplineSet
156 368 m 0xda
 157 358 161 358 167 364 c 0
 207 409 258 439 304 439 c 0xea
 406 439 481 341 481 235 c 0
 481 154 454 92 407 46 c 0
 366 7 316 -10 260 -10 c 0
 228 -10 198 -4 173 6 c 0
 163 10 159 11 159 -2 c 2
 159 -110 l 2
 159 -193 170 -197 241 -201 c 1
 247 -207 247 -228 241 -234 c 1
 208 -233 160 -232 120 -232 c 0
 80 -232 43 -233 8 -234 c 1
 2 -228 2 -207 8 -201 c 1
 69 -198 80 -193 80 -110 c 2
 80 317 l 2
 80 375 69 380 15 385 c 1
 13 391 11 407 13 413 c 1
 82 422 108 431 136 442 c 0xd6
 144 442 146 439 148 434 c 0
 153 424 155 398 156 368 c 0xda
175 331 m 0xe6
 163 317 159 308 159 287 c 2
 159 105 l 2
 159 69 163 63 183 45 c 0
 201 29 236 24 254 24 c 0
 366 24 395 126 395 208 c 0
 395 321 340 393 276 393 c 0
 247 393 201 363 175 331 c 0xe6
EndSplineSet
MultipleSubs2: "'smcp' Lowercase to Small Capitals lookup 10 subtable" p.sc
Substitution2: "'subs' Subscript lookup 7 subtable" p.inferior
Substitution2: "'sups' Superscript lookup 6 subtable" uni1D56
Substitution2: "Single Substitution lookup 4 subtable" uni1D56
Substitution2: "Single Substitution lookup 3 subtable" p.inferior
EndChar

StartChar: q
Encoding: 113 113 82
Width: 503
GlyphClass: 2
Flags: MW
HStem: -234 21G -10 44<237 255.5> 16 18 405 34<203 258> 422 20G<406.5 415.5>
VStem: 35 86<160.5 273> 346 79<-111 0 0 10.5 77 307 307 319>
AnchorPoint: "Anchor-6" 236 215 basechar 0
AnchorPoint: "Anchor-3" 469 732 basechar 0
AnchorPoint: "Anchor-2" 348 -319 basechar 0
AnchorPoint: "Anchor-0" 238 645 basechar 0
LayerCount: 2
Fore
SplineSet
346 -111 m 2xd6
 346 0 l 2xb6
 346 21 342 19 319 6 c 0
 302 -4 269 -10 242 -10 c 0
 98 -10 35 114 35 207 c 0
 35 339 125 439 247 439 c 0
 289 439 328 430 360 410 c 0xd6
 372 402 376 405 389 423 c 0
 397 434 403 442 410 442 c 0
 421 442 425 431 425 417 c 2xce
 425 -111 l 2
 425 -194 436 -198 497 -201 c 1
 503 -207 503 -228 497 -234 c 1
 464 -233 426 -232 386 -232 c 0
 346 -232 309 -233 274 -234 c 1
 268 -228 268 -207 274 -201 c 1
 335 -198 346 -194 346 -111 c 2xd6
322 368 m 0
 300 393 273 405 243 405 c 0
 163 405 121 331 121 227 c 0
 121 76 208 34 266 34 c 0
 282 34 309 35 332 47 c 0
 345 54 346 59 346 77 c 2xd6
 346 307 l 2
 346 331 342 346 322 368 c 0
EndSplineSet
MultipleSubs2: "'smcp' Lowercase to Small Capitals lookup 10 subtable" q.sc
Substitution2: "'subs' Subscript lookup 7 subtable" q.inferior
Substitution2: "'sups' Superscript lookup 6 subtable" q.superior
Substitution2: "Single Substitution lookup 4 subtable" q.superior
Substitution2: "Single Substitution lookup 3 subtable" q.inferior
EndChar

StartChar: r
Encoding: 114 114 83
Width: 372
GlyphClass: 2
Flags: MW
HStem: -2 21G 341 98<302.5 319 274.5 323> 377 62<243 319> 422 20G<156 160>
VStem: 100 76<122 358 317 358> 100 79<122 261>
AnchorPoint: "Anchor-6" 136 185 basechar 0
AnchorPoint: "Anchor-5" 134 7 basechar 0
AnchorPoint: "Anchor-3" 349 580 basechar 0
AnchorPoint: "Anchor-2" 135 -110 basechar 0
AnchorPoint: "Anchor-0" 191 646 basechar 0
LayerCount: 2
Fore
SplineSet
176 358 m 0x98
 176 353 181 345 187 356 c 0
 210 395 251 439 298 439 c 0xa8
 340 439 358 410 358 391 c 0
 358 366 335 341 311 341 c 0xc4
 294 341 282 354 275 364 c 0
 267 375 258 377 249 377 c 0
 237 377 214 344 203 328 c 0xa4
 191 310 179 287 179 261 c 2
 179 122 l 2
 179 39 191 36 261 31 c 1
 267 25 267 4 261 -2 c 1
 226 -1 180 0 140 0 c 0
 100 0 61 -1 26 -2 c 1
 20 4 20 25 26 31 c 1
 88 35 100 39 100 122 c 2
 100 317 l 2
 100 375 89 380 35 385 c 1
 33 391 31 407 33 413 c 1
 102 422 128 431 156 442 c 0x94
 164 442 166 439 168 434 c 0
 173 424 174 398 176 358 c 0x98
EndSplineSet
MultipleSubs2: "'smcp' Lowercase to Small Capitals lookup 10 subtable" r.sc
Substitution2: "'subs' Subscript lookup 7 subtable" r.inferior
Substitution2: "'sups' Superscript lookup 6 subtable" uni02B3
Substitution2: "Single Substitution lookup 4 subtable" uni02B3
Substitution2: "Single Substitution lookup 3 subtable" r.inferior
EndChar

StartChar: s
Encoding: 115 115 84
Width: 390
GlyphClass: 2
Flags: MW
HStem: -10 33<172.5 207.5 169.5 219> 0 21G 406 33<186 214> 419 20G<166 229>
VStem: 55 24 62 71<314.5 359> 274 76<68.5 114.5>
AnchorPoint: "Anchor-5" 194 1 basechar 0
AnchorPoint: "Anchor-4" 290 13 basechar 0
AnchorPoint: "Anchor-3" 366 580 basechar 0
AnchorPoint: "Anchor-2" 196 -110 basechar 0
AnchorPoint: "Anchor-0" 206 645 basechar 0
LayerCount: 2
Fore
SplineSet
48 138 m 1x6a
 54 144 73 145 79 139 c 1
 85 114 96 70 118 47 c 0xaa
 128 36 150 23 189 23 c 0
 226 23 274 44 274 93 c 0
 274 136 255 157 172 191 c 0
 95 223 62 254 62 327 c 0
 62 391 129 439 203 439 c 0xa6
 255 439 303 425 334 420 c 1x96
 333 387 331 350 328 314 c 1
 322 308 302 307 296 313 c 1
 283 398 225 406 203 406 c 0
 169 406 133 383 133 342 c 0xa6
 133 287 173 272 233 249 c 0
 301 224 350 184 350 116 c 0
 350 17 247 -10 191 -10 c 0
 154 -10 127 -6 100 1 c 0xaa
 93 3 87 3 80 3 c 0
 75 3 65 2 55 0 c 1
 55 42 52 89 48 138 c 1x6a
EndSplineSet
MultipleSubs2: "'smcp' Lowercase to Small Capitals lookup 10 subtable" s.sc
Substitution2: "'subs' Subscript lookup 7 subtable" s.inferior
Substitution2: "'sups' Superscript lookup 6 subtable" uni02E2
Substitution2: "Single Substitution lookup 4 subtable" uni02E2
Substitution2: "Single Substitution lookup 3 subtable" s.inferior
EndChar

StartChar: t
Encoding: 116 116 85
Width: 316
GlyphClass: 2
Flags: MW
HStem: -10 55<187.5 189> 390 39<28 89 43 89 43 89 168 272> 573 9<162 172>
VStem: 89 79<106 137 137 390 429 468>
AnchorPoint: "Anchor-6" 127 215 basechar 0
AnchorPoint: "Anchor-5" 165 -3 basechar 0
AnchorPoint: "Anchor-4" 237 15 basechar 0
AnchorPoint: "Anchor-3" 279 580 basechar 0
AnchorPoint: "Anchor-2" 163 -110 basechar 0
LayerCount: 2
Fore
SplineSet
43 429 m 2
 89 429 l 1
 89 540 86 533 86 545 c 0
 86 552 96 555 108 559 c 0
 121 562 131 567 142 573 c 0
 151 578 160 582 164 582 c 0
 169 582 172 579 172 573 c 2
 172 573 168 533 168 468 c 2
 168 429 l 1
 288 429 l 2
 293 429 296 427 296 423 c 2
 296 403 l 2
 296 394 282 390 272 390 c 2
 168 390 l 1
 168 137 l 2
 168 75 174 45 201 45 c 0
 227 45 257 53 283 73 c 1
 293 72 299 66 301 56 c 1
 262 12 212 -10 166 -10 c 0
 120 -10 89 18 89 89 c 2
 89 390 l 1
 30 390 l 2
 26 390 25 391 25 396 c 2
 25 409 l 2
 25 417 29 429 43 429 c 2
EndSplineSet
MultipleSubs2: "'smcp' Lowercase to Small Capitals lookup 10 subtable" t.sc
Substitution2: "'subs' Subscript lookup 7 subtable" t.inferior
Substitution2: "'sups' Superscript lookup 6 subtable" uni1D57
Substitution2: "Single Substitution lookup 4 subtable" uni1D57
Substitution2: "Single Substitution lookup 3 subtable" t.inferior
EndChar

StartChar: u
Encoding: 117 117 86
Width: 531
GlyphClass: 2
Flags: MW
HStem: -10 47<232 236.5> 30 27<515 515> 411 20G<163 165.5 438 440.5>
VStem: 88 79<126 140 140 318 318 322> 363 79<124 130 130 317 317 322>
AnchorPoint: "Anchor-6" 252 215 basechar 0
AnchorPoint: "Anchor-5" 213 0 basechar 0
AnchorPoint: "Anchor-4" 293 7 basechar 0
AnchorPoint: "Anchor-2" 239 -110 basechar 0
AnchorPoint: "Anchor-0" 255 645 basechar 0
LayerCount: 2
Fore
SplineSet
217 -10 m 0xb8
 118 -10 88 57 88 126 c 2
 88 318 l 2
 88 383 74 394 26 398 c 1
 20 404 20 425 26 431 c 1
 60 430 96 429 128 429 c 0
 143 429 158 430 163 431 c 0
 168 431 171 428 171 425 c 2
 171 425 167 352 167 322 c 2
 167 140 l 2
 167 51 217 37 247 37 c 0
 272 37 310 53 347 85 c 0
 361 97 363 105 363 124 c 2xb8
 363 317 l 2
 363 383 350 395 301 398 c 1
 295 404 295 425 301 431 c 1
 335 430 371 429 403 429 c 0
 418 429 433 430 438 431 c 0
 443 431 446 428 446 425 c 2
 446 425 442 352 442 322 c 2
 442 130 l 2
 442 81 451 62 515 57 c 1
 521 51 521 36 515 30 c 1x78
 454 23 419 8 397 -10 c 0
 391 -12 386 -13 378 -10 c 1
 378 -10 370 24 367 49 c 0
 366 56 357 54 352 50 c 0
 303 10 256 -10 217 -10 c 0xb8
EndSplineSet
MultipleSubs2: "'smcp' Lowercase to Small Capitals lookup 10 subtable" u.sc
Substitution2: "'subs' Subscript lookup 7 subtable" u.inferior
Substitution2: "'sups' Superscript lookup 6 subtable" uni1D58
Substitution2: "Single Substitution lookup 4 subtable" uni1D58
Substitution2: "Single Substitution lookup 3 subtable" u.inferior
EndChar

StartChar: v
Encoding: 118 118 87
Width: 497
GlyphClass: 2
Flags: MW
HStem: -12 21G<219 249> 398 33<11 11 205 205 325 325 487 487>
VStem: 7 155 375 117
AnchorPoint: "Anchor-6" 247 267 basechar 0
AnchorPoint: "Anchor-3" 460 580 basechar 0
AnchorPoint: "Anchor-2" 241 -110 basechar 0
AnchorPoint: "Anchor-0" 256 646 basechar 0
LayerCount: 2
Fore
SplineSet
325 398 m 1
 319 404 319 425 325 431 c 1
 350 430 384 429 417 429 c 0
 443 429 467 430 487 431 c 1
 493 425 493 404 487 398 c 1
 431 393 420 368 401 324 c 2
 268 11 l 2
 261 -6 254 -12 244 -12 c 0
 231 -12 225 -6 219 9 c 2
 91 325 l 2
 71 376 64 392 11 398 c 1
 5 404 5 425 11 431 c 1
 41 430 71 429 104 429 c 0
 137 429 172 430 205 431 c 1
 211 425 211 404 205 398 c 1
 152 391 156 379 174 331 c 2
 246 138 l 2
 262 96 267 96 283 135 c 2
 364 331 l 2
 385 382 379 394 325 398 c 1
EndSplineSet
MultipleSubs2: "'smcp' Lowercase to Small Capitals lookup 10 subtable" v.sc
Substitution2: "'subs' Subscript lookup 7 subtable" v.inferior
Substitution2: "'sups' Superscript lookup 6 subtable" uni1D5B
Substitution2: "Single Substitution lookup 4 subtable" uni1D5B
Substitution2: "Single Substitution lookup 3 subtable" v.inferior
EndChar

StartChar: w
Encoding: 119 119 88
Width: 747
GlyphClass: 2
Flags: MW
HStem: -12 21G<492 520> 398 33<11 11 203 203 268 268 456 456 561 561 735 735>
VStem: 7 154 264 145 622 118
AnchorPoint: "Anchor-3" 719 580 basechar 0
AnchorPoint: "Anchor-2" 352 -110 basechar 0
AnchorPoint: "Anchor-0" 345 646 basechar 0
LayerCount: 2
Fore
SplineSet
203 398 m 1
 155 395 154 379 173 331 c 2
 253 125 l 2
 266 93 268 94 281 127 c 2
 351 304 l 1
 345 320 l 2
 327 365 315 394 268 398 c 1
 262 404 262 425 268 431 c 1
 298 430 331 429 356 429 c 0
 386 429 426 430 456 431 c 1
 462 425 462 404 456 398 c 1
 403 394 401 384 420 337 c 2
 506 118 l 2
 514 97 518 97 528 122 c 2
 612 330 l 2
 626 365 636 394 561 398 c 1
 555 404 555 425 561 431 c 1
 591 430 633 429 663 429 c 0
 693 429 715 430 735 431 c 1
 741 425 741 404 735 398 c 1
 684 395 667 367 651 326 c 2
 520 9 l 2
 514 -6 506 -12 497 -12 c 0
 487 -12 479 -6 473 8 c 2
 370 256 l 1
 269 10 l 2
 262 -6 254 -12 245 -12 c 0
 235 -12 227 -6 221 8 c 2
 90 331 l 2
 69 383 58 393 11 398 c 1
 5 404 5 425 11 431 c 1
 37 430 64 429 102 429 c 0
 138 429 173 430 203 431 c 1
 209 425 209 404 203 398 c 1
EndSplineSet
MultipleSubs2: "'smcp' Lowercase to Small Capitals lookup 10 subtable" w.sc
Substitution2: "'subs' Subscript lookup 7 subtable" w.inferior
Substitution2: "'sups' Superscript lookup 6 subtable" uni02B7
Substitution2: "Single Substitution lookup 4 subtable" uni02B7
Substitution2: "Single Substitution lookup 3 subtable" w.inferior
EndChar

StartChar: x
Encoding: 120 120 89
Width: 490
GlyphClass: 2
Flags: MW
HStem: -2 33<21 21 177 177 281 281 469 469> 171 88 398 33<24 24 211 211 303 303 460 460>
VStem: 17 126 17 165 20 149 205 71 299 166 314 160 340 125
AnchorPoint: "Anchor-6" 237 215 basechar 0
AnchorPoint: "Anchor-5" 94 8 basechar 0
AnchorPoint: "Anchor-3" 469 580 basechar 0
AnchorPoint: "Anchor-2" 224 -110 basechar 0
AnchorPoint: "Anchor-0" 256 646 basechar 0
LayerCount: 2
Fore
SplineSet
182 358 m 2xa640
 243 268 l 2
 251 257 255 256 262 266 c 2
 327 357 l 2xe440
 351 391 340 394 303 398 c 1
 297 404 297 425 303 431 c 1
 329 430 357 429 387 429 c 0
 417 429 440 430 460 431 c 1
 466 425 466 404 460 398 c 1
 424 395 400 390 363 343 c 2xa840
 279 236 l 2
 274 230 275 227 279 221 c 2
 369 94 l 2
 409 37 424 34 469 31 c 1
 475 25 475 4 469 -2 c 1
 445 -1 418 0 380 0 c 0
 344 0 311 -1 281 -2 c 1
 275 4 275 25 281 31 c 1
 313 34 329 36 294 84 c 2
 236 164 l 2
 230 173 226 174 218 162 c 2
 155 71 l 2xf280
 133 39 141 35 177 31 c 1
 183 25 183 4 177 -2 c 1
 151 -1 123 0 93 0 c 0
 63 0 41 -1 21 -2 c 1
 15 4 15 25 21 31 c 1
 56 33 78 36 118 87 c 2xa840
 202 195 l 2
 206 200 206 203 201 210 c 2
 114 337 l 2
 86 378 58 395 24 398 c 1
 18 404 18 425 24 431 c 1
 50 430 80 429 110 429 c 0
 140 429 184 430 211 431 c 1
 217 425 217 404 211 398 c 1
 166 393 159 392 182 358 c 2xa640
EndSplineSet
MultipleSubs2: "'smcp' Lowercase to Small Capitals lookup 10 subtable" x.sc
Substitution2: "'subs' Subscript lookup 7 subtable" uni2093
Substitution2: "'sups' Superscript lookup 6 subtable" uni02E3
Substitution2: "Single Substitution lookup 4 subtable" uni02E3
Substitution2: "Single Substitution lookup 3 subtable" uni2093
EndChar

StartChar: y
Encoding: 121 121 90
Width: 515
GlyphClass: 2
Flags: MW
HStem: -232 77<93.5 145.5> 398 33<16 16 210 210 341 341 503 503>
VStem: 12 153 337 171 393 115
AnchorPoint: "Anchor-2" 242 -319 basechar 0
AnchorPoint: "Anchor-0" 262 645 basechar 0
LayerCount: 2
Fore
SplineSet
204 -160 m 0xe8
 168 -224 128 -232 107 -232 c 0
 80 -232 60 -216 60 -195 c 0
 60 -182 75 -152 104 -152 c 0
 115 -152 119 -155 133 -155 c 0
 158 -155 172 -146 183 -126 c 0
 198 -95 210 -67 222 -34 c 0
 232 -6 217 40 208 60 c 2
 95 323 l 2
 69 384 56 393 16 398 c 1
 10 404 10 425 16 431 c 1
 36 430 63 429 97 429 c 0
 133 429 173 430 210 431 c 1
 216 425 216 404 210 398 c 1
 154 394 159 375 177 333 c 2
 266 125 l 2
 274 105 283 108 290 124 c 2
 389 353 l 2
 405 389 373 395 341 398 c 1
 335 404 335 425 341 431 c 1
 371 430 402 429 432 429 c 0
 460 429 483 430 503 431 c 1
 509 425 509 404 503 398 c 1
 456 392 442 376 422 334 c 0
 370 222 325 119 245 -74 c 0
 233 -104 220 -132 204 -160 c 0xe8
EndSplineSet
Substitution2: "'salt' Stylistic Alternatives lookup 20 subtable" y.alt
MultipleSubs2: "'smcp' Lowercase to Small Capitals lookup 10 subtable" y.sc
Substitution2: "'subs' Subscript lookup 7 subtable" y.inferior
Substitution2: "'sups' Superscript lookup 6 subtable" uni02B8
Substitution2: "Single Substitution lookup 4 subtable" uni02B8
Substitution2: "Single Substitution lookup 3 subtable" y.inferior
EndChar

StartChar: z
Encoding: 122 122 91
Width: 424
GlyphClass: 2
Flags: MW
HStem: -3 21G<372 372> 0 34 393.5 35.5
VStem: 37 367
AnchorPoint: "Anchor-6" 207 215 basechar 0
AnchorPoint: "Anchor-5" 208 4 basechar 0
AnchorPoint: "Anchor-3" 399 580 basechar 0
AnchorPoint: "Anchor-2" 207 -110 basechar 0
AnchorPoint: "Anchor-0" 220 646 basechar 0
LayerCount: 2
Fore
SplineSet
71 439 m 0x70
 86 434 98 429 130 429 c 2
 313 429 l 2
 342 429 370 431 375 431 c 0
 382 431 387 428 387 424 c 0
 387 420 384 412 369 387 c 0
 307 285 203 128 129 34 c 1
 262 34 l 2
 314 35 335 57 360 110 c 2x70
 374 139 l 1
 386 139 398 137 404 133 c 1
 397 83 384 31 372 -3 c 1xb0
 60 0 l 2
 45 0 37 5 37 12 c 0
 37 17 37 20 46 32 c 0
 124 137 224 281 292 395 c 1
 164 392 l 2
 134 391 103 374 83 301 c 1
 71 298 59 300 50 304 c 1
 59 353 64 388 65 433 c 0
 65 435 69 439 71 439 c 0x70
EndSplineSet
MultipleSubs2: "'smcp' Lowercase to Small Capitals lookup 10 subtable" z.sc
Substitution2: "'subs' Subscript lookup 7 subtable" z.inferior
Substitution2: "'sups' Superscript lookup 6 subtable" uni1DBB
Substitution2: "Single Substitution lookup 4 subtable" uni1DBB
Substitution2: "Single Substitution lookup 3 subtable" z.inferior
EndChar

StartChar: braceleft
Encoding: 123 123 92
Width: 277
GlyphClass: 2
Flags: MW
HStem: -212 24<236 258 236 258>
VStem: 8 73 109 73 112 70
LayerCount: 2
Fore
SplineSet
178 552 m 2xd0
 186 386 l 2
 190 297 148 268 81 249 c 1
 81 245 l 1
 149 217 190 177 186 95 c 2
 178 -54 l 2
 174 -138 214 -188 258 -188 c 1
 264 -194 264 -206 258 -212 c 1xd0
 157 -212 101 -179 106 -49 c 2xe0
 112 121 l 2
 114 182 88 226 14 235 c 1
 6 243 5 250 14 259 c 1
 88 266 112 320 112 370 c 2
 106 554 l 2
 102 667 168 707 258 707 c 1
 264 701 264 689 258 683 c 1
 220 672 173 655 178 552 c 2xd0
EndSplineSet
MultipleSubs2: "'c2sc' Capitals to Small Capitals lookup 12 subtable" braceleft.sc
Substitution2: "'case' Case-Sensitive Forms lookup 8 subtable" braceleft.sc
EndChar

StartChar: bar
Encoding: 124 124 93
Width: 205
GlyphClass: 2
Flags: MW
HStem: -232 21G<81 125 81 81> 678 20G<81 125 125 125>
VStem: 81 44<-232 698>
LayerCount: 2
Fore
SplineSet
125 -232 m 1
 81 -232 l 1
 81 698 l 1
 125 698 l 1
 125 -232 l 1
EndSplineSet
EndChar

StartChar: braceright
Encoding: 125 125 94
Width: 277
GlyphClass: 2
Flags: MW
HStem: 682 24<15 37>
VStem: 91 70 91 73 192 73
LayerCount: 2
Fore
SplineSet
95 -58 m 2xd0
 87 108 l 2
 83 197 125 226 192 245 c 1
 192 249 l 1
 124 277 83 317 87 399 c 2
 95 548 l 2
 100 632 59 682 15 682 c 1
 9 688 9 700 15 706 c 1xd0
 116 706 172 673 167 543 c 2xb0
 161 373 l 2
 159 312 186 268 259 259 c 1
 267 251 268 244 259 235 c 1
 185 228 161 174 161 124 c 2
 167 -60 l 2
 171 -173 105 -213 15 -213 c 1
 9 -207 9 -195 15 -189 c 1
 53 -178 100 -161 95 -58 c 2xd0
EndSplineSet
MultipleSubs2: "'c2sc' Capitals to Small Capitals lookup 12 subtable" braceright.sc
Substitution2: "'case' Case-Sensitive Forms lookup 8 subtable" braceright.sc
EndChar

StartChar: asciitilde
Encoding: 126 126 95
Width: 449
GlyphClass: 2
Flags: MW
HStem: 213 59<290 309> 278 59<130.5 160.5>
VStem: 26 391
LayerCount: 2
Fore
SplineSet
26 209 m 1
 39 274 93 337 154 337 c 0
 177 337 205 323 229 305 c 0
 256 285 279 272 301 272 c 0
 329 272 378 289 400 339 c 1
 408 339 414 337 417 333 c 0
 386 226 321 213 297 213 c 0
 274 213 245 228 221 246 c 0
 197 264 173 278 148 278 c 0
 113 278 66 249 43 205 c 1
 37 205 32 206 26 209 c 1
EndSplineSet
EndChar

StartChar: exclamdown
Encoding: 161 161 97
Width: 288
GlyphClass: 2
Flags: MW
HStem: -229 21G<132 156> 333 106<129.5 158.5>
VStem: 91 106<-183 -123.5 371.5 400.5>
LayerCount: 2
Fore
SplineSet
144 -229 m 0
 120 -229 91 -210 91 -156 c 0
 91 -91 105 -49 115 37 c 0
 128 145 128 205 130 219 c 0
 131 230 134 239 144 239 c 0
 154 239 157 232 158 226 c 0
 160 205 166 115 174 37 c 0
 183 -51 197 -86 197 -156 c 0
 197 -210 168 -229 144 -229 c 0
91 386 m 0
 91 415 115 439 144 439 c 0
 173 439 197 415 197 386 c 0
 197 357 173 333 144 333 c 0
 115 333 91 357 91 386 c 0
EndSplineSet
MultipleSubs2: "'c2sc' Capitals to Small Capitals lookup 12 subtable" exclamdown.sc
Substitution2: "'case' Case-Sensitive Forms lookup 8 subtable" exclamdown.sc
EndChar

StartChar: cent
Encoding: 162 162 98
Width: 465
GlyphClass: 2
Flags: MW
HStem: 88 46<268 298.5> 483 31<268 268>
VStem: 69 82<273.5 355> 232 36<-13 88 -13 89 -13 89 145 479 479 479 514 611> 232 178<409.5 450 409.5 479 409.5 479 409.5 611 409.5 611>
LayerCount: 2
Fore
SplineSet
232 611 m 1xf0
 268 611 l 1
 268 514 l 1xf0
 357 513 410 476 410 424 c 0
 410 395 383 382 363 382 c 0
 343 382 330 391 327 417 c 0xe8
 323 448 316 479 268 483 c 1
 268 135 l 2
 271 134 275 134 278 134 c 0
 319 134 360 155 392 197 c 1
 401 196 409 192 412 184 c 1
 368 110 321 90 268 88 c 1
 268 -13 l 1
 232 -13 l 1
 232 89 l 1
 128 100 69 181 69 295 c 0
 69 415 148 495 232 511 c 1
 232 611 l 1xf0
232 145 m 1
 232 479 l 1
 184 463 151 404 151 316 c 0
 151 231 185 169 232 145 c 1
EndSplineSet
EndChar

StartChar: sterling
Encoding: 163 163 99
Width: 465
GlyphClass: 2
Flags: MW
HStem: -11 55<294.5 343.5> 49 42<147 176> 300 39<71.5 137 92 137 92 137 222 330> 563 48<282 363.5>
VStem: 16 76<12.5 26.5> 137 85<281 300 300 300 339 359 359 401.5>
LayerCount: 2
Fore
SplineSet
74 300 m 2
 69 300 68 302 68 307 c 2
 68 318 l 2
 68 326 74 339 92 339 c 2
 137 339 l 1
 137 359 l 2
 137 444 164 498 219 552 c 0
 254 588 299 611 352 611 c 0
 375 611 432 598 432 562 c 0
 432 537 415 521 391 521 c 0
 376 521 367 529 355 540 c 0
 342 552 327 563 305 563 c 0
 259 563 222 497 222 410 c 2
 222 339 l 1
 346 339 l 2
 351 339 354 337 354 333 c 2
 354 313 l 2
 354 305 341 300 330 300 c 2
 222 300 l 1
 221 181 181 123 147 91 c 1
 271 91 260 44 329 44 c 0
 359 44 406 52 432 88 c 1
 440 87 446 84 450 77 c 1
 426 25 376 -11 311 -11 c 0
 221 -11 220 49 132 49 c 0
 97 49 92 35 92 24 c 0
 92 1 74 -11 52 -11 c 0
 33 -11 16 1 16 17 c 0
 16 36 40 52 67 67 c 0
 126 110 137 190 137 281 c 2
 137 300 l 1
 74 300 l 2
EndSplineSet
EndChar

StartChar: currency
Encoding: 164 164 100
Width: 465
GlyphClass: 2
Flags: MW
HStem: 119 45<210 252.5> 445 44<210.5 252.5 210.5 265.5>
VStem: 44 64<282.5 326.5> 354 64<283 326 283 343.5>
LayerCount: 2
Fore
SplineSet
231 119 m 0
 189 119 151 132 117 157 c 1
 72 101 l 1
 29 144 l 1
 86 189 l 1
 59 222 44 261 44 304 c 0
 44 349 59 388 86 420 c 1
 31 464 l 1
 70 506 l 1
 118 452 l 1
 153 477 190 489 231 489 c 0
 274 489 312 476 346 450 c 1
 395 508 l 1
 436 465 l 1
 378 418 l 1
 404 386 418 348 418 304 c 0
 418 262 404 224 379 191 c 1
 434 145 l 1
 396 105 l 1
 348 158 l 1
 313 132 274 119 231 119 c 0
108 305 m 0
 108 228 156 164 231 164 c 0
 305 164 354 229 354 304 c 0
 354 383 298 445 233 445 c 0
 159 445 108 380 108 305 c 0
EndSplineSet
EndChar

StartChar: yen
Encoding: 165 165 101
Width: 465
GlyphClass: 2
Flags: MW
HStem: -2 33<89 89 378 378> 134 39<47.5 191 68 191 68 191 276 398> 245 39<47.5 187 68 187 68 191 286 398> 569 33<0 0 179 179 320 320>
VStem: -4 145 -4 188 191 85<127 134 83 134 173 245> 358 112
LayerCount: 2
Fore
SplineSet
191 127 m 2xfb
 191 134 l 1
 50 134 l 2
 45 134 44 136 44 141 c 2
 44 154 l 2
 44 162 50 173 68 173 c 2
 191 173 l 1
 191 245 l 1
 50 245 l 2
 45 245 44 246 44 251 c 2
 44 263 l 2
 44 271 50 284 68 284 c 2
 187 284 l 1
 80 503 l 2
 62 541 41 565 0 569 c 1
 -6 575 -6 596 0 602 c 1
 32 601 76 600 90 600 c 0
 96 600 147 601 179 602 c 1xf5
 185 596 185 575 179 569 c 1
 143 569 132 566 149 531 c 2
 256 311 l 1
 258 311 l 1
 335 487 l 2
 335 488 336 489 336 490 c 0
 367 560 369 565 320 569 c 1
 314 575 314 596 320 602 c 1
 352 601 382 600 399 600 c 0
 416 600 434 601 466 602 c 1
 472 596 470 575 464 569 c 1
 411 564 411 560 378 487 c 2
 286 284 l 1
 415 284 l 2
 419 284 423 282 423 278 c 2
 423 259 l 2
 423 249 409 245 398 245 c 2
 276 245 l 1
 276 173 l 1
 415 173 l 2
 419 173 423 171 423 167 c 2
 423 148 l 2
 423 138 409 134 398 134 c 2
 276 134 l 1
 276 127 l 2
 276 39 293 34 378 31 c 1
 384 25 384 4 378 -2 c 1
 325 -1 291 0 235 0 c 0
 178 0 141 -1 89 -2 c 1
 83 4 83 25 89 31 c 1
 174 34 191 39 191 127 c 2xfb
EndSplineSet
Substitution2: "'pnum' Proportional Numbers lookup 17 subtable" Yen.fitted
EndChar

StartChar: brokenbar
Encoding: 166 166 102
Width: 211
GlyphClass: 2
Flags: MW
HStem: -201 875<81 130 81 130>
VStem: 81 49<-201 161 -201 161 312 674>
LayerCount: 2
Fore
SplineSet
130 161 m 1
 130 -201 l 1
 81 -201 l 1
 81 161 l 1
 130 161 l 1
130 674 m 1
 130 312 l 1
 81 312 l 1
 81 674 l 1
 130 674 l 1
EndSplineSet
EndChar

StartChar: section
Encoding: 167 167 103
Width: 473
GlyphClass: 2
Flags: MW
HStem: -172 31<221.5 266.5 221.5 288.5> 627 31<206.5 251.5>
VStem: 50 54<269 299> 80 69<522.5 559> 324 69<-73 -36.5> 369 54<186 217>
LayerCount: 2
Fore
SplineSet
125 415 m 1xe4
 90 450 80 484 80 526 c 0
 80 592 133 658 236 658 c 0
 333 658 375 596 375 557 c 0
 375 536 366 519 339 519 c 0
 313 519 303 541 298 560 c 0
 288 598 273 627 230 627 c 0
 183 627 149 592 149 546 c 0
 149 499 175 462 240 427 c 0
 317 386 423 342 423 219 c 0xd4
 423 153 393 107 348 71 c 1
 383 36 393 2 393 -40 c 0
 393 -106 340 -172 237 -172 c 0
 140 -172 98 -110 98 -71 c 0
 98 -50 107 -33 134 -33 c 0
 160 -33 170 -55 175 -74 c 0
 185 -112 200 -141 243 -141 c 0
 290 -141 324 -106 324 -60 c 0xe8
 324 -13 298 24 233 59 c 0
 156 100 50 144 50 267 c 0
 50 331 80 379 125 415 c 1xe4
327 90 m 1
 351 112 369 140 369 171 c 0
 369 263 294 303 222 345 c 0
 191 363 166 380 146 396 c 1
 120 373 104 349 104 315 c 0
 104 223 179 183 251 141 c 0
 283 123 308 106 327 90 c 1
EndSplineSet
EndChar

StartChar: dieresis
Encoding: 168 168 104
Width: 379
GlyphClass: 2
Flags: MW
HStem: 528 95<84 110 253 279>
VStem: 50 94<562 588> 219 94<562 588>
LayerCount: 2
Fore
SplineSet
50 575 m 0
 50 601 71 623 97 623 c 0
 123 623 144 601 144 575 c 0
 144 549 123 528 97 528 c 0
 71 528 50 549 50 575 c 0
219 575 m 0
 219 601 240 623 266 623 c 0
 292 623 313 601 313 575 c 0
 313 549 292 528 266 528 c 0
 240 528 219 549 219 575 c 0
EndSplineSet
EndChar

StartChar: copyright
Encoding: 169 169 105
Width: 695
GlyphClass: 2
Flags: MW
HStem: 23 32<251 390 251 399> 152 29<302 348.5> 434 23<299 347.5> 556 32<251 390.5>
VStem: 34 40<237 375.5 237 384> 165 67<281.5 323> 410 20<359 361 359 359 361 442> 568 40<236.5 375.5>
LayerCount: 2
Fore
SplineSet
321 23 m 0
 164 23 34 151 34 306 c 0
 34 462 165 588 321 588 c 0
 477 588 608 462 608 306 c 0
 608 150 477 23 321 23 c 0
321 556 m 0
 181 556 74 445 74 306 c 0
 74 168 181 55 321 55 c 0
 459 55 568 167 568 306 c 0
 568 445 460 556 321 556 c 0
439 216 m 1
 419 185 376 152 321 152 c 0
 282 152 246 165 219 187 c 0
 184 216 165 259 165 304 c 0
 165 342 177 379 201 406 c 0
 230 438 275 457 323 457 c 0
 393 457 410 444 430 442 c 1
 432 406 431 384 430 361 c 2
 430 359 l 1
 425 356 418 355 410 355 c 1
 393 401 376 434 319 434 c 0
 279 434 232 409 232 311 c 0
 232 238 274 181 330 181 c 0
 381 181 409 215 420 231 c 1
 430 228 434 222 439 216 c 1
EndSplineSet
EndChar

StartChar: ordfeminine
Encoding: 170 170 106
Width: 307
GlyphClass: 2
Flags: MW
HStem: 358 32<111 124.5> 358 33<222.5 262> 612 25<121.5 149.5>
VStem: 31 52<420.5 446.5 420.5 449> 36 48<581.5 584> 192 54<427.5 448 448 502 502 502>
LayerCount: 2
Fore
SplineSet
235 358 m 0x6c
 210 358 196 379 193 397 c 1
 159 367 141 358 108 358 c 0
 66 358 31 385 31 428 c 0xb4
 31 470 71 498 134 514 c 2
 192 529 l 1
 192 604 161 612 138 612 c 0
 105 612 84 601 84 585 c 0
 84 578 85 574 86 572 c 0
 87 570 88 565 88 560 c 0
 88 552 81 539 62 539 c 0
 47 539 36 549 36 564 c 0
 36 604 98 637 140 637 c 0
 189 637 246 617 246 523 c 2
 246 448 l 2
 246 407 251 391 260 391 c 0
 264 391 269 393 272 396 c 0
 279 393 283 388 282 380 c 1
 273 370 254 358 235 358 c 0x6c
192 502 m 1
 107 480 83 462 83 431 c 0
 83 410 94 390 128 390 c 0
 149 390 166 400 192 423 c 1
 192 502 l 1
EndSplineSet
EndChar

StartChar: guillemotleft
Encoding: 171 171 107
Width: 543
GlyphClass: 2
Flags: MW
HStem: 26 378<259 259 439 439>
VStem: 74 389
LayerCount: 2
Fore
SplineSet
156 215 m 1
 194 173 231 124 283 45 c 1
 281 35 270 27 259 26 c 1
 180 112 130 160 74 209 c 1
 74 221 l 1
 130 270 180 319 259 404 c 1
 270 403 281 395 283 385 c 1
 231 306 194 258 156 215 c 1
336 215 m 1
 374 173 411 124 463 45 c 1
 461 35 450 27 439 26 c 1
 360 112 310 160 254 209 c 1
 254 221 l 1
 310 270 360 319 439 404 c 1
 450 403 461 395 463 385 c 1
 411 306 374 258 336 215 c 1
EndSplineSet
MultipleSubs2: "'c2sc' Capitals to Small Capitals lookup 12 subtable" guillemotleft.sc
Substitution2: "'case' Case-Sensitive Forms lookup 8 subtable" guillemotleft.sc
EndChar

StartChar: logicalnot
Encoding: 172 172 108
Width: 599
GlyphClass: 2
Flags: MW
HStem: 323 44<40 499 40 553>
VStem: 499 54<99 323 323 323>
LayerCount: 2
Fore
SplineSet
499 99 m 1
 499 323 l 1
 40 323 l 1
 36 336 33 349 40 367 c 1
 553 367 l 1
 553 99 l 1
 536 93 518 90 499 99 c 1
EndSplineSet
EndChar

StartChar: uni00AD
Encoding: 173 173 109
Width: 338
GlyphClass: 2
Flags: MW
HStem: 223 60<50.5 284 65 271>
VStem: 40 258<237 268>
LayerCount: 2
Fore
SplineSet
271 223 m 2
 55 223 l 2
 46 223 40 232 40 242 c 0
 40 260 53 283 65 283 c 2
 284 283 l 2
 294 283 298 273 298 263 c 0
 298 251 284 223 271 223 c 2
EndSplineSet
EndChar

StartChar: registered
Encoding: 174 174 110
Width: 695
GlyphClass: 2
Flags: MW
HStem: 23 32<251 390 251 399> 166 24 167 145 288 24<286 288.5> 421 24<325 343> 556 32<251 390.5>
VStem: 34 40<237 375.5 237 384> 239 47<232 288 312 380 380 387> 376 54<350.5 385 350.5 387> 568 40<236.5 375.5>
LayerCount: 2
Fore
SplineSet
321 23 m 0x9fc0
 164 23 34 151 34 306 c 0
 34 462 165 588 321 588 c 0
 477 588 608 462 608 306 c 0
 608 150 477 23 321 23 c 0x9fc0
321 556 m 0
 181 556 74 445 74 306 c 0
 74 168 181 55 321 55 c 0
 459 55 568 167 568 306 c 0
 568 445 460 556 321 556 c 0
199 445 m 1
 217 444 247 443 263 443 c 0
 279 443 315 445 335 445 c 0
 410 445 430 400 430 370 c 0
 430 331 404 306 373 296 c 1
 421 214 l 2
 432 195 448 187 464 190 c 1
 468 186 469 179 468 173 c 1
 456 168 444 166 432 166 c 0
 412 166 388 175 371 204 c 2
 323 284 l 2
 319 287 291 288 286 288 c 1
 286 232 l 2
 286 200 294 194 326 191 c 0xdfc0
 330 187 330 171 326 167 c 1
 308 168 279 169 263 169 c 0
 247 169 217 168 199 167 c 1
 195 171 195 187 199 191 c 0
 231 194 239 200 239 232 c 2xafc0
 239 380 l 2
 239 412 231 418 199 421 c 0
 195 425 195 441 199 445 c 1
376 370 m 0
 376 404 360 421 326 421 c 0
 301 421 286 405 286 387 c 2
 286 312 l 1
 328 312 l 2
 358 312 376 324 376 370 c 0
EndSplineSet
EndChar

StartChar: macron
Encoding: 175 175 111
Width: 397
GlyphClass: 2
Flags: MW
HStem: 529 44<66.5 325 81 315>
VStem: 59 280<540.5 562>
LayerCount: 2
Fore
SplineSet
315 529 m 2
 71 529 l 2
 62 529 59 537 59 544 c 0
 59 556 69 573 81 573 c 2
 325 573 l 2
 335 573 339 565 339 559 c 0
 339 547 328 529 315 529 c 2
EndSplineSet
EndChar

StartChar: degree
Encoding: 176 176 112
Width: 267
GlyphClass: 2
Flags: MW
HStem: 409 30<113 154.5 113 161.5> 580 30<112.5 156.5>
VStem: 34 34<490.5 526 490.5 537> 199 34<491 524.5>
LayerCount: 2
Fore
SplineSet
34 509 m 0
 34 565 79 610 134 610 c 0
 189 610 233 565 233 509 c 0
 233 454 189 409 134 409 c 0
 79 409 34 454 34 509 c 0
199 508 m 0
 199 541 179 580 134 580 c 0
 91 580 68 544 68 508 c 0
 68 473 92 439 134 439 c 0
 175 439 199 474 199 508 c 0
EndSplineSet
EndChar

StartChar: plusminus
Encoding: 177 177 113
Width: 550
GlyphClass: 2
Flags: MW
HStem: 37 50<70.5 476 85 463> 311 50<70.5 250 85 250 85 250 300 463>
VStem: 250 50<145 151 151 311 361 520 520 526.5>
LayerCount: 2
Fore
SplineSet
250 520 m 2
 250 533 273 547 283 547 c 0
 291 547 300 543 300 533 c 2
 300 361 l 1
 476 361 l 2
 486 361 490 352 490 344 c 0
 490 334 476 311 463 311 c 2
 300 311 l 1
 300 151 l 2
 300 139 281 126 266 126 c 0
 258 126 250 132 250 141 c 2
 250 311 l 1
 75 311 l 2
 66 311 60 319 60 327 c 0
 60 342 73 361 85 361 c 2
 250 361 l 1
 250 520 l 2
463 37 m 2
 75 37 l 2
 66 37 60 45 60 53 c 0
 60 68 73 87 85 87 c 2
 476 87 l 2
 486 87 490 78 490 70 c 0
 490 60 476 37 463 37 c 2
EndSplineSet
EndChar

StartChar: uni00B2
Encoding: 178 178 114
Width: 307
GlyphClass: 2
Flags: MW
HStem: 364 32<107 190 190 205.5 107 251> 364 99<246 251> 658 30<134.5 159>
VStem: 47 53<608 619 608 624> 200 62<582 627.5>
LayerCount: 2
Fore
SplineSet
73 587 m 0xb8
 61 587 47 598 47 611 c 0
 47 637 75 688 154 688 c 0
 204 688 262 669 262 605 c 0
 262 559 229 526 173 486 c 0
 131 456 116 429 107 396 c 1
 190 396 l 2xb8
 221 396 235 435 246 463 c 1
 257 463 265 462 270 458 c 1x78
 266 422 260 391 251 364 c 1
 45 364 l 1
 45 412 83 454 131 491 c 0
 176 527 200 550 200 604 c 0
 200 651 168 658 150 658 c 0
 119 658 107 649 102 637 c 0
 100 632 100 625 100 619 c 0
 100 615 101 611 100 608 c 0
 97 590 83 587 73 587 c 0xb8
EndSplineSet
EndChar

StartChar: uni00B3
Encoding: 179 179 115
Width: 307
GlyphClass: 2
Flags: MW
HStem: 358 30<123 153.5 123 175> 526 25 526 35 658 30<139.5 156>
VStem: 186 59<614.5 637> 212 62<438.5 493.5>
LayerCount: 2
Fore
SplineSet
186 624 m 0xd8
 186 650 164 658 148 658 c 0
 131 658 103 650 96 634 c 0
 91 623 92 605 69 605 c 0
 50 605 46 620 46 623 c 0
 46 640 73 688 160 688 c 0
 212 688 245 666 245 629 c 0xd8
 245 600 223 577 194 561 c 1xb4
 227 558 274 531 274 473 c 0
 274 404 215 358 135 358 c 0
 109 358 38 369 38 401 c 0
 38 414 51 423 63 423 c 0
 77 423 87 418 93 406 c 0
 99 395 107 388 139 388 c 0
 168 388 212 401 212 465 c 0
 212 522 161 526 137 526 c 0
 130 526 125 525 117 524 c 1xd4
 112 531 112 542 115 551 c 1
 159 557 186 583 186 624 c 0xd8
EndSplineSet
EndChar

StartChar: acute
Encoding: 180 180 116
Width: 341
GlyphClass: 2
Flags: MW
HStem: 543 162<98.5 192>
VStem: 88 159<552.5 671>
LayerCount: 2
Fore
SplineSet
175 703 m 2
 178 704 184 705 189 705 c 0
 195 705 221 704 244 682 c 1
 247 671 l 1
 132 562 l 2
 117 547 109 543 102 543 c 0
 95 543 88 549 88 556 c 0
 88 567 91 571 99 584 c 2
 175 703 l 2
EndSplineSet
EndChar

StartChar: mu
Encoding: 181 181 117
Width: 515
GlyphClass: 2
Flags: MW
HStem: -234 21G<98.5 119> -10 44<442.5 448> -10 45<181 226> 409 20G<46 58 342 354.5> 419 20G<133 133 421 421>
VStem: 57 79<134 147 147 322 322 336> 66 50<-28.5 6.5 -28.5 8.5> 342 79<60 121 107 121 121 429 429 429>
LayerCount: 2
Fore
SplineSet
340 60 m 1xad
 301 16 258 -10 194 -10 c 0
 167 -10 141 0 129 13 c 1
 123 13 116 9 116 4 c 0
 116 -61 150 -131 150 -174 c 0
 150 -215 131 -234 107 -234 c 0
 90 -234 50 -210 50 -169 c 0xab
 50 -118 66 -71 66 -8 c 0
 66 25 57 76 57 134 c 2
 57 322 l 2
 57 350 46 429 46 429 c 1
 70 429 103 436 133 439 c 1
 133 439 136 375 136 343 c 2
 136 147 l 2
 136 85 153 35 209 35 c 0
 264 35 319 74 342 107 c 1
 342 429 l 1xb5
 367 429 395 436 421 439 c 1
 421 121 l 2
 421 75 422 34 463 34 c 0
 489 34 492 50 498 50 c 0xcd
 502 50 510 42 510 35 c 0
 510 30 474 -10 422 -10 c 0
 361 -10 345 32 342 60 c 1
 340 60 l 1xad
EndSplineSet
EndChar

StartChar: paragraph
Encoding: 182 182 118
Width: 602
GlyphClass: 2
Flags: MW
HStem: -234 29<231 236> -234 35 612 33<395.5 418.5> 618 27
VStem: 317 50<-161 285 285 285> 448 50<-161 574>
LayerCount: 2
Fore
SplineSet
408 645 m 0x9c
 477 645 538 645 585 647 c 1
 587 645 l 1
 587 626 l 2
 587 621 583 618 579 618 c 2
 553 616 l 2
 513 613 498 604 498 574 c 2
 498 -161 l 2
 498 -191 513 -200 553 -203 c 2
 579 -205 l 2
 583 -205 587 -208 587 -213 c 2
 587 -232 l 1
 585 -234 l 1
 538 -232 477 -232 408 -232 c 0
 339 -232 280 -232 231 -234 c 1
 229 -232 l 1
 229 -213 l 2
 229 -208 232 -205 236 -205 c 2
 263 -203 l 2
 305 -200 317 -189 317 -161 c 2
 317 285 l 1
 308 283 300 282 285 282 c 0
 139 282 57 347 57 481 c 0
 57 560 115 647 247 647 c 0
 322 647 381 645 408 645 c 0x9c
367 574 m 2x6c
 367 -161 l 2
 367 -188 384 -199 407 -199 c 0
 430 -199 448 -192 448 -161 c 2
 448 574 l 2
 448 605 430 612 407 612 c 0
 384 612 367 601 367 574 c 2x6c
EndSplineSet
EndChar

StartChar: periodcentered
Encoding: 183 183 119
Width: 250
GlyphClass: 2
Flags: MW
HStem: 199 108<111 139>
VStem: 71 108<239 267>
LayerCount: 2
Fore
SplineSet
125 199 m 0
 97 199 71 225 71 253 c 0
 71 281 97 307 125 307 c 0
 153 307 179 281 179 253 c 0
 179 225 153 199 125 199 c 0
EndSplineSet
EndChar

StartChar: cedilla
Encoding: 184 184 120
Width: 541
GlyphClass: 2
Flags: MW
HStem: -200 29<274 299 274 320.5> -96 32<292.5 346>
VStem: 335 62<-144 -120.5>
LayerCount: 2
Fore
SplineSet
302 -96 m 0
 283 -96 273 -97 257 -102 c 1
 251 -96 l 1
 291 0 l 1
 325 0 l 1
 300 -67 l 1
 308 -65 317 -64 326 -64 c 0
 366 -64 397 -88 397 -126 c 0
 397 -169 351 -200 290 -200 c 0
 258 -200 241 -194 216 -183 c 1
 216 -171 219 -164 226 -157 c 1
 253 -167 264 -171 284 -171 c 0
 314 -171 335 -157 335 -131 c 0
 335 -110 325 -96 302 -96 c 0
EndSplineSet
EndChar

StartChar: uni00B9
Encoding: 185 185 121
Width: 307
GlyphClass: 2
Flags: MW
HStem: 364 29<78 78 258 258> 668 20G<185 203 203 203> 671 20G
VStem: 149 54<449 579 579 595>
LayerCount: 2
Fore
SplineSet
135 620 m 0xb0
 122 620 103 614 78 605 c 1
 70 611 68 620 68 632 c 1
 115 649 141 661 185 688 c 0xb0
 190 691 198 693 203 688 c 1xd0
 203 449 l 2
 203 398 224 395 258 393 c 1
 262 385 262 371 258 364 c 1
 228 365 207 365 174 365 c 0
 139 365 108 365 78 364 c 1
 74 370 73 385 78 393 c 1
 118 395 149 398 149 449 c 2
 149 579 l 2
 149 611 147 620 135 620 c 0xb0
EndSplineSet
EndChar

StartChar: ordmasculine
Encoding: 186 186 122
Width: 349
GlyphClass: 2
Flags: MW
HStem: 357 26<153 196.5 153 219> 594 26<146 196>
VStem: 39 58<468.5 520 468.5 523.5> 253 58<456.5 513>
LayerCount: 2
Fore
SplineSet
39 483 m 0
 39 564 93 620 179 620 c 0
 266 620 311 558 311 489 c 0
 311 424 266 357 172 357 c 0
 98 357 39 412 39 483 c 0
171 594 m 0
 121 594 97 547 97 493 c 0
 97 444 123 383 183 383 c 0
 210 383 253 401 253 473 c 0
 253 553 221 594 171 594 c 0
EndSplineSet
EndChar

StartChar: guillemotright
Encoding: 187 187 123
Width: 543
GlyphClass: 2
Flags: MW
HStem: 26 378<104 104 284 284>
VStem: 80 389
LayerCount: 2
Fore
SplineSet
207 215 m 1
 170 258 132 306 80 385 c 1
 83 395 94 403 104 404 c 1
 184 319 234 270 289 221 c 1
 289 209 l 1
 234 160 184 112 104 26 c 1
 94 27 83 35 80 45 c 1
 132 124 170 173 207 215 c 1
387 215 m 1
 350 258 312 306 260 385 c 1
 263 395 274 403 284 404 c 1
 364 319 414 270 469 221 c 1
 469 209 l 1
 414 160 364 112 284 26 c 1
 274 27 263 35 260 45 c 1
 312 124 350 173 387 215 c 1
EndSplineSet
MultipleSubs2: "'c2sc' Capitals to Small Capitals lookup 12 subtable" guillemotright.sc
Substitution2: "'case' Case-Sensitive Forms lookup 8 subtable" guillemotright.sc
EndChar

StartChar: onequarter
Encoding: 188 188 124
Width: 660
GlyphClass: 2
LigCaretCntFixed: 1
Flags: MW
HStem: -81 29<475 475 631 631> 18 34<396 528 430 528 430 528 580 630> 315 29<75 75 255 255> 581 20G<557 557>
VStem: 146 54<400 530 530 546> 528 52<-6 18 -26.5 18 52 192 192 192>
LayerCount: 2
Fore
SplineSet
528 -6 m 2
 528 18 l 1
 409 18 l 2
 383 18 388 38 390 46 c 0
 393 53 396 58 400 63 c 0
 433 117 477 169 512 210 c 0
 521 221 532 232 548 241 c 0
 549 242 558 242 561 242 c 0
 568 242 580 241 580 232 c 2
 580 52 l 1
 636 52 l 1
 630 18 l 1
 580 18 l 1
 580 -6 l 2
 580 -47 597 -50 631 -52 c 1
 635 -60 635 -74 631 -81 c 1
 601 -80 583 -80 553 -80 c 0
 518 -80 505 -80 475 -81 c 1
 471 -75 470 -60 475 -52 c 1
 515 -50 528 -47 528 -6 c 2
557 601 m 1
 598 593 l 1
 140 -62 l 1
 98 -54 l 1
 557 601 l 1
132 571 m 0
 119 571 100 565 75 556 c 1
 67 562 65 571 65 583 c 1
 112 600 138 612 182 639 c 0
 187 642 195 644 200 639 c 1
 200 400 l 2
 200 349 221 346 255 344 c 1
 259 336 259 322 255 315 c 1
 225 316 204 316 171 316 c 0
 136 316 105 316 75 315 c 1
 71 321 70 336 75 344 c 1
 115 346 146 349 146 400 c 2
 146 530 l 2
 146 562 144 571 132 571 c 0
528 192 m 1
 489 143 437 70 430 52 c 1
 528 52 l 1
 528 192 l 1
EndSplineSet
LCarets2: 2 215 424
EndChar

StartChar: onehalf
Encoding: 189 189 125
Width: 660
GlyphClass: 2
LigCaretCntFixed: 1
Flags: MW
HStem: -79 32<465 548 548 563.5 465 609> 215 30<492.5 517> 315 29<77 77 257 257> 581 20G<532 532>
VStem: 148 54<400 530 530 546> 405 53<165 176 165 181> 558 62<139 184.5>
LayerCount: 2
Fore
SplineSet
532 601 m 1
 574 593 l 1
 115 -62 l 1
 74 -54 l 1
 532 601 l 1
431 144 m 0
 419 144 405 155 405 168 c 0
 405 194 433 245 512 245 c 0
 562 245 620 226 620 162 c 0
 620 116 587 83 531 43 c 0
 489 13 474 -14 465 -47 c 1
 548 -47 l 2
 579 -47 593 -8 604 20 c 1
 615 20 623 19 628 15 c 1
 624 -21 618 -52 609 -79 c 1
 403 -79 l 1
 403 -31 441 11 489 48 c 0
 534 84 558 107 558 161 c 0
 558 208 526 215 508 215 c 0
 477 215 465 206 460 194 c 0
 458 189 458 182 458 176 c 0
 458 172 459 168 458 165 c 0
 455 147 441 144 431 144 c 0
134 571 m 0
 121 571 102 565 77 556 c 1
 69 562 67 571 67 583 c 1
 114 600 140 612 184 639 c 0
 189 642 197 644 202 639 c 1
 202 400 l 2
 202 349 223 346 257 344 c 1
 261 336 261 322 257 315 c 1
 227 316 206 316 173 316 c 0
 138 316 107 316 77 315 c 1
 73 321 72 336 77 344 c 1
 117 346 148 349 148 400 c 2
 148 530 l 2
 148 562 146 571 134 571 c 0
EndSplineSet
LCarets2: 2 208 414
EndChar

StartChar: threequarters
Encoding: 190 190 126
Width: 660
GlyphClass: 2
LigCaretCntFixed: 1
Flags: MW
HStem: -79 29<479 479 635 635> 20 34<400 532 434 532 434 532 584 634> 307 30<121 151.5 121 173> 475 25 475 35 581 20G<562 562> 607 30<137.5 154>
VStem: 184 59<563.5 586> 210 62<387.5 442.5> 532 52<-4 20 -24.5 20 54 194 194 194>
LayerCount: 2
Fore
SplineSet
532 -4 m 2xf4c0
 532 20 l 1
 413 20 l 2
 387 20 392 40 394 48 c 0
 397 55 400 60 404 65 c 0
 437 119 481 171 516 212 c 0
 525 223 536 234 552 243 c 0
 553 244 562 244 565 244 c 0
 572 244 584 243 584 234 c 2
 584 54 l 1
 640 54 l 1
 634 20 l 1
 584 20 l 1
 584 -4 l 2
 584 -45 601 -48 635 -50 c 1
 639 -58 639 -72 635 -79 c 1
 605 -78 587 -78 557 -78 c 0
 522 -78 509 -78 479 -79 c 1
 475 -73 474 -58 479 -50 c 1
 519 -48 532 -45 532 -4 c 2xf4c0
562 601 m 1
 603 593 l 1
 145 -62 l 1
 103 -54 l 1
 562 601 l 1
184 573 m 0xf340
 184 599 162 607 146 607 c 0
 129 607 101 599 94 583 c 0
 89 572 90 554 67 554 c 0
 48 554 44 569 44 572 c 0
 44 589 71 637 158 637 c 0
 210 637 243 615 243 578 c 0xf340
 243 549 221 526 192 510 c 1xecc0
 225 507 272 480 272 422 c 0
 272 353 213 307 133 307 c 0
 107 307 36 318 36 350 c 0
 36 363 49 372 61 372 c 0
 75 372 85 367 91 355 c 0
 97 344 105 337 137 337 c 0
 166 337 210 350 210 414 c 0
 210 471 159 475 135 475 c 0
 128 475 123 474 115 473 c 1xf4c0
 110 480 110 491 113 500 c 1
 157 506 184 532 184 573 c 0xf340
532 194 m 1xf4c0
 493 145 441 72 434 54 c 1
 532 54 l 1
 532 194 l 1xf4c0
EndSplineSet
LCarets2: 2 260 447
EndChar

StartChar: questiondown
Encoding: 191 191 127
Width: 435
GlyphClass: 2
Flags: MW
HStem: -230 33<195.5 240.5> 333 106<223.5 252.5>
VStem: 46 83<-107.5 -51.5 -107.5 -39.5> 185 106<371.5 400.5> 221 33<201 245> 309 80<-99.5 -83.5 -120 -81.5> 321 68<-158 -83.5>
LayerCount: 2
Fore
SplineSet
321 -143 m 0xea
 321 -128 319 -122 315 -117 c 0
 311 -112 309 -106 309 -93 c 0
 309 -70 329 -58 348 -58 c 0
 364 -58 389 -66 389 -101 c 0
 389 -139 368 -167 338 -191 c 0xec
 309 -216 267 -230 214 -230 c 0
 112 -230 46 -170 46 -79 c 0
 46 0 108 44 155 78 c 0
 178 95 198 111 207 128 c 0
 220 153 221 177 221 201 c 2
 221 245 l 2
 221 252 230 255 238 255 c 0
 246 255 254 252 254 245 c 2
 254 199 l 2
 254 156 249 97 184 38 c 0
 144 1 129 -28 129 -75 c 0
 129 -140 167 -197 224 -197 c 0
 281 -197 321 -173 321 -143 c 0xea
185 386 m 0xf4
 185 415 209 439 238 439 c 0
 267 439 291 415 291 386 c 0
 291 357 267 333 238 333 c 0
 209 333 185 357 185 386 c 0xf4
EndSplineSet
MultipleSubs2: "'c2sc' Capitals to Small Capitals lookup 12 subtable" questiondown.sc
Substitution2: "'case' Case-Sensitive Forms lookup 8 subtable" questiondown.sc
EndChar

StartChar: Agrave
Encoding: 192 192 128
Width: 695
GlyphClass: 2
Flags: MW
HStem: -2 33<7 7 224 224 440 440 685 685> 241 42<233 440 263 440 263 456> 638 20G
VStem: 3 149
LayerCount: 2
Fore
SplineSet
155 79 m 2
 139 38 186 34 224 31 c 1
 230 25 230 4 224 -2 c 1
 187 -1 137 0 96 0 c 0
 66 0 33 -1 7 -2 c 1
 1 4 1 25 7 31 c 1
 51 34 81 40 107 102 c 2
 334 638 l 1
 347 638 374 649 389 658 c 1
 595 86 l 2
 612 38 646 35 685 31 c 1
 691 25 691 4 685 -2 c 1
 650 -1 612 0 571 0 c 0
 532 0 477 -1 440 -2 c 1
 434 4 434 25 440 31 c 1
 488 34 526 38 514 72 c 2
 456 241 l 1
 245 241 l 2
 221 241 215 237 210 224 c 2
 155 79 l 2
263 283 m 2
 440 283 l 1
 346 555 l 1
 340 555 l 1
 238 296 l 2
 234 286 241 283 263 283 c 2
284 818 m 1
 405 734 l 2
 416 726 420 720 420 713 c 0
 420 705 413 698 405 698 c 0
 397 698 383 701 362 710 c 2
 208 773 l 1
 226 791 250 806 284 818 c 1
EndSplineSet
MultipleSubs2: "'c2sc' Capitals to Small Capitals lookup 12 subtable" agrave.sc
Position2: "'cpsp' Capital Spacing lookup 3 subtable" dx=2 dy=0 dh=5 dv=0
EndChar

StartChar: Aacute
Encoding: 193 193 129
Width: 695
GlyphClass: 2
Flags: MW
HStem: -2 33<7 7 224 224 440 440 685 685> 241 42<233 440 263 440 263 456> 638 20G
VStem: 3 149
LayerCount: 2
Fore
SplineSet
155 79 m 2
 139 38 186 34 224 31 c 1
 230 25 230 4 224 -2 c 1
 187 -1 137 0 96 0 c 0
 66 0 33 -1 7 -2 c 1
 1 4 1 25 7 31 c 1
 51 34 81 40 107 102 c 2
 334 638 l 1
 347 638 374 649 389 658 c 1
 595 86 l 2
 612 38 646 35 685 31 c 1
 691 25 691 4 685 -2 c 1
 650 -1 612 0 571 0 c 0
 532 0 477 -1 440 -2 c 1
 434 4 434 25 440 31 c 1
 488 34 526 38 514 72 c 2
 456 241 l 1
 245 241 l 2
 221 241 215 237 210 224 c 2
 155 79 l 2
263 283 m 2
 440 283 l 1
 346 555 l 1
 340 555 l 1
 238 296 l 2
 234 286 241 283 263 283 c 2
417 820 m 1
 446 807 466 789 479 768 c 1
 335 710 l 2
 314 701 302 698 293 698 c 0
 284 698 278 705 278 713 c 0
 278 720 280 725 293 734 c 2
 417 820 l 1
EndSplineSet
MultipleSubs2: "'c2sc' Capitals to Small Capitals lookup 12 subtable" aacute.sc
Position2: "'cpsp' Capital Spacing lookup 3 subtable" dx=2 dy=0 dh=5 dv=0
EndChar

StartChar: Acircumflex
Encoding: 194 194 130
Width: 695
GlyphClass: 2
Flags: MW
HStem: -2 33<7 7 224 224 440 440 685 685> 241 42<233 440 263 440 263 456> 638 20G
VStem: 3 149
AnchorPoint: "Anchor-0" 362 894 basechar 0
LayerCount: 2
Fore
SplineSet
155 79 m 2
 139 38 186 34 224 31 c 1
 230 25 230 4 224 -2 c 1
 187 -1 137 0 96 0 c 0
 66 0 33 -1 7 -2 c 1
 1 4 1 25 7 31 c 1
 51 34 81 40 107 102 c 2
 334 638 l 1
 347 638 374 649 389 658 c 1
 595 86 l 2
 612 38 646 35 685 31 c 1
 691 25 691 4 685 -2 c 1
 650 -1 612 0 571 0 c 0
 532 0 477 -1 440 -2 c 1
 434 4 434 25 440 31 c 1
 488 34 526 38 514 72 c 2
 456 241 l 1
 245 241 l 2
 221 241 215 237 210 224 c 2
 155 79 l 2
263 283 m 2
 440 283 l 1
 346 555 l 1
 340 555 l 1
 238 296 l 2
 234 286 241 283 263 283 c 2
377 808 m 1
 407 772 444 738 480 711 c 1
 477 702 473 694 464 690 c 1
 425 708 391 726 358 751 c 1
 321 724 289 707 251 690 c 1
 242 696 239 702 237 711 c 1
 274 739 307 774 338 808 c 1
 352 816 362 816 377 808 c 1
EndSplineSet
MultipleSubs2: "'c2sc' Capitals to Small Capitals lookup 12 subtable" acircumflex.sc
Position2: "'cpsp' Capital Spacing lookup 3 subtable" dx=2 dy=0 dh=5 dv=0
EndChar

StartChar: Atilde
Encoding: 195 195 131
Width: 695
GlyphClass: 2
Flags: MW
HStem: -2 33<7 7 224 224 440 440 685 685> 241 42<233 440 263 440 263 456> 638 20G 694 53<412.5 432> 745 55<278 299.5>
VStem: 3 149 3 687
AnchorPoint: "Anchor-0" 364 894 basechar 0
LayerCount: 2
Fore
SplineSet
155 79 m 2xf4
 139 38 186 34 224 31 c 1
 230 25 230 4 224 -2 c 1
 187 -1 137 0 96 0 c 0
 66 0 33 -1 7 -2 c 1
 1 4 1 25 7 31 c 1
 51 34 81 40 107 102 c 2
 334 638 l 1
 347 638 374 649 389 658 c 1
 595 86 l 2
 612 38 646 35 685 31 c 1
 691 25 691 4 685 -2 c 1
 650 -1 612 0 571 0 c 0
 532 0 477 -1 440 -2 c 1
 434 4 434 25 440 31 c 1
 488 34 526 38 514 72 c 2
 456 241 l 1
 245 241 l 2
 221 241 215 237 210 224 c 2
 155 79 l 2xf4
263 283 m 2
 440 283 l 1
 346 555 l 1
 340 555 l 1
 238 296 l 2
 234 286 241 283 263 283 c 2
422 747 m 0
 444 747 455 757 469 799 c 1
 480 800 490 797 496 793 c 1
 484 733 455 694 409 694 c 0xf2
 387 694 366 712 345 726 c 0
 327 737 308 745 291 745 c 0
 265 745 255 730 245 697 c 1
 234 695 224 696 218 702 c 1
 232 761 255 800 298 800 c 0xea
 328 800 350 780 370 766 c 0
 386 754 403 747 422 747 c 0
EndSplineSet
MultipleSubs2: "'c2sc' Capitals to Small Capitals lookup 12 subtable" atilde.sc
Position2: "'cpsp' Capital Spacing lookup 3 subtable" dx=2 dy=0 dh=5 dv=0
EndChar

StartChar: Adieresis
Encoding: 196 196 132
Width: 695
GlyphClass: 2
Flags: MW
HStem: -2 33<7 7 224 224 440 440 685 685> 241 42<233 440 263 440 263 456> 638 20G 709 96<248 274 437 463>
VStem: 3 149 213 96<744 770> 402 96<744 770>
LayerCount: 2
Fore
SplineSet
155 79 m 2
 139 38 186 34 224 31 c 1
 230 25 230 4 224 -2 c 1
 187 -1 137 0 96 0 c 0
 66 0 33 -1 7 -2 c 1
 1 4 1 25 7 31 c 1
 51 34 81 40 107 102 c 2
 334 638 l 1
 347 638 374 649 389 658 c 1
 595 86 l 2
 612 38 646 35 685 31 c 1
 691 25 691 4 685 -2 c 1
 650 -1 612 0 571 0 c 0
 532 0 477 -1 440 -2 c 1
 434 4 434 25 440 31 c 1
 488 34 526 38 514 72 c 2
 456 241 l 1
 245 241 l 2
 221 241 215 237 210 224 c 2
 155 79 l 2
263 283 m 2
 440 283 l 1
 346 555 l 1
 340 555 l 1
 238 296 l 2
 234 286 241 283 263 283 c 2
213 757 m 0
 213 783 235 805 261 805 c 0
 287 805 309 783 309 757 c 0
 309 731 287 709 261 709 c 0
 235 709 213 731 213 757 c 0
402 757 m 0
 402 783 424 805 450 805 c 0
 476 805 498 783 498 757 c 0
 498 731 476 709 450 709 c 0
 424 709 402 731 402 757 c 0
EndSplineSet
Substitution2: "'ss01' Style Set 1 lookup 40 subtable" Adieresis.alt
MultipleSubs2: "'c2sc' Capitals to Small Capitals lookup 12 subtable" adieresis.sc
Position2: "'cpsp' Capital Spacing lookup 3 subtable" dx=2 dy=0 dh=5 dv=0
EndChar

StartChar: Aring
Encoding: 197 197 133
Width: 695
GlyphClass: 2
Flags: MW
HStem: -2 33<7 7 224 224 440 440 685 685> 241 42<233 440 263 440 263 456> 767 32<343.5 374>
VStem: 3 149 271 40<700 729 700 737> 407 40<700 729.5>
AnchorPoint: "Anchor-0" 364 894 basechar 0
LayerCount: 2
Fore
SplineSet
155 79 m 2
 139 38 186 34 224 31 c 1
 230 25 230 4 224 -2 c 1
 187 -1 137 0 96 0 c 0
 66 0 33 -1 7 -2 c 1
 1 4 1 25 7 31 c 1
 51 34 81 40 107 102 c 2
 332 634 l 1
 298 645 271 677 271 714 c 0
 271 760 313 799 359 799 c 0
 405 799 447 761 447 714 c 0
 447 682 426 652 396 638 c 1
 595 86 l 2
 612 38 646 35 685 31 c 1
 691 25 691 4 685 -2 c 1
 650 -1 612 0 571 0 c 0
 532 0 477 -1 440 -2 c 1
 434 4 434 25 440 31 c 1
 488 34 526 38 514 72 c 2
 456 241 l 1
 245 241 l 2
 221 241 215 237 210 224 c 2
 155 79 l 2
263 283 m 2
 440 283 l 1
 346 555 l 1
 340 555 l 1
 238 296 l 2
 234 286 241 283 263 283 c 2
359 767 m 0
 328 767 311 744 311 714 c 0
 311 686 328 661 359 661 c 0
 390 661 407 686 407 714 c 0
 407 745 389 767 359 767 c 0
EndSplineSet
MultipleSubs2: "'c2sc' Capitals to Small Capitals lookup 12 subtable" aring.sc
Position2: "'cpsp' Capital Spacing lookup 3 subtable" dx=2 dy=0 dh=5 dv=0
EndChar

StartChar: AE
Encoding: 198 198 134
Width: 865
GlyphClass: 2
Flags: MW
HStem: -2 33<7 7 224 224 342 342> 0 39<549 685 685 686> 266 39<271 429 271 429 251 429> 323 38<513 604 513 604> 409 20G<695 728> 413 20G 605 40<537 549 549 654> 629 20G<774 775.5>
VStem: 3 147 429 84<122 266 266 266 305 323 361 561> 472 41
AnchorPoint: "Anchor-5" 549 4 basechar 0
AnchorPoint: "Anchor-2" 549 -107 basechar 0
AnchorPoint: "Anchor-0" 480 850 basechar 0
LayerCount: 2
Fore
SplineSet
429 122 m 2x6640
 429 266 l 1
 251 266 l 1
 154 79 l 2
 134 40 186 34 224 31 c 1
 230 25 230 4 224 -2 c 1
 187 -1 137 0 96 0 c 0
 57 0 44 -1 7 -2 c 1
 1 4 1 25 7 31 c 1
 51 34 79 43 111 102 c 2
 354 557 l 2
 370 588 364 611 294 614 c 1
 288 620 288 641 294 647 c 1
 344 646 409 645 409 645 c 1
 725 645 l 2xa6c0
 749 645 757 646 774 649 c 0
 777 649 778 648 778 646 c 0x6540
 780 638 795 542 800 501 c 1
 790 496 779 494 767 496 c 1
 745 565 729 605 654 605 c 2
 549 605 l 2
 525 605 513 585 513 561 c 2
 513 361 l 1
 604 361 l 2
 689 361 692 374 695 429 c 1x7640
 701 435 722 435 728 429 c 1
 727 399 726 377 726 343 c 0
 726 309 727 290 728 255 c 1
 722 249 701 249 695 255 c 1
 692 300 689 323 604 323 c 2
 513 323 l 1
 513 82 l 2
 513 55 527 39 549 39 c 2x7a40
 685 39 l 2
 761 39 796 98 816 170 c 1
 829 173 841 171 851 165 c 1
 843 114 828 48 814 -2 c 1
 814 -2 734 0 686 0 c 2
 472 0 l 1x6620
 472 0 391 -1 342 -2 c 1
 336 4 336 25 342 31 c 1
 412 34 429 39 429 122 c 2x6640
271 305 m 1
 429 305 l 1
 429 575 l 2
 429 587 428 596 424 598 c 1
 271 305 l 1
EndSplineSet
MultipleSubs2: "'c2sc' Capitals to Small Capitals lookup 12 subtable" ae.sc
Position2: "'cpsp' Capital Spacing lookup 3 subtable" dx=2 dy=0 dh=5 dv=0
EndChar

StartChar: Ccedilla
Encoding: 199 199 135
Width: 646
GlyphClass: 2
Flags: MW
HStem: -200 29<339 364 339 385.5> -96 32<357.5 411> -10 41<352 352> 621 37<321 416>
VStem: 37 91<256 362> 400 62<-144 -120.5>
AnchorPoint: "Anchor-0" 371 850 basechar 0
LayerCount: 2
Fore
SplineSet
367 -96 m 0
 348 -96 338 -97 322 -102 c 1
 316 -96 l 1
 352 -10 l 1
 140 -8 37 138 37 310 c 0
 37 414 77 512 143 573 c 0
 202 627 273 658 358 658 c 0
 481 658 526 618 577 613 c 1
 587 558 594 510 599 458 c 1
 588 452 578 449 566 453 c 1
 540 539 485 621 347 621 c 0
 295 621 237 593 187 532 c 0
 151 487 128 415 128 329 c 0
 128 183 221 31 356 31 c 0
 449 31 517 62 588 140 c 1
 599 140 606 134 611 125 c 1
 550 45 472 0 387 -8 c 1
 365 -67 l 1
 373 -65 382 -64 391 -64 c 0
 431 -64 462 -88 462 -126 c 0
 462 -169 416 -200 355 -200 c 0
 323 -200 306 -194 281 -183 c 1
 281 -171 284 -164 291 -157 c 1
 318 -167 329 -171 349 -171 c 0
 379 -171 400 -157 400 -131 c 0
 400 -110 390 -96 367 -96 c 0
EndSplineSet
MultipleSubs2: "'c2sc' Capitals to Small Capitals lookup 12 subtable" ccedilla.sc
Position2: "'cpsp' Capital Spacing lookup 3 subtable" dx=2 dy=0 dh=5 dv=0
EndChar

StartChar: Egrave
Encoding: 200 200 136
Width: 557
GlyphClass: 2
Flags: MW
HStem: 0 39<246 362 362 363> 323 38<190 281 190 281> 409 20G<372 405> 413 20G 605 40<229 256 256 331> 629 20G<451 452.5>
VStem: 105 85<122 323 361 523 523 541>
AnchorPoint: "Anchor-5" 279 4 basechar 0
AnchorPoint: "Anchor-2" 279 -107 basechar 0
LayerCount: 2
Fore
SplineSet
281 361 m 2xda
 366 361 369 374 372 429 c 1xda
 378 435 399 435 405 429 c 1
 404 405 403 371 403 343 c 0
 403 309 404 281 405 255 c 1
 399 249 378 249 372 255 c 1
 369 300 366 323 281 323 c 2
 190 323 l 1
 190 102 l 2
 190 55 204 39 246 39 c 2
 362 39 l 2
 438 39 473 98 493 170 c 1
 506 173 518 171 528 165 c 1
 520 114 505 48 491 -2 c 1
 491 -2 411 0 363 0 c 2
 148 0 l 2
 115 0 55 -1 18 -2 c 1
 12 4 12 25 18 31 c 1
 88 34 105 39 105 122 c 2
 105 523 l 2
 105 606 88 611 18 614 c 1
 12 620 12 641 18 647 c 1
 58 646 117 645 147 645 c 2
 402 645 l 2xea
 426 645 434 646 451 649 c 0
 454 649 455 648 455 646 c 0xd6
 457 638 472 542 477 501 c 1
 467 496 456 494 444 496 c 1
 422 565 406 605 331 605 c 2
 256 605 l 2
 202 605 190 585 190 541 c 2
 190 361 l 1
 281 361 l 2xda
245 817 m 1
 366 733 l 2
 377 725 381 719 381 712 c 0
 381 704 374 697 366 697 c 0
 358 697 344 700 323 709 c 2
 169 772 l 1
 187 790 211 805 245 817 c 1
EndSplineSet
MultipleSubs2: "'c2sc' Capitals to Small Capitals lookup 12 subtable" egrave.sc
Position2: "'cpsp' Capital Spacing lookup 3 subtable" dx=2 dy=0 dh=5 dv=0
EndChar

StartChar: Eacute
Encoding: 201 201 137
Width: 557
GlyphClass: 2
Flags: MW
HStem: 0 39<246 362 362 363> 323 38<190 281 190 281> 409 20G<372 405> 413 20G 605 40<229 256 256 331> 629 20G<451 452.5>
VStem: 105 85<122 323 361 523 523 541>
AnchorPoint: "Anchor-5" 279 4 basechar 0
AnchorPoint: "Anchor-2" 279 -107 basechar 0
LayerCount: 2
Fore
SplineSet
281 361 m 2xda
 366 361 369 374 372 429 c 1xda
 378 435 399 435 405 429 c 1
 404 405 403 371 403 343 c 0
 403 309 404 281 405 255 c 1
 399 249 378 249 372 255 c 1
 369 300 366 323 281 323 c 2
 190 323 l 1
 190 102 l 2
 190 55 204 39 246 39 c 2
 362 39 l 2
 438 39 473 98 493 170 c 1
 506 173 518 171 528 165 c 1
 520 114 505 48 491 -2 c 1
 491 -2 411 0 363 0 c 2
 148 0 l 2
 115 0 55 -1 18 -2 c 1
 12 4 12 25 18 31 c 1
 88 34 105 39 105 122 c 2
 105 523 l 2
 105 606 88 611 18 614 c 1
 12 620 12 641 18 647 c 1
 58 646 117 645 147 645 c 2
 402 645 l 2xea
 426 645 434 646 451 649 c 0
 454 649 455 648 455 646 c 0xd6
 457 638 472 542 477 501 c 1
 467 496 456 494 444 496 c 1
 422 565 406 605 331 605 c 2
 256 605 l 2
 202 605 190 585 190 541 c 2
 190 361 l 1
 281 361 l 2xda
350 820 m 1
 379 807 399 789 412 768 c 1
 268 710 l 2
 247 701 235 698 226 698 c 0
 217 698 211 705 211 713 c 0
 211 720 213 725 226 734 c 2
 350 820 l 1
EndSplineSet
MultipleSubs2: "'c2sc' Capitals to Small Capitals lookup 12 subtable" eacute.sc
Position2: "'cpsp' Capital Spacing lookup 3 subtable" dx=2 dy=0 dh=5 dv=0
EndChar

StartChar: Ecircumflex
Encoding: 202 202 138
Width: 557
GlyphClass: 2
Flags: MW
HStem: 0 39<246 362 362 363> 323 38<190 281 190 281> 409 20G<372 405> 413 20G 605 40<229 256 256 331> 629 20G<451 452.5>
VStem: 105 85<122 323 361 523 523 541>
AnchorPoint: "Anchor-5" 279 4 basechar 0
AnchorPoint: "Anchor-2" 279 -107 basechar 0
AnchorPoint: "Anchor-0" 296 894 basechar 0
LayerCount: 2
Fore
SplineSet
281 361 m 2xda
 366 361 369 374 372 429 c 1xda
 378 435 399 435 405 429 c 1
 404 405 403 371 403 343 c 0
 403 309 404 281 405 255 c 1
 399 249 378 249 372 255 c 1
 369 300 366 323 281 323 c 2
 190 323 l 1
 190 102 l 2
 190 55 204 39 246 39 c 2
 362 39 l 2
 438 39 473 98 493 170 c 1
 506 173 518 171 528 165 c 1
 520 114 505 48 491 -2 c 1
 491 -2 411 0 363 0 c 2
 148 0 l 2
 115 0 55 -1 18 -2 c 1
 12 4 12 25 18 31 c 1
 88 34 105 39 105 122 c 2
 105 523 l 2
 105 606 88 611 18 614 c 1
 12 620 12 641 18 647 c 1
 58 646 117 645 147 645 c 2
 402 645 l 2xea
 426 645 434 646 451 649 c 0
 454 649 455 648 455 646 c 0xd6
 457 638 472 542 477 501 c 1
 467 496 456 494 444 496 c 1
 422 565 406 605 331 605 c 2
 256 605 l 2
 202 605 190 585 190 541 c 2
 190 361 l 1
 281 361 l 2xda
315 808 m 1
 345 772 382 738 418 711 c 1
 415 702 411 694 402 690 c 1
 363 708 329 726 296 751 c 1
 259 724 227 707 189 690 c 1
 180 696 177 702 175 711 c 1
 212 739 245 774 276 808 c 1
 290 816 300 816 315 808 c 1
EndSplineSet
MultipleSubs2: "'c2sc' Capitals to Small Capitals lookup 12 subtable" ecircumflex.sc
Position2: "'cpsp' Capital Spacing lookup 3 subtable" dx=2 dy=0 dh=5 dv=0
EndChar

StartChar: Edieresis
Encoding: 203 203 139
Width: 557
GlyphClass: 2
Flags: MW
HStem: 0 39<246 362 362 363> 323 38<190 281 190 281> 409 20G<372 405> 413 20G 605 40<229 256 256 331> 629 20G<451 452.5> 709 96<170 196 359 385>
VStem: 105 85<122 323 361 523 523 541> 135 96<744 770> 324 96<744 770>
AnchorPoint: "Anchor-5" 279 4 basechar 0
AnchorPoint: "Anchor-2" 279 -107 basechar 0
LayerCount: 2
Fore
SplineSet
281 361 m 2xdb
 366 361 369 374 372 429 c 1xdb
 378 435 399 435 405 429 c 1
 404 405 403 371 403 343 c 0
 403 309 404 281 405 255 c 1
 399 249 378 249 372 255 c 1
 369 300 366 323 281 323 c 2
 190 323 l 1
 190 102 l 2
 190 55 204 39 246 39 c 2
 362 39 l 2
 438 39 473 98 493 170 c 1
 506 173 518 171 528 165 c 1
 520 114 505 48 491 -2 c 1
 491 -2 411 0 363 0 c 2
 148 0 l 2
 115 0 55 -1 18 -2 c 1
 12 4 12 25 18 31 c 1
 88 34 105 39 105 122 c 2
 105 523 l 2
 105 606 88 611 18 614 c 1
 12 620 12 641 18 647 c 1
 58 646 117 645 147 645 c 2
 402 645 l 2xeb
 426 645 434 646 451 649 c 0
 454 649 455 648 455 646 c 0xd7
 457 638 472 542 477 501 c 1
 467 496 456 494 444 496 c 1
 422 565 406 605 331 605 c 2
 256 605 l 2
 202 605 190 585 190 541 c 2
 190 361 l 1
 281 361 l 2xdb
135 757 m 0xdac0
 135 783 157 805 183 805 c 0
 209 805 231 783 231 757 c 0
 231 731 209 709 183 709 c 0
 157 709 135 731 135 757 c 0xdac0
324 757 m 0
 324 783 346 805 372 805 c 0
 398 805 420 783 420 757 c 0
 420 731 398 709 372 709 c 0
 346 709 324 731 324 757 c 0
EndSplineSet
MultipleSubs2: "'c2sc' Capitals to Small Capitals lookup 12 subtable" edieresis.sc
Position2: "'cpsp' Capital Spacing lookup 3 subtable" dx=2 dy=0 dh=5 dv=0
EndChar

StartChar: Igrave
Encoding: 204 204 140
Width: 297
GlyphClass: 2
Flags: MW
HStem: -2 21G 627 20G
VStem: 106 85<122 523>
LayerCount: 2
Fore
SplineSet
191 122 m 2
 191 39 208 34 278 31 c 1
 284 25 284 4 278 -2 c 1
 233 -1 185 0 149 0 c 0
 113 0 64 -1 19 -2 c 1
 13 4 13 25 19 31 c 1
 89 34 106 39 106 122 c 2
 106 523 l 2
 106 606 89 611 19 614 c 1
 13 620 13 641 19 647 c 1
 66 646 115 645 148 645 c 0
 187 645 234 646 278 647 c 1
 284 641 284 620 278 614 c 1
 208 611 191 606 191 523 c 2
 191 122 l 2
99 817 m 1
 220 733 l 2
 231 725 235 719 235 712 c 0
 235 704 228 697 220 697 c 0
 212 697 198 700 177 709 c 2
 23 772 l 1
 41 790 65 805 99 817 c 1
EndSplineSet
MultipleSubs2: "'c2sc' Capitals to Small Capitals lookup 12 subtable" igrave.sc
Position2: "'cpsp' Capital Spacing lookup 3 subtable" dx=2 dy=0 dh=5 dv=0
EndChar

StartChar: Iacute
Encoding: 205 205 141
Width: 297
GlyphClass: 2
Flags: MW
HStem: -2 21G 627 20G
VStem: 106 85<122 523>
LayerCount: 2
Fore
SplineSet
191 122 m 2
 191 39 208 34 278 31 c 1
 284 25 284 4 278 -2 c 1
 233 -1 185 0 149 0 c 0
 113 0 64 -1 19 -2 c 1
 13 4 13 25 19 31 c 1
 89 34 106 39 106 122 c 2
 106 523 l 2
 106 606 89 611 19 614 c 1
 13 620 13 641 19 647 c 1
 66 646 115 645 148 645 c 0
 187 645 234 646 278 647 c 1
 284 641 284 620 278 614 c 1
 208 611 191 606 191 523 c 2
 191 122 l 2
210 819 m 1
 239 806 259 788 272 767 c 1
 128 709 l 2
 107 700 95 697 86 697 c 0
 77 697 71 704 71 712 c 0
 71 719 73 724 86 733 c 2
 210 819 l 1
EndSplineSet
MultipleSubs2: "'c2sc' Capitals to Small Capitals lookup 12 subtable" iacute.sc
Position2: "'cpsp' Capital Spacing lookup 3 subtable" dx=2 dy=0 dh=5 dv=0
EndChar

StartChar: Icircumflex
Encoding: 206 206 142
Width: 297
GlyphClass: 2
Flags: MW
HStem: -2 21G 627 20G
VStem: 106 85<122 523>
AnchorPoint: "Anchor-0" 144 894 basechar 0
LayerCount: 2
Fore
SplineSet
191 122 m 2
 191 39 208 34 278 31 c 1
 284 25 284 4 278 -2 c 1
 233 -1 185 0 149 0 c 0
 113 0 64 -1 19 -2 c 1
 13 4 13 25 19 31 c 1
 89 34 106 39 106 122 c 2
 106 523 l 2
 106 606 89 611 19 614 c 1
 13 620 13 641 19 647 c 1
 66 646 115 645 148 645 c 0
 187 645 234 646 278 647 c 1
 284 641 284 620 278 614 c 1
 208 611 191 606 191 523 c 2
 191 122 l 2
165 808 m 1
 195 772 232 738 268 711 c 1
 265 702 261 694 252 690 c 1
 213 708 179 726 146 751 c 1
 109 724 77 707 39 690 c 1
 30 696 27 702 25 711 c 1
 62 739 95 774 126 808 c 1
 140 816 150 816 165 808 c 1
EndSplineSet
MultipleSubs2: "'c2sc' Capitals to Small Capitals lookup 12 subtable" icircumflex.sc
Position2: "'cpsp' Capital Spacing lookup 3 subtable" dx=2 dy=0 dh=5 dv=0
EndChar

StartChar: Idieresis
Encoding: 207 207 143
Width: 297
GlyphClass: 2
Flags: MW
HStem: -2 21G 627 20G 709 96<41 67 230 256>
VStem: 6 96<744 770> 106 85<122 523> 195 96<744 770>
AnchorPoint: "Anchor-0" 148 894 basechar 0
LayerCount: 2
Fore
SplineSet
191 122 m 2
 191 39 208 34 278 31 c 1
 284 25 284 4 278 -2 c 1
 233 -1 185 0 149 0 c 0
 113 0 64 -1 19 -2 c 1
 13 4 13 25 19 31 c 1
 89 34 106 39 106 122 c 2
 106 523 l 2
 106 606 89 611 19 614 c 1
 13 620 13 641 19 647 c 1
 66 646 115 645 148 645 c 0
 187 645 234 646 278 647 c 1
 284 641 284 620 278 614 c 1
 208 611 191 606 191 523 c 2
 191 122 l 2
6 757 m 0
 6 783 28 805 54 805 c 0
 80 805 102 783 102 757 c 0
 102 731 80 709 54 709 c 0
 28 709 6 731 6 757 c 0
195 757 m 0
 195 783 217 805 243 805 c 0
 269 805 291 783 291 757 c 0
 291 731 269 709 243 709 c 0
 217 709 195 731 195 757 c 0
EndSplineSet
MultipleSubs2: "'c2sc' Capitals to Small Capitals lookup 12 subtable" idieresis.sc
Position2: "'cpsp' Capital Spacing lookup 3 subtable" dx=2 dy=0 dh=5 dv=0
EndChar

StartChar: Eth
Encoding: 208 208 144
Width: 701
GlyphClass: 2
Flags: MW
HStem: -2 34<279.5 370.5 251 401.5> 287 39<15 106 27 106 27 106 191 279> 613 34<277.5 383>
VStem: 106 85<122 287 326 523 523 564> 562 96<185 361>
AnchorPoint: "Anchor-0" 341 850 basechar 0
LayerCount: 2
Fore
SplineSet
19 647 m 1
 59 646 112 645 148 645 c 0
 187 645 242 647 313 647 c 0
 505 647 658 494 658 308 c 0
 658 62 472 -2 331 -2 c 0
 228 -2 186 0 149 0 c 0
 111 0 58 -1 19 -2 c 1
 13 4 13 25 19 31 c 1
 89 34 106 39 106 122 c 2
 106 287 l 1
 19 287 l 2
 11 287 8 295 8 301 c 0
 8 311 18 326 27 326 c 2
 106 326 l 1
 106 523 l 2
 106 606 89 611 19 614 c 1
 13 620 13 641 19 647 c 1
191 84 m 2
 191 52 202 32 300 32 c 0
 441 32 562 82 562 284 c 0
 562 438 491 613 275 613 c 0
 226 613 191 599 191 564 c 2
 191 326 l 1
 288 326 l 2
 297 326 300 318 300 313 c 0
 300 302 291 287 279 287 c 2
 191 287 l 1
 191 84 l 2
EndSplineSet
MultipleSubs2: "'c2sc' Capitals to Small Capitals lookup 12 subtable" eth.sc
Position2: "'cpsp' Capital Spacing lookup 3 subtable" dx=2 dy=0 dh=5 dv=0
EndChar

StartChar: Ntilde
Encoding: 209 209 145
Width: 699
GlyphClass: 2
Flags: MW
HStem: -10 21G<574 589> -2 21G 614 33<23 23 469 469 692 692> 692 53<407.5 427> 743 55<273 294.5>
VStem: 102 49<133 439> 556 49<185 512>
AnchorPoint: "Anchor-0" 344 894 basechar 0
LayerCount: 2
Fore
SplineSet
556 512 m 2x6e
 556 603 539 607 469 614 c 1
 463 620 463 641 469 647 c 1
 513 646 559 645 580 645 c 0
 604 645 651 646 692 647 c 1
 698 641 698 620 692 614 c 1
 622 607 605 601 605 512 c 2
 605 21 l 2
 605 2 596 -10 582 -10 c 0
 566 -10 553 -1 542 14 c 2xae
 193 455 l 2
 176 477 165 488 159 488 c 0
 151 488 151 473 151 439 c 2
 151 133 l 2
 151 42 168 38 238 31 c 1
 244 25 244 4 238 -2 c 1
 196 -1 150 0 127 0 c 0
 103 0 58 -1 15 -2 c 1
 9 4 9 25 15 31 c 1
 85 38 102 44 102 133 c 2
 102 550 l 1
 96 576 66 611 23 614 c 1
 17 620 17 641 23 647 c 1
 158 645 l 1
 501 210 l 2
 530 173 545 155 549 155 c 0
 556 155 556 166 556 185 c 2
 556 512 l 2x6e
417 745 m 0x76
 439 745 450 755 464 797 c 1
 475 798 485 795 491 791 c 1
 479 731 450 692 404 692 c 0x76
 382 692 361 710 340 724 c 0
 322 735 303 743 286 743 c 0
 260 743 250 728 240 695 c 1
 229 693 219 694 213 700 c 1
 227 759 250 798 293 798 c 0x6e
 323 798 345 778 365 764 c 0
 381 752 398 745 417 745 c 0x76
EndSplineSet
MultipleSubs2: "'c2sc' Capitals to Small Capitals lookup 12 subtable" ntilde.sc
Position2: "'cpsp' Capital Spacing lookup 3 subtable" dx=2 dy=0 dh=5 dv=0
EndChar

StartChar: Ograve
Encoding: 210 210 146
Width: 702
GlyphClass: 2
Flags: MW
HStem: -10 36<309 405.5> 622 36<281.5 397>
VStem: 37 96<231 407> 570 96<287 411>
AnchorPoint: "Anchor-5" 350 0 basechar 0
AnchorPoint: "Anchor-2" 350 -110 basechar 0
AnchorPoint: "Anchor-1" 620 606 basechar 0
AnchorPoint: "Anchor-0" 344 894 basechar 0
LayerCount: 2
Fore
SplineSet
666 329 m 0
 666 245 644 173 604 116 c 0
 549 38 461 -10 350 -10 c 0
 180 -10 37 113 37 310 c 0
 37 504 150 658 344 658 c 0
 523 658 666 536 666 329 c 0
331 622 m 0
 232 622 133 537 133 327 c 0
 133 135 248 26 370 26 c 0
 484 26 570 131 570 310 c 0
 570 512 463 622 331 622 c 0
304 819 m 1
 425 735 l 2
 436 727 440 721 440 714 c 0
 440 706 433 699 425 699 c 0
 417 699 403 702 382 711 c 2
 228 774 l 1
 246 792 270 807 304 819 c 1
EndSplineSet
MultipleSubs2: "'c2sc' Capitals to Small Capitals lookup 12 subtable" ograve.sc
Position2: "'cpsp' Capital Spacing lookup 3 subtable" dx=2 dy=0 dh=5 dv=0
EndChar

StartChar: Oacute
Encoding: 211 211 147
Width: 702
GlyphClass: 2
Flags: MW
HStem: -10 36<309 405.5> 622 36<281.5 397>
VStem: 37 96<231 407> 570 96<287 411>
AnchorPoint: "Anchor-5" 350 0 basechar 0
AnchorPoint: "Anchor-2" 350 -110 basechar 0
AnchorPoint: "Anchor-1" 620 606 basechar 0
AnchorPoint: "Anchor-0" 344 894 basechar 0
LayerCount: 2
Fore
SplineSet
666 329 m 0
 666 245 644 173 604 116 c 0
 549 38 461 -10 350 -10 c 0
 180 -10 37 113 37 310 c 0
 37 504 150 658 344 658 c 0
 523 658 666 536 666 329 c 0
331 622 m 0
 232 622 133 537 133 327 c 0
 133 135 248 26 370 26 c 0
 484 26 570 131 570 310 c 0
 570 512 463 622 331 622 c 0
387 820 m 1
 416 807 436 789 449 768 c 1
 305 710 l 2
 284 701 272 698 263 698 c 0
 254 698 248 705 248 713 c 0
 248 720 250 725 263 734 c 2
 387 820 l 1
EndSplineSet
MultipleSubs2: "'c2sc' Capitals to Small Capitals lookup 12 subtable" oacute.sc
Position2: "'cpsp' Capital Spacing lookup 3 subtable" dx=2 dy=0 dh=5 dv=0
EndChar

StartChar: Ocircumflex
Encoding: 212 212 148
Width: 702
GlyphClass: 2
Flags: MW
HStem: -10 36<309 405.5> 622 36<281.5 397>
VStem: 37 96<231 407> 570 96<287 411>
AnchorPoint: "Anchor-5" 350 0 basechar 0
AnchorPoint: "Anchor-2" 350 -110 basechar 0
AnchorPoint: "Anchor-1" 620 606 basechar 0
AnchorPoint: "Anchor-0" 344 894 basechar 0
LayerCount: 2
Fore
SplineSet
666 329 m 0
 666 245 644 173 604 116 c 0
 549 38 461 -10 350 -10 c 0
 180 -10 37 113 37 310 c 0
 37 504 150 658 344 658 c 0
 523 658 666 536 666 329 c 0
331 622 m 0
 232 622 133 537 133 327 c 0
 133 135 248 26 370 26 c 0
 484 26 570 131 570 310 c 0
 570 512 463 622 331 622 c 0
366 808 m 1
 396 772 433 738 469 711 c 1
 466 702 462 694 453 690 c 1
 414 708 380 726 347 751 c 1
 310 724 278 707 240 690 c 1
 231 696 228 702 226 711 c 1
 263 739 296 774 327 808 c 1
 341 816 351 816 366 808 c 1
EndSplineSet
MultipleSubs2: "'c2sc' Capitals to Small Capitals lookup 12 subtable" ocircumflex.sc
Position2: "'cpsp' Capital Spacing lookup 3 subtable" dx=2 dy=0 dh=5 dv=0
EndChar

StartChar: Otilde
Encoding: 213 213 149
Width: 702
GlyphClass: 2
Flags: MW
HStem: -10 36<309 405.5> 622 36<281.5 397> 692 53<400.5 420> 743 55<266 287.5>
VStem: 37 96<231 407> 570 96<287 411>
AnchorPoint: "Anchor-5" 350 0 basechar 0
AnchorPoint: "Anchor-2" 350 -110 basechar 0
AnchorPoint: "Anchor-1" 620 606 basechar 0
AnchorPoint: "Anchor-0" 344 894 basechar 0
LayerCount: 2
Fore
SplineSet
666 329 m 0xec
 666 245 644 173 604 116 c 0
 549 38 461 -10 350 -10 c 0
 180 -10 37 113 37 310 c 0
 37 504 150 658 344 658 c 0
 523 658 666 536 666 329 c 0xec
331 622 m 0
 232 622 133 537 133 327 c 0
 133 135 248 26 370 26 c 0
 484 26 570 131 570 310 c 0
 570 512 463 622 331 622 c 0
410 745 m 0
 432 745 443 755 457 797 c 1
 468 798 478 795 484 791 c 1
 472 731 443 692 397 692 c 0xec
 375 692 354 710 333 724 c 0
 315 735 296 743 279 743 c 0
 253 743 243 728 233 695 c 1
 222 693 212 694 206 700 c 1
 220 759 243 798 286 798 c 0xdc
 316 798 338 778 358 764 c 0
 374 752 391 745 410 745 c 0
EndSplineSet
MultipleSubs2: "'c2sc' Capitals to Small Capitals lookup 12 subtable" otilde.sc
Position2: "'cpsp' Capital Spacing lookup 3 subtable" dx=2 dy=0 dh=5 dv=0
EndChar

StartChar: Odieresis
Encoding: 214 214 150
Width: 702
GlyphClass: 2
Flags: MW
HStem: -10 36<309 405.5> 622 36<281.5 397> 710 96<239 265 428 454>
VStem: 37 96<231 407> 204 96<745 771> 393 96<745 771> 570 96<287 411>
AnchorPoint: "Anchor-5" 350 0 basechar 0
AnchorPoint: "Anchor-2" 350 -110 basechar 0
LayerCount: 2
Fore
SplineSet
666 329 m 0
 666 245 644 173 604 116 c 0
 549 38 461 -10 350 -10 c 0
 180 -10 37 113 37 310 c 0
 37 504 150 658 344 658 c 0
 523 658 666 536 666 329 c 0
331 622 m 0
 232 622 133 537 133 327 c 0
 133 135 248 26 370 26 c 0
 484 26 570 131 570 310 c 0
 570 512 463 622 331 622 c 0
204 758 m 0
 204 784 226 806 252 806 c 0
 278 806 300 784 300 758 c 0
 300 732 278 710 252 710 c 0
 226 710 204 732 204 758 c 0
393 758 m 0
 393 784 415 806 441 806 c 0
 467 806 489 784 489 758 c 0
 489 732 467 710 441 710 c 0
 415 710 393 732 393 758 c 0
EndSplineSet
Substitution2: "'ss01' Style Set 1 lookup 40 subtable" Odieresis.alt
MultipleSubs2: "'c2sc' Capitals to Small Capitals lookup 12 subtable" odieresis.sc
Position2: "'cpsp' Capital Spacing lookup 3 subtable" dx=2 dy=0 dh=5 dv=0
EndChar

StartChar: multiply
Encoding: 215 215 151
Width: 550
GlyphClass: 2
Flags: MW
HStem: 95 315<152 152 152 396>
VStem: 116 315<130 130 130 375>
LayerCount: 2
Fore
SplineSet
308 252 m 1
 431 130 l 1
 396 95 l 1
 274 217 l 1
 152 95 l 1
 116 130 l 1
 239 252 l 1
 116 375 l 1
 152 410 l 1
 274 287 l 1
 396 410 l 1
 431 375 l 1
 308 252 l 1
EndSplineSet
EndChar

StartChar: Oslash
Encoding: 216 216 152
Width: 702
GlyphClass: 2
Flags: MW
HStem: -10 36<339 405.5> 622 36<281.5 363.5>
VStem: 37 96<291 407> 570 96<287 349.5>
AnchorPoint: "Anchor-5" 350 0 basechar 0
AnchorPoint: "Anchor-2" 350 -110 basechar 0
AnchorPoint: "Anchor-0" 351 850 basechar 0
LayerCount: 2
Fore
SplineSet
108 -13 m 1
 89 -13 75 4 72 19 c 1
 124 82 l 1
 70 138 37 215 37 310 c 0
 37 504 150 658 344 658 c 0
 419 658 487 637 542 597 c 1
 591 658 l 1
 610 658 625 643 627 628 c 1
 577 566 l 1
 632 510 666 430 666 329 c 0
 666 245 644 173 604 116 c 0
 549 38 461 -10 350 -10 c 0
 279 -10 213 12 160 51 c 1
 108 -13 l 1
526 503 m 1
 204 106 l 1
 249 54 308 26 370 26 c 0
 484 26 570 131 570 310 c 0
 570 389 554 454 526 503 c 1
331 622 m 0
 232 622 133 537 133 327 c 0
 133 255 149 194 176 147 c 1
 498 544 l 1
 455 595 396 622 331 622 c 0
EndSplineSet
MultipleSubs2: "'c2sc' Capitals to Small Capitals lookup 12 subtable" oslash.sc
Position2: "'cpsp' Capital Spacing lookup 3 subtable" dx=2 dy=0 dh=5 dv=0
EndChar

StartChar: Ugrave
Encoding: 217 217 153
Width: 661
GlyphClass: 2
Flags: MW
HStem: -10 41<318 423.5> 614 33<10 10 264 264 434 434 652 652>
VStem: 87 85<233.5 266 266 523> 526 49<277 295 295 523>
AnchorPoint: "Anchor-0" 344 894 basechar 0
LayerCount: 2
Fore
SplineSet
172 523 m 2
 172 266 l 2
 172 201 174 125 223 78 c 0
 253 49 294 31 342 31 c 0
 511 31 526 165 526 277 c 2
 526 523 l 2
 526 604 509 607 434 614 c 1
 428 620 428 641 434 647 c 1
 480 646 529 645 550 645 c 0
 573 645 614 646 652 647 c 1
 658 641 658 620 652 614 c 1
 592 607 575 603 575 523 c 2
 575 295 l 2
 575 117 526 -10 321 -10 c 0
 219 -10 87 29 87 233 c 2
 87 523 l 2
 87 606 70 611 10 614 c 1
 4 620 4 641 10 647 c 1
 49 646 90 645 129 645 c 0
 168 645 217 646 264 647 c 1
 270 641 270 620 264 614 c 1
 187 611 172 606 172 523 c 2
276 818 m 1
 397 734 l 2
 408 726 412 720 412 713 c 0
 412 705 405 698 397 698 c 0
 389 698 375 701 354 710 c 2
 200 773 l 1
 218 791 242 806 276 818 c 1
EndSplineSet
MultipleSubs2: "'c2sc' Capitals to Small Capitals lookup 12 subtable" ugrave.sc
Position2: "'cpsp' Capital Spacing lookup 3 subtable" dx=2 dy=0 dh=5 dv=0
EndChar

StartChar: Uacute
Encoding: 218 218 154
Width: 661
GlyphClass: 2
Flags: MW
HStem: -10 41<318 423.5> 614 33<10 10 264 264 434 434 652 652>
VStem: 87 85<233.5 266 266 523> 526 49<277 295 295 523>
AnchorPoint: "Anchor-0" 344 894 basechar 0
LayerCount: 2
Fore
SplineSet
172 523 m 2
 172 266 l 2
 172 201 174 125 223 78 c 0
 253 49 294 31 342 31 c 0
 511 31 526 165 526 277 c 2
 526 523 l 2
 526 604 509 607 434 614 c 1
 428 620 428 641 434 647 c 1
 480 646 529 645 550 645 c 0
 573 645 614 646 652 647 c 1
 658 641 658 620 652 614 c 1
 592 607 575 603 575 523 c 2
 575 295 l 2
 575 117 526 -10 321 -10 c 0
 219 -10 87 29 87 233 c 2
 87 523 l 2
 87 606 70 611 10 614 c 1
 4 620 4 641 10 647 c 1
 49 646 90 645 129 645 c 0
 168 645 217 646 264 647 c 1
 270 641 270 620 264 614 c 1
 187 611 172 606 172 523 c 2
405 819 m 1
 434 806 454 788 467 767 c 1
 323 709 l 2
 302 700 290 697 281 697 c 0
 272 697 266 704 266 712 c 0
 266 719 268 724 281 733 c 2
 405 819 l 1
EndSplineSet
MultipleSubs2: "'c2sc' Capitals to Small Capitals lookup 12 subtable" uacute.sc
Position2: "'cpsp' Capital Spacing lookup 3 subtable" dx=2 dy=0 dh=5 dv=0
EndChar

StartChar: Ucircumflex
Encoding: 219 219 155
Width: 661
GlyphClass: 2
Flags: MW
HStem: -10 41<318 423.5> 614 33<10 10 264 264 434 434 652 652>
VStem: 87 85<233.5 266 266 523> 526 49<277 295 295 523>
AnchorPoint: "Anchor-0" 344 894 basechar 0
LayerCount: 2
Fore
SplineSet
172 523 m 2
 172 266 l 2
 172 201 174 125 223 78 c 0
 253 49 294 31 342 31 c 0
 511 31 526 165 526 277 c 2
 526 523 l 2
 526 604 509 607 434 614 c 1
 428 620 428 641 434 647 c 1
 480 646 529 645 550 645 c 0
 573 645 614 646 652 647 c 1
 658 641 658 620 652 614 c 1
 592 607 575 603 575 523 c 2
 575 295 l 2
 575 117 526 -10 321 -10 c 0
 219 -10 87 29 87 233 c 2
 87 523 l 2
 87 606 70 611 10 614 c 1
 4 620 4 641 10 647 c 1
 49 646 90 645 129 645 c 0
 168 645 217 646 264 647 c 1
 270 641 270 620 264 614 c 1
 187 611 172 606 172 523 c 2
368 808 m 1
 398 772 435 738 471 711 c 1
 468 702 464 694 455 690 c 1
 416 708 382 726 349 751 c 1
 312 724 280 707 242 690 c 1
 233 696 230 702 228 711 c 1
 265 739 298 774 329 808 c 1
 343 816 353 816 368 808 c 1
EndSplineSet
MultipleSubs2: "'c2sc' Capitals to Small Capitals lookup 12 subtable" ucircumflex.sc
Position2: "'cpsp' Capital Spacing lookup 3 subtable" dx=2 dy=0 dh=5 dv=0
EndChar

StartChar: Udieresis
Encoding: 220 220 156
Width: 661
GlyphClass: 2
Flags: MW
HStem: -10 41<318 423.5> 614 33<10 10 264 264 434 434 652 652> 710 96<238 264 427 453>
VStem: 87 85<233.5 266 266 523> 203 96<745 771> 392 96<745 771> 526 49<277 295 295 523>
LayerCount: 2
Fore
SplineSet
172 523 m 2
 172 266 l 2
 172 201 174 125 223 78 c 0
 253 49 294 31 342 31 c 0
 511 31 526 165 526 277 c 2
 526 523 l 2
 526 604 509 607 434 614 c 1
 428 620 428 641 434 647 c 1
 480 646 529 645 550 645 c 0
 573 645 614 646 652 647 c 1
 658 641 658 620 652 614 c 1
 592 607 575 603 575 523 c 2
 575 295 l 2
 575 117 526 -10 321 -10 c 0
 219 -10 87 29 87 233 c 2
 87 523 l 2
 87 606 70 611 10 614 c 1
 4 620 4 641 10 647 c 1
 49 646 90 645 129 645 c 0
 168 645 217 646 264 647 c 1
 270 641 270 620 264 614 c 1
 187 611 172 606 172 523 c 2
203 758 m 0
 203 784 225 806 251 806 c 0
 277 806 299 784 299 758 c 0
 299 732 277 710 251 710 c 0
 225 710 203 732 203 758 c 0
392 758 m 0
 392 784 414 806 440 806 c 0
 466 806 488 784 488 758 c 0
 488 732 466 710 440 710 c 0
 414 710 392 732 392 758 c 0
EndSplineSet
Substitution2: "'ss01' Style Set 1 lookup 40 subtable" Udieresis.alt
MultipleSubs2: "'c2sc' Capitals to Small Capitals lookup 12 subtable" udieresis.sc
Position2: "'cpsp' Capital Spacing lookup 3 subtable" dx=2 dy=0 dh=5 dv=0
EndChar

StartChar: Yacute
Encoding: 221 221 157
Width: 575
GlyphClass: 2
Flags: MW
HStem: -2 33<155 155 434 434> 614 33<6 6 221 221 395 395 569 569>
VStem: 1 170 252 85<122 249 249 258> 391 183 443 131
AnchorPoint: "Anchor-0" 344 894 basechar 0
LayerCount: 2
Fore
SplineSet
337 122 m 2xd4
 337 39 354 34 434 31 c 1
 440 25 440 4 434 -2 c 1
 384 -1 334 0 295 0 c 0
 256 0 204 -1 155 -2 c 1
 149 4 149 25 155 31 c 1
 235 34 252 39 252 122 c 2
 252 249 l 2
 252 286 249 297 231 326 c 2
 100 547 l 2
 65 605 48 611 6 614 c 1
 0 620 -1 641 5 647 c 1
 35 646 68 645 107 645 c 0
 147 645 185 646 221 647 c 1
 227 641 227 620 221 614 c 1
 165 611 161 601 185 559 c 2
 301 354 l 2
 310 338 315 337 323 352 c 2
 434 561 l 2xf4
 455 601 439 611 395 614 c 1
 389 620 389 641 395 647 c 1
 427 646 463 645 486 645 c 0
 509 645 541 646 569 647 c 1
 575 641 575 620 569 614 c 1
 524 610 502 601 474 550 c 2
 355 334 l 2
 338 304 337 288 337 258 c 2
 337 122 l 2xd4
360 820 m 1
 389 807 409 789 422 768 c 1
 278 710 l 2
 257 701 245 698 236 698 c 0
 227 698 221 705 221 713 c 0
 221 720 223 725 236 734 c 2
 360 820 l 1
EndSplineSet
MultipleSubs2: "'c2sc' Capitals to Small Capitals lookup 12 subtable" yacute.sc
Position2: "'cpsp' Capital Spacing lookup 3 subtable" dx=2 dy=0 dh=5 dv=0
EndChar

StartChar: Thorn
Encoding: 222 222 158
Width: 527
GlyphClass: 2
Flags: MW
HStem: -2 185 150 33<241.5 290 235 348> 490 33<263.5 301.5> 490 157
VStem: 98 85<122 159 80.5 188 188 479 519 523> 400 93<305.5 378.5 305.5 403>
AnchorPoint: "Anchor-0" 281 850 basechar 0
LayerCount: 2
Fore
SplineSet
183 122 m 2x6c
 183 39 200 34 270 31 c 1
 276 25 276 4 270 -2 c 1
 220 -1 191 0 141 0 c 0
 90 0 60 -1 11 -2 c 1
 5 4 5 25 11 31 c 1
 81 34 98 39 98 122 c 2
 98 523 l 2
 98 606 81 611 11 614 c 1
 5 620 5 641 11 647 c 1
 61 646 90 645 140 645 c 0
 191 645 221 646 270 647 c 1
 276 641 276 620 270 614 c 1x9c
 200 611 183 606 183 523 c 2
 183 519 l 1
 219 521 254 523 273 523 c 0
 458 523 493 414 493 343 c 0
 493 268 437 150 259 150 c 0
 224 150 198 154 183 159 c 1
 183 122 l 2x6c
183 479 m 1
 183 188 l 1
 192 185 216 183 254 183 c 0
 326 183 400 214 400 343 c 0
 400 463 331 490 272 490 c 0
 253 490 204 485 183 479 c 1
EndSplineSet
MultipleSubs2: "'c2sc' Capitals to Small Capitals lookup 12 subtable" thorn.sc
Position2: "'cpsp' Capital Spacing lookup 3 subtable" dx=2 dy=0 dh=5 dv=0
EndChar

StartChar: germandbls
Encoding: 223 223 159
Width: 541
GlyphClass: 2
Flags: MW
HStem: -10 33<332.5 359 332.5 390> -2 21G 398 33<37.5 62 37.5 80 29 62> 411 20 665 33<256.5 313.5>
VStem: 92 79<122 386 386 390> 240 59<82.5 94> 365 83<548.5 601> 415 85<120.5 202.5>
LayerCount: 2
Fore
SplineSet
92 122 m 2xac80
 92 386 l 2
 92 394 89 398 80 398 c 2
 29 398 l 1
 23 404 31 431 44 431 c 0
 80 431 92 436 92 477 c 0
 92 642 217 698 296 698 c 0
 400 698 448 635 448 587 c 0xad
 448 510 390 464 320 411 c 1
 320 409 l 1
 399 357 500 289 500 173 c 0
 500 68 436 -10 344 -10 c 0
 260 -10 240 42 240 86 c 0
 240 102 255 121 271 121 c 0
 291 121 299 111 299 91 c 0
 299 74 291 65 291 53 c 0
 291 23 321 23 344 23 c 0
 374 23 415 65 415 156 c 0x9e80
 415 249 344 332 260 396 c 1
 260 409 l 1
 327 461 365 501 365 574 c 0
 365 628 340 665 287 665 c 0
 183 665 171 550 171 442 c 2
 171 122 l 2
 171 39 183 36 219 31 c 1
 225 25 225 4 219 -2 c 1
 196 -1 166 0 132 0 c 0
 92 0 53 -1 23 -2 c 1
 17 4 17 25 23 31 c 1x6d
 80 34 92 39 92 122 c 2xac80
EndSplineSet
Substitution2: "'ss03' Style Set 3 lookup 42 subtable" germandbls.ss03
AlternateSubs2: "'salt' Stylistic Alternatives lookup 21 subtable" germandbls.ss03 germandbls.alt
MultipleSubs2: "'smcp' Lowercase to Small Capitals lookup 10 subtable" germandbls.sc
EndChar

StartChar: agrave
Encoding: 224 224 160
Width: 457
GlyphClass: 2
Flags: MW
HStem: -10 41<166 179.5> -10 48<335 407.5> 406 33<193 229>
VStem: 36 83<86.5 124.5 86.5 132> 55 77<316 379.5> 293 78<48 123 101 123 123 233 233 233>
AnchorPoint: "Anchor-0" 255 834 basechar 0
LayerCount: 2
Fore
SplineSet
293 48 m 1xb4
 291 48 l 1
 271 32 l 2
 227 -2 197 -10 162 -10 c 0
 92 -10 36 16 36 98 c 0xb4
 36 166 105 219 201 243 c 2
 287 264 l 2
 290 265 293 269 293 276 c 0
 293 389 246 406 212 406 c 0
 174 406 132 395 132 364 c 0
 132 353 133 347 134 344 c 0
 136 340 137 333 137 326 c 0
 137 313 119 292 90 292 c 0
 67 292 55 304 55 328 c 0
 55 385 138 439 220 439 c 0
 293 439 371 412 371 270 c 2
 371 123 l 2
 371 77 372 38 401 38 c 0
 414 38 431 48 438 54 c 1x6c
 449 48 453 39 455 27 c 1
 434 7 398 -10 360 -10 c 0
 310 -10 299 17 293 48 c 1xb4
293 233 m 1
 214 212 l 2
 140 193 119 147 119 102 c 0
 119 71 141 31 191 31 c 0
 219 31 253 54 279 75 c 0
 287 81 293 88 293 101 c 2
 293 233 l 1
196 671 m 2
 266 545 l 2
 271 535 272 528 272 521 c 0
 272 516 265 510 257 510 c 0
 251 510 244 515 228 530 c 2
 114 639 l 1
 116 650 l 1
 124 656 147 673 181 673 c 0
 186 673 192 672 196 671 c 2
EndSplineSet
MultipleSubs2: "'smcp' Lowercase to Small Capitals lookup 10 subtable" agrave.sc
EndChar

StartChar: aacute
Encoding: 225 225 161
Width: 457
GlyphClass: 2
Flags: MW
HStem: -10 41<166 179.5> -10 48<335 407.5> 406 33<193 229>
VStem: 36 83<86.5 124.5 86.5 132> 55 77<316 379.5> 293 78<48 123 101 123 123 233 233 233>
AnchorPoint: "Anchor-0" 255 834 basechar 0
LayerCount: 2
Fore
SplineSet
293 48 m 1xb4
 291 48 l 1
 271 32 l 2
 227 -2 197 -10 162 -10 c 0
 92 -10 36 16 36 98 c 0xb4
 36 166 105 219 201 243 c 2
 287 264 l 2
 290 265 293 269 293 276 c 0
 293 389 246 406 212 406 c 0
 174 406 132 395 132 364 c 0
 132 353 133 347 134 344 c 0
 136 340 137 333 137 326 c 0
 137 313 119 292 90 292 c 0
 67 292 55 304 55 328 c 0
 55 385 138 439 220 439 c 0
 293 439 371 412 371 270 c 2
 371 123 l 2
 371 77 372 38 401 38 c 0
 414 38 431 48 438 54 c 1x6c
 449 48 453 39 455 27 c 1
 434 7 398 -10 360 -10 c 0
 310 -10 299 17 293 48 c 1xb4
293 233 m 1
 214 212 l 2
 140 193 119 147 119 102 c 0
 119 71 141 31 191 31 c 0
 219 31 253 54 279 75 c 0
 287 81 293 88 293 101 c 2
 293 233 l 1
244 671 m 2
 247 672 253 673 258 673 c 0
 264 673 290 672 313 650 c 1
 316 639 l 1
 201 530 l 2
 186 515 178 511 171 511 c 0
 164 511 157 517 157 524 c 0
 157 535 160 539 168 552 c 2
 244 671 l 2
EndSplineSet
MultipleSubs2: "'smcp' Lowercase to Small Capitals lookup 10 subtable" aacute.sc
EndChar

StartChar: acircumflex
Encoding: 226 226 162
Width: 457
GlyphClass: 2
Flags: MW
HStem: -10 41<166 179.5> -10 48<335 407.5> 406 33<193 229>
VStem: 36 83<86.5 124.5 86.5 132> 55 77<316 379.5> 293 78<48 123 101 123 123 233 233 233>
AnchorPoint: "Anchor-0" 214 834 basechar 0
LayerCount: 2
Fore
SplineSet
293 48 m 1xb4
 291 48 l 1
 271 32 l 2
 227 -2 197 -10 162 -10 c 0
 92 -10 36 16 36 98 c 0xb4
 36 166 105 219 201 243 c 2
 287 264 l 2
 290 265 293 269 293 276 c 0
 293 389 246 406 212 406 c 0
 174 406 132 395 132 364 c 0
 132 353 133 347 134 344 c 0
 136 340 137 333 137 326 c 0
 137 313 119 292 90 292 c 0
 67 292 55 304 55 328 c 0
 55 385 138 439 220 439 c 0
 293 439 371 412 371 270 c 2
 371 123 l 2
 371 77 372 38 401 38 c 0
 414 38 431 48 438 54 c 1x6c
 449 48 453 39 455 27 c 1
 434 7 398 -10 360 -10 c 0
 310 -10 299 17 293 48 c 1xb4
293 233 m 1
 214 212 l 2
 140 193 119 147 119 102 c 0
 119 71 141 31 191 31 c 0
 219 31 253 54 279 75 c 0
 287 81 293 88 293 101 c 2
 293 233 l 1
231 660 m 1
 260 613 304 560 340 520 c 1
 335 513 326 505 317 503 c 1
 279 527 244 555 214 586 c 1
 182 554 149 525 110 503 c 1
 101 505 94 511 88 520 c 1
 124 560 170 614 199 660 c 1
 210 662 220 663 231 660 c 1
EndSplineSet
MultipleSubs2: "'smcp' Lowercase to Small Capitals lookup 10 subtable" acircumflex.sc
EndChar

StartChar: atilde
Encoding: 227 227 163
Width: 457
GlyphClass: 2
Flags: MW
HStem: -10 41<166 179.5> -10 48<335 407.5> 406 33<193 229> 520 53<273.5 293> 571 55<139 160.5>
VStem: 36 83<86.5 124.5 86.5 132> 55 77<316 379.5> 293 78<48 123 101 123 123 233 233 233>
AnchorPoint: "Anchor-0" 218 810 basechar 0
LayerCount: 2
Fore
SplineSet
293 48 m 1xad
 291 48 l 1
 271 32 l 2
 227 -2 197 -10 162 -10 c 0
 92 -10 36 16 36 98 c 0xad
 36 166 105 219 201 243 c 2
 287 264 l 2
 290 265 293 269 293 276 c 0
 293 389 246 406 212 406 c 0
 174 406 132 395 132 364 c 0
 132 353 133 347 134 344 c 0
 136 340 137 333 137 326 c 0
 137 313 119 292 90 292 c 0
 67 292 55 304 55 328 c 0
 55 385 138 439 220 439 c 0
 293 439 371 412 371 270 c 2
 371 123 l 2
 371 77 372 38 401 38 c 0
 414 38 431 48 438 54 c 1x6b
 449 48 453 39 455 27 c 1
 434 7 398 -10 360 -10 c 0
 310 -10 299 17 293 48 c 1xad
293 233 m 1
 214 212 l 2
 140 193 119 147 119 102 c 0
 119 71 141 31 191 31 c 0
 219 31 253 54 279 75 c 0
 287 81 293 88 293 101 c 2
 293 233 l 1
283 573 m 0xb5
 305 573 316 583 330 625 c 1
 341 626 351 623 357 619 c 1
 345 559 316 520 270 520 c 0xb5
 248 520 227 538 206 552 c 0
 188 563 169 571 152 571 c 0
 126 571 116 556 106 523 c 1
 95 521 85 522 79 528 c 1
 93 587 116 626 159 626 c 0xad
 189 626 211 606 231 592 c 0
 247 580 264 573 283 573 c 0xb5
EndSplineSet
MultipleSubs2: "'smcp' Lowercase to Small Capitals lookup 10 subtable" atilde.sc
EndChar

StartChar: adieresis
Encoding: 228 228 164
Width: 457
GlyphClass: 2
Flags: MW
HStem: -10 41<166 179.5> -10 48<335 407.5> 406 33<193 229> 528 95<117 143 286 312>
VStem: 36 83<86.5 124.5 86.5 132> 55 77<316 379.5> 83 94<562 588> 252 94<562 588> 293 78<48 123 101 123 123 233 233 233>
AnchorPoint: "Anchor-0" 255 834 basechar 0
LayerCount: 2
Fore
SplineSet
293 48 m 1xb880
 291 48 l 1
 271 32 l 2
 227 -2 197 -10 162 -10 c 0
 92 -10 36 16 36 98 c 0xb880
 36 166 105 219 201 243 c 2
 287 264 l 2
 290 265 293 269 293 276 c 0
 293 389 246 406 212 406 c 0
 174 406 132 395 132 364 c 0
 132 353 133 347 134 344 c 0
 136 340 137 333 137 326 c 0
 137 313 119 292 90 292 c 0
 67 292 55 304 55 328 c 0
 55 385 138 439 220 439 c 0
 293 439 371 412 371 270 c 2
 371 123 l 2
 371 77 372 38 401 38 c 0
 414 38 431 48 438 54 c 1x7480
 449 48 453 39 455 27 c 1
 434 7 398 -10 360 -10 c 0
 310 -10 299 17 293 48 c 1xb880
293 233 m 1
 214 212 l 2
 140 193 119 147 119 102 c 0
 119 71 141 31 191 31 c 0
 219 31 253 54 279 75 c 0
 287 81 293 88 293 101 c 2
 293 233 l 1
83 575 m 0xb3
 83 601 104 623 130 623 c 0
 156 623 177 601 177 575 c 0
 177 549 156 528 130 528 c 0
 104 528 83 549 83 575 c 0xb3
252 575 m 0
 252 601 273 623 299 623 c 0
 325 623 346 601 346 575 c 0
 346 549 325 528 299 528 c 0
 273 528 252 549 252 575 c 0
EndSplineSet
MultipleSubs2: "'smcp' Lowercase to Small Capitals lookup 10 subtable" adieresis.sc
EndChar

StartChar: aring
Encoding: 229 229 165
Width: 457
GlyphClass: 2
Flags: MW
HStem: -10 41<166 179.5> -10 48<335 407.5> 406 33<193 229> 497 32<194.5 225.5 194.5 234> 635 32<194.5 225>
VStem: 36 83<86.5 124.5 86.5 132> 55 77<316 379.5> 122 40<568 597 568 605> 258 40<568 597.5> 293 78<48 123 101 123 123 233 233 233>
AnchorPoint: "Anchor-0" 224 844 basechar 0
LayerCount: 2
Fore
SplineSet
293 48 m 1xb940
 291 48 l 1xb940
 271 32 l 2
 227 -2 197 -10 162 -10 c 0
 92 -10 36 16 36 98 c 0xbc40
 36 166 105 219 201 243 c 2
 287 264 l 2
 290 265 293 269 293 276 c 0
 293 389 246 406 212 406 c 0
 174 406 132 395 132 364 c 0
 132 353 133 347 134 344 c 0
 136 340 137 333 137 326 c 0
 137 313 119 292 90 292 c 0
 67 292 55 304 55 328 c 0
 55 385 138 439 220 439 c 0
 293 439 371 412 371 270 c 2
 371 123 l 2
 371 77 372 38 401 38 c 0
 414 38 431 48 438 54 c 1x7a40
 449 48 453 39 455 27 c 1
 434 7 398 -10 360 -10 c 0
 310 -10 299 17 293 48 c 1xb940
293 233 m 1
 214 212 l 2
 140 193 119 147 119 102 c 0
 119 71 141 31 191 31 c 0xbc40
 219 31 253 54 279 75 c 0
 287 81 293 88 293 101 c 2
 293 233 l 1
122 582 m 0xb980
 122 628 164 667 210 667 c 0
 256 667 298 629 298 582 c 0
 298 537 258 497 210 497 c 0
 164 497 122 536 122 582 c 0xb980
210 635 m 0
 179 635 162 612 162 582 c 0
 162 554 179 529 210 529 c 0
 241 529 258 554 258 582 c 0
 258 613 240 635 210 635 c 0
EndSplineSet
MultipleSubs2: "'smcp' Lowercase to Small Capitals lookup 10 subtable" aring.sc
EndChar

StartChar: ae
Encoding: 230 230 166
Width: 687
GlyphClass: 2
Flags: MW
HStem: -10 42<166 200.5> -10 49<467.5 524> 215 35<298 298> 218 35<371 371> 406 33<180.5 210.5 461.5 513>
VStem: 39 72<85.5 118.5 85.5 122> 50 73<358 366> 298 73<190 215> 298 74 572 76<305.5 352>
AnchorPoint: "Anchor-4" 604 30 basechar 0
AnchorPoint: "Anchor-2" 327 -109 basechar 0
AnchorPoint: "Anchor-0" 350 645 basechar 0
LayerCount: 2
Fore
SplineSet
265 384 m 0x5d40
 250 399 221 406 200 406 c 0
 161 406 123 392 123 363 c 0
 123 353 124 346 126 343 c 0
 128 339 129 332 129 325 c 0
 129 309 115 292 90 292 c 0
 59 292 50 317 50 337 c 0
 50 395 128 439 210 439 c 0
 234 439 311 436 348 369 c 1
 381 414 433 439 490 439 c 0
 604 439 648 373 648 339 c 0
 648 258 602 221 371 218 c 1x5b40
 371 128 430 39 505 39 c 0
 559 39 594 64 624 99 c 1
 633 98 641 88 644 83 c 1
 615 29 557 -10 491 -10 c 0
 400 -10 361 35 340 59 c 0
 332 68 328 64 316 52 c 0
 270 5 219 -10 182 -10 c 0
 146 -10 110 -4 88 8 c 0
 54 28 39 60 39 102 c 0
 39 142 66 184 102 205 c 0
 145 231 211 244 298 250 c 1x6d40
 297 329 288 360 265 384 c 0x5d40
298 215 m 1xad40
 229 210 179 193 148 170 c 0
 123 152 111 130 111 107 c 0
 111 64 138 32 194 32 c 0
 226 32 278 73 293 113 c 0
 297 132 298 165 298 215 c 1xad40
372 253 m 1x5cc0
 525 255 572 275 572 336 c 0
 572 368 537 406 489 406 c 0
 421 406 380 338 372 253 c 1x5cc0
EndSplineSet
MultipleSubs2: "'smcp' Lowercase to Small Capitals lookup 10 subtable" ae.sc
EndChar

StartChar: ccedilla
Encoding: 231 231 167
Width: 428
GlyphClass: 2
Flags: MW
HStem: -200 29<200 225 200 246.5> -96 32<218.5 272> -9 48<213 278.5> 406 33<204 266.5>
VStem: 37 86<171.5 279> 261 62<-144 -120.5>
AnchorPoint: "Anchor-0" 255 834 basechar 0
LayerCount: 2
Fore
SplineSet
228 -96 m 0
 209 -96 199 -97 183 -102 c 1
 177 -96 l 1
 213 -9 l 1
 101 1 37 87 37 208 c 0
 37 350 143 439 242 439 c 0
 338 439 395 399 395 344 c 0
 395 313 367 300 346 300 c 0
 325 300 311 309 308 336 c 0
 304 371 296 406 237 406 c 0
 171 406 123 340 123 230 c 0
 123 113 184 39 257 39 c 0
 300 39 343 61 377 105 c 1
 386 104 394 100 398 91 c 1
 352 15 302 -7 247 -10 c 1
 226 -67 l 1
 234 -65 243 -64 252 -64 c 0
 292 -64 323 -88 323 -126 c 0
 323 -169 277 -200 216 -200 c 0
 184 -200 167 -194 142 -183 c 1
 142 -171 145 -164 152 -157 c 1
 179 -167 190 -171 210 -171 c 0
 240 -171 261 -157 261 -131 c 0
 261 -110 251 -96 228 -96 c 0
EndSplineSet
MultipleSubs2: "'smcp' Lowercase to Small Capitals lookup 10 subtable" ccedilla.sc
EndChar

StartChar: egrave
Encoding: 232 232 168
Width: 447
GlyphClass: 2
Flags: MW
HStem: -10 49<244 275> 246 39 404 33<225 256>
VStem: 37 84<219 248 219 278> 320 86<294.5 305 257.5 341>
AnchorPoint: "Anchor-0" 255 834 basechar 0
LayerCount: 2
Fore
SplineSet
386 93 m 1
 398 92 404 87 407 77 c 1
 367 25 313 -10 237 -10 c 0
 165 -10 118 14 84 54 c 0
 51 92 37 146 37 202 c 0
 37 354 150 437 237 437 c 0
 376 437 406 347 406 263 c 0
 406 252 399 246 387 246 c 2
 121 248 l 1
 121 190 133 144 153 111 c 0
 184 60 226 39 262 39 c 0
 320 39 349 55 386 93 c 1
124 282 m 1
 305 285 l 2
 316 285 320 290 320 299 c 0
 320 383 275 404 237 404 c 0
 213 404 143 395 124 282 c 1
210 671 m 2
 280 545 l 2
 285 535 286 528 286 521 c 0
 286 516 279 510 271 510 c 0
 265 510 258 515 242 530 c 2
 128 639 l 1
 130 650 l 1
 138 656 161 673 195 673 c 0
 200 673 206 672 210 671 c 2
EndSplineSet
MultipleSubs2: "'smcp' Lowercase to Small Capitals lookup 10 subtable" egrave.sc
EndChar

StartChar: eacute
Encoding: 233 233 169
Width: 447
GlyphClass: 2
Flags: MW
HStem: -10 49<244 275> 246 39 404 33<225 256>
VStem: 37 84<219 248 219 278> 320 86<294.5 305 257.5 341>
AnchorPoint: "Anchor-0" 255 834 basechar 0
LayerCount: 2
Fore
SplineSet
386 93 m 1
 398 92 404 87 407 77 c 1
 367 25 313 -10 237 -10 c 0
 165 -10 118 14 84 54 c 0
 51 92 37 146 37 202 c 0
 37 354 150 437 237 437 c 0
 376 437 406 347 406 263 c 0
 406 252 399 246 387 246 c 2
 121 248 l 1
 121 190 133 144 153 111 c 0
 184 60 226 39 262 39 c 0
 320 39 349 55 386 93 c 1
124 282 m 1
 305 285 l 2
 316 285 320 290 320 299 c 0
 320 383 275 404 237 404 c 0
 213 404 143 395 124 282 c 1
270 671 m 2
 273 672 279 673 284 673 c 0
 290 673 316 672 339 650 c 1
 342 639 l 1
 227 530 l 2
 212 515 204 511 197 511 c 0
 190 511 183 517 183 524 c 0
 183 535 186 539 194 552 c 2
 270 671 l 2
EndSplineSet
MultipleSubs2: "'smcp' Lowercase to Small Capitals lookup 10 subtable" eacute.sc
EndChar

StartChar: ecircumflex
Encoding: 234 234 170
Width: 447
GlyphClass: 2
Flags: MW
HStem: -10 49<244 275> 246 39 404 33<225 256>
VStem: 37 84<219 248 219 278> 320 86<294.5 305 257.5 341>
AnchorPoint: "Anchor-0" 255 834 basechar 0
LayerCount: 2
Fore
SplineSet
386 93 m 1
 398 92 404 87 407 77 c 1
 367 25 313 -10 237 -10 c 0
 165 -10 118 14 84 54 c 0
 51 92 37 146 37 202 c 0
 37 354 150 437 237 437 c 0
 376 437 406 347 406 263 c 0
 406 252 399 246 387 246 c 2
 121 248 l 1
 121 190 133 144 153 111 c 0
 184 60 226 39 262 39 c 0
 320 39 349 55 386 93 c 1
124 282 m 1
 305 285 l 2
 316 285 320 290 320 299 c 0
 320 383 275 404 237 404 c 0
 213 404 143 395 124 282 c 1
249 660 m 1
 278 613 322 560 358 520 c 1
 353 513 344 505 335 503 c 1
 297 527 262 555 232 586 c 1
 200 554 167 525 128 503 c 1
 119 505 112 511 106 520 c 1
 142 560 188 614 217 660 c 1
 228 662 238 663 249 660 c 1
EndSplineSet
MultipleSubs2: "'smcp' Lowercase to Small Capitals lookup 10 subtable" ecircumflex.sc
EndChar

StartChar: edieresis
Encoding: 235 235 171
Width: 447
GlyphClass: 2
Flags: MW
HStem: -10 49<244 275> 246 39 404 33<225 256> 528 95<133 159 302 328>
VStem: 37 84<219 248 219 278> 99 94<562 588> 268 94<562 588> 320 86<294.5 305 257.5 341>
AnchorPoint: "Anchor-0" 255 834 basechar 0
LayerCount: 2
Fore
SplineSet
386 93 m 1xf9
 398 92 404 87 407 77 c 1
 367 25 313 -10 237 -10 c 0
 165 -10 118 14 84 54 c 0
 51 92 37 146 37 202 c 0
 37 354 150 437 237 437 c 0
 376 437 406 347 406 263 c 0
 406 252 399 246 387 246 c 2
 121 248 l 1
 121 190 133 144 153 111 c 0
 184 60 226 39 262 39 c 0
 320 39 349 55 386 93 c 1xf9
124 282 m 1
 305 285 l 2
 316 285 320 290 320 299 c 0
 320 383 275 404 237 404 c 0
 213 404 143 395 124 282 c 1
99 575 m 0xf6
 99 601 120 623 146 623 c 0
 172 623 193 601 193 575 c 0
 193 549 172 528 146 528 c 0
 120 528 99 549 99 575 c 0xf6
268 575 m 0
 268 601 289 623 315 623 c 0
 341 623 362 601 362 575 c 0
 362 549 341 528 315 528 c 0
 289 528 268 549 268 575 c 0
EndSplineSet
MultipleSubs2: "'smcp' Lowercase to Small Capitals lookup 10 subtable" edieresis.sc
EndChar

StartChar: igrave
Encoding: 236 236 172
Width: 271
GlyphClass: 2
Flags: MW
HStem: -2 21G 422 20G<172 176> 435 7
VStem: 102 79<122 317 317 321>
AnchorPoint: "Anchor-0" 255 834 basechar 0
LayerCount: 2
Fore
SplineSet
181 122 m 2xd0
 181 39 192 35 253 31 c 1
 259 25 259 4 253 -2 c 1
 220 -1 182 0 142 0 c 0
 102 0 63 -1 30 -2 c 1
 24 4 24 25 30 31 c 1
 91 36 102 39 102 122 c 2
 102 317 l 2
 102 374 92 380 37 385 c 1
 35 391 33 407 35 413 c 1
 104 422 144 431 172 442 c 0
 180 442 185 439 185 435 c 2xb0
 185 435 181 371 181 321 c 2
 181 122 l 2xd0
99 671 m 2
 169 545 l 2
 174 535 175 528 175 521 c 0
 175 516 168 510 160 510 c 0
 154 510 147 515 131 530 c 2
 17 639 l 1
 19 650 l 1
 27 656 50 673 84 673 c 0
 89 673 95 672 99 671 c 2
EndSplineSet
MultipleSubs2: "'smcp' Lowercase to Small Capitals lookup 10 subtable" igrave.sc
EndChar

StartChar: iacute
Encoding: 237 237 173
Width: 271
GlyphClass: 2
Flags: MW
HStem: -2 21G 422 20G<172 176> 435 7
VStem: 102 79<122 317 317 321>
AnchorPoint: "Anchor-6" 142 215 basechar 0
AnchorPoint: "Anchor-0" 145 834 basechar 0
LayerCount: 2
Fore
SplineSet
181 122 m 2xd0
 181 39 192 35 253 31 c 1
 259 25 259 4 253 -2 c 1
 220 -1 182 0 142 0 c 0
 102 0 63 -1 30 -2 c 1
 24 4 24 25 30 31 c 1
 91 36 102 39 102 122 c 2
 102 317 l 2
 102 374 92 380 37 385 c 1
 35 391 33 407 35 413 c 1
 104 422 144 431 172 442 c 0
 180 442 185 439 185 435 c 2xb0
 185 435 181 371 181 321 c 2
 181 122 l 2xd0
163 671 m 2
 166 672 172 673 177 673 c 0
 183 673 209 672 232 650 c 1
 235 639 l 1
 120 530 l 2
 105 515 97 511 90 511 c 0
 83 511 76 517 76 524 c 0
 76 535 79 539 87 552 c 2
 163 671 l 2
EndSplineSet
MultipleSubs2: "'smcp' Lowercase to Small Capitals lookup 10 subtable" iacute.sc
EndChar

StartChar: icircumflex
Encoding: 238 238 174
Width: 271
GlyphClass: 2
Flags: MW
HStem: -2 21G 422 20G<172 176> 435 7
VStem: 102 79<122 317 317 321>
AnchorPoint: "Anchor-0" 255 834 basechar 0
LayerCount: 2
Fore
SplineSet
181 122 m 2xd0
 181 39 192 35 253 31 c 1
 259 25 259 4 253 -2 c 1
 220 -1 182 0 142 0 c 0
 102 0 63 -1 30 -2 c 1
 24 4 24 25 30 31 c 1
 91 36 102 39 102 122 c 2
 102 317 l 2
 102 374 92 380 37 385 c 1
 35 391 33 407 35 413 c 1
 104 422 144 431 172 442 c 0
 180 442 185 439 185 435 c 2xb0
 185 435 181 371 181 321 c 2
 181 122 l 2xd0
141 660 m 1
 170 613 214 560 250 520 c 1
 245 513 236 505 227 503 c 1
 189 527 154 555 124 586 c 1
 92 554 59 525 20 503 c 1
 11 505 4 511 -2 520 c 1
 34 560 80 614 109 660 c 1
 120 662 130 663 141 660 c 1
EndSplineSet
MultipleSubs2: "'smcp' Lowercase to Small Capitals lookup 10 subtable" icircumflex.sc
EndChar

StartChar: idieresis
Encoding: 239 239 175
Width: 271
GlyphClass: 2
Flags: MW
HStem: -2 21G 422 20G<172 176> 435 7 528 95<30 56 199 225>
VStem: -4 94<562 588> 102 79<122 317 317 321> 165 94<562 588>
AnchorPoint: "Anchor-0" 137 795 basechar 0
LayerCount: 2
Fore
SplineSet
181 122 m 2xd4
 181 39 192 35 253 31 c 1
 259 25 259 4 253 -2 c 1
 220 -1 182 0 142 0 c 0
 102 0 63 -1 30 -2 c 1
 24 4 24 25 30 31 c 1
 91 36 102 39 102 122 c 2
 102 317 l 2
 102 374 92 380 37 385 c 1
 35 391 33 407 35 413 c 1
 104 422 144 431 172 442 c 0
 180 442 185 439 185 435 c 2xb4
 185 435 181 371 181 321 c 2
 181 122 l 2xd4
-4 575 m 0xda
 -4 601 17 623 43 623 c 0
 69 623 90 601 90 575 c 0
 90 549 69 528 43 528 c 0
 17 528 -4 549 -4 575 c 0xda
165 575 m 0
 165 601 186 623 212 623 c 0
 238 623 259 601 259 575 c 0
 259 549 238 528 212 528 c 0
 186 528 165 549 165 575 c 0
EndSplineSet
MultipleSubs2: "'smcp' Lowercase to Small Capitals lookup 10 subtable" idieresis.sc
EndChar

StartChar: eth
Encoding: 240 240 176
Width: 486
GlyphClass: 2
Flags: MW
HStem: -10 36<212.5 271.5 212.5 287> 404 35<207 261 207 267.5> 581 20G<278 278> 582 20G<209 209> 678 20G<141 141 353 353>
VStem: 34 86<168 263 168 294.5> 363 84<152.5 246>
LayerCount: 2
Fore
SplineSet
34 208 m 0xde
 34 381 166 439 248 439 c 0
 274 439 299 435 324 425 c 1
 302 478 272 526 235 572 c 1
 126 499 l 1
 104 531 l 1
 209 602 l 1
 193 618 l 2xde
 172 640 149 660 125 677 c 1
 141 698 l 1
 176 679 212 655 247 627 c 1
 353 698 l 1
 375 666 l 1
 278 601 l 1
 296 583 l 2xee
 382 497 447 383 447 237 c 0
 447 68 343 -10 231 -10 c 0
 107 -10 34 104 34 208 c 0xde
248 26 m 0
 295 26 363 61 363 223 c 0
 363 269 359 313 347 356 c 1
 324 385 289 404 246 404 c 0
 145 404 120 301 120 225 c 0
 120 111 177 26 248 26 c 0
EndSplineSet
MultipleSubs2: "'smcp' Lowercase to Small Capitals lookup 10 subtable" eth.sc
EndChar

StartChar: ntilde
Encoding: 241 241 177
Width: 542
GlyphClass: 2
Flags: MW
HStem: -2 21G 387 52<323.5 324> 422 20G<152 156> 520 53<336.5 356> 571 55<202 223.5>
VStem: 96 76<122 358 317 358> 96 79<122 286> 379 79<122 271>
AnchorPoint: "Anchor-0" 255 834 basechar 0
LayerCount: 2
Fore
SplineSet
184 358 m 0xcd
 243 426 299 439 348 439 c 0
 383 439 414 427 431 405 c 0
 454 374 458 326 458 271 c 2
 458 122 l 2
 458 40 469 36 525 31 c 1
 530 25 530 4 525 -2 c 1
 495 -1 459 0 419 0 c 0
 379 0 347 -1 317 -2 c 1
 312 4 312 25 317 31 c 1
 369 36 379 40 379 122 c 2
 379 274 l 2
 379 304 377 331 367 351 c 0
 355 374 334 387 314 387 c 0
 275 387 230 365 192 328 c 0xcb
 184 319 175 307 175 286 c 2
 175 122 l 2
 175 40 185 36 236 31 c 1
 242 25 242 4 236 -2 c 1
 206 -1 176 0 136 0 c 0
 96 0 56 -1 26 -2 c 1
 20 4 20 25 26 31 c 1
 86 36 96 40 96 122 c 2
 96 317 l 2
 96 375 85 380 31 385 c 1
 29 391 27 407 29 413 c 1
 98 422 124 431 152 442 c 0xab
 160 442 162 439 164 434 c 0
 169 424 171 385 172 358 c 0xad
 172 349 178 351 184 358 c 0xcd
346 573 m 0xd3
 368 573 379 583 393 625 c 1
 404 626 414 623 420 619 c 1
 408 559 379 520 333 520 c 0xd3
 311 520 290 538 269 552 c 0
 251 563 232 571 215 571 c 0
 189 571 179 556 169 523 c 1
 158 521 148 522 142 528 c 1
 156 587 179 626 222 626 c 0xcb
 252 626 274 606 294 592 c 0
 310 580 327 573 346 573 c 0xd3
EndSplineSet
MultipleSubs2: "'smcp' Lowercase to Small Capitals lookup 10 subtable" ntilde.sc
EndChar

StartChar: ograve
Encoding: 242 242 178
Width: 504
GlyphClass: 2
Flags: MW
HStem: -10 35<213 283> 404 35<220 281>
VStem: 41 86<189.5 236.5> 377 86<183.5 254>
AnchorPoint: "Anchor-5" 241 -3 basechar 0
AnchorPoint: "Anchor-4" 372 44 basechar 0
AnchorPoint: "Anchor-2" 243 -110 basechar 0
AnchorPoint: "Anchor-1" 420 396 basechar 0
AnchorPoint: "Anchor-0" 255 834 basechar 0
LayerCount: 2
Fore
SplineSet
41 205 m 0
 41 268 60 326 96 369 c 0
 133 412 187 439 253 439 c 0
 406 439 463 318 463 214 c 0
 463 153 443 90 398 46 c 0
 364 13 315 -10 251 -10 c 0
 109 -10 41 103 41 205 c 0
238 404 m 0
 148 404 127 315 127 228 c 0
 127 151 161 25 265 25 c 0
 312 25 377 56 377 182 c 0
 377 326 324 404 238 404 c 0
224 671 m 2
 294 545 l 2
 299 535 300 528 300 521 c 0
 300 516 293 510 285 510 c 0
 279 510 272 515 256 530 c 2
 142 639 l 1
 144 650 l 1
 152 656 175 673 209 673 c 0
 214 673 220 672 224 671 c 2
EndSplineSet
MultipleSubs2: "'smcp' Lowercase to Small Capitals lookup 10 subtable" ograve.sc
EndChar

StartChar: oacute
Encoding: 243 243 179
Width: 504
GlyphClass: 2
Flags: MW
HStem: -10 35<213 283> 404 35<220 281>
VStem: 41 86<189.5 236.5> 377 86<183.5 254>
AnchorPoint: "Anchor-5" 241 -3 basechar 0
AnchorPoint: "Anchor-4" 372 44 basechar 0
AnchorPoint: "Anchor-2" 243 -110 basechar 0
AnchorPoint: "Anchor-1" 420 396 basechar 0
AnchorPoint: "Anchor-0" 255 834 basechar 0
LayerCount: 2
Fore
SplineSet
41 205 m 0
 41 268 60 326 96 369 c 0
 133 412 187 439 253 439 c 0
 406 439 463 318 463 214 c 0
 463 153 443 90 398 46 c 0
 364 13 315 -10 251 -10 c 0
 109 -10 41 103 41 205 c 0
238 404 m 0
 148 404 127 315 127 228 c 0
 127 151 161 25 265 25 c 0
 312 25 377 56 377 182 c 0
 377 326 324 404 238 404 c 0
270 671 m 2
 273 672 279 673 284 673 c 0
 290 673 316 672 339 650 c 1
 342 639 l 1
 227 530 l 2
 212 515 204 511 197 511 c 0
 190 511 183 517 183 524 c 0
 183 535 186 539 194 552 c 2
 270 671 l 2
EndSplineSet
MultipleSubs2: "'smcp' Lowercase to Small Capitals lookup 10 subtable" oacute.sc
EndChar

StartChar: ocircumflex
Encoding: 244 244 180
Width: 504
GlyphClass: 2
Flags: MW
HStem: -10 35<213 283> 404 35<220 281>
VStem: 41 86<189.5 236.5> 377 86<183.5 254>
AnchorPoint: "Anchor-5" 241 -3 basechar 0
AnchorPoint: "Anchor-4" 372 44 basechar 0
AnchorPoint: "Anchor-2" 243 -110 basechar 0
AnchorPoint: "Anchor-1" 420 396 basechar 0
AnchorPoint: "Anchor-0" 255 833 basechar 0
LayerCount: 2
Fore
SplineSet
41 205 m 0
 41 268 60 326 96 369 c 0
 133 412 187 439 253 439 c 0
 406 439 463 318 463 214 c 0
 463 153 443 90 398 46 c 0
 364 13 315 -10 251 -10 c 0
 109 -10 41 103 41 205 c 0
238 404 m 0
 148 404 127 315 127 228 c 0
 127 151 161 25 265 25 c 0
 312 25 377 56 377 182 c 0
 377 326 324 404 238 404 c 0
268 660 m 1
 297 613 341 560 377 520 c 1
 372 513 363 505 354 503 c 1
 316 527 281 555 251 586 c 1
 219 554 186 525 147 503 c 1
 138 505 131 511 125 520 c 1
 161 560 207 614 236 660 c 1
 247 662 257 663 268 660 c 1
EndSplineSet
MultipleSubs2: "'smcp' Lowercase to Small Capitals lookup 10 subtable" ocircumflex.sc
EndChar

StartChar: otilde
Encoding: 245 245 181
Width: 504
GlyphClass: 2
Flags: MW
HStem: -10 35<213 283> 404 35<220 281> 520 53<294.5 314> 571 55<160 181.5>
VStem: 41 86<189.5 236.5> 377 86<183.5 254>
AnchorPoint: "Anchor-5" 241 -3 basechar 0
AnchorPoint: "Anchor-4" 372 44 basechar 0
AnchorPoint: "Anchor-2" 243 -110 basechar 0
AnchorPoint: "Anchor-1" 420 396 basechar 0
AnchorPoint: "Anchor-0" 240 809 basechar 0
LayerCount: 2
Fore
SplineSet
41 205 m 0xec
 41 268 60 326 96 369 c 0
 133 412 187 439 253 439 c 0
 406 439 463 318 463 214 c 0
 463 153 443 90 398 46 c 0
 364 13 315 -10 251 -10 c 0
 109 -10 41 103 41 205 c 0xec
238 404 m 0
 148 404 127 315 127 228 c 0
 127 151 161 25 265 25 c 0
 312 25 377 56 377 182 c 0
 377 326 324 404 238 404 c 0
304 573 m 0
 326 573 337 583 351 625 c 1
 362 626 372 623 378 619 c 1
 366 559 337 520 291 520 c 0xec
 269 520 248 538 227 552 c 0
 209 563 190 571 173 571 c 0
 147 571 137 556 127 523 c 1
 116 521 106 522 100 528 c 1
 114 587 137 626 180 626 c 0xdc
 210 626 232 606 252 592 c 0
 268 580 285 573 304 573 c 0
EndSplineSet
MultipleSubs2: "'smcp' Lowercase to Small Capitals lookup 10 subtable" otilde.sc
EndChar

StartChar: odieresis
Encoding: 246 246 182
Width: 504
GlyphClass: 2
Flags: MW
HStem: -10 35<213 283> 404 35<220 281> 528 95<155 181 324 350>
VStem: 41 86<189.5 236.5> 121 94<562 588> 290 94<562 588> 377 86<183.5 254>
AnchorPoint: "Anchor-5" 241 -3 basechar 0
AnchorPoint: "Anchor-4" 372 44 basechar 0
AnchorPoint: "Anchor-2" 243 -110 basechar 0
AnchorPoint: "Anchor-0" 255 834 basechar 0
LayerCount: 2
Fore
SplineSet
41 205 m 0xd2
 41 268 60 326 96 369 c 0
 133 412 187 439 253 439 c 0
 406 439 463 318 463 214 c 0
 463 153 443 90 398 46 c 0
 364 13 315 -10 251 -10 c 0
 109 -10 41 103 41 205 c 0xd2
238 404 m 0
 148 404 127 315 127 228 c 0
 127 151 161 25 265 25 c 0
 312 25 377 56 377 182 c 0
 377 326 324 404 238 404 c 0
121 575 m 0xec
 121 601 142 623 168 623 c 0
 194 623 215 601 215 575 c 0
 215 549 194 528 168 528 c 0
 142 528 121 549 121 575 c 0xec
290 575 m 0
 290 601 311 623 337 623 c 0
 363 623 384 601 384 575 c 0
 384 549 363 528 337 528 c 0
 311 528 290 549 290 575 c 0
EndSplineSet
MultipleSubs2: "'smcp' Lowercase to Small Capitals lookup 10 subtable" odieresis.sc
EndChar

StartChar: divide
Encoding: 247 247 183
Width: 550
GlyphClass: 2
Flags: MW
HStem: 75 88<258 282.5> 226 50<70.5 476 85 463> 343 88<258 282.5>
VStem: 226 89<107 131 375 399>
LayerCount: 2
Fore
SplineSet
463 226 m 2
 75 226 l 2
 66 226 60 234 60 242 c 0
 60 257 73 276 85 276 c 2
 476 276 l 2
 486 276 490 267 490 259 c 0
 490 249 476 226 463 226 c 2
226 387 m 0
 226 411 246 431 270 431 c 0
 295 431 315 411 315 387 c 0
 315 363 295 343 270 343 c 0
 246 343 226 363 226 387 c 0
226 119 m 0
 226 143 246 163 270 163 c 0
 295 163 315 143 315 119 c 0
 315 95 295 75 270 75 c 0
 246 75 226 95 226 119 c 0
EndSplineSet
EndChar

StartChar: oslash
Encoding: 248 248 184
Width: 504
GlyphClass: 2
Flags: MW
HStem: -10 35<241 283> -2 21G<38 38> 404 35<220 257.5>
VStem: 41 86<213 236.5> 377 86<183.5 210>
AnchorPoint: "Anchor-5" 241 -3 basechar 0
AnchorPoint: "Anchor-4" 372 44 basechar 0
AnchorPoint: "Anchor-2" 243 -110 basechar 0
LayerCount: 2
Fore
SplineSet
414 454 m 1xb8
 431 454 441 444 445 431 c 1
 403 380 l 1
 445 335 463 272 463 214 c 0
 463 153 443 90 398 46 c 0
 364 13 315 -10 251 -10 c 0
 196 -10 152 7 119 34 c 1
 68 -28 l 1xb8
 52 -28 40 -17 38 -2 c 1
 91 62 l 1x78
 57 103 41 155 41 205 c 0
 41 268 60 326 96 369 c 0
 133 412 187 439 253 439 c 0
 303 439 343 426 374 405 c 1
 414 454 l 1xb8
354 320 m 1
 163 87 l 1
 185 51 217 25 265 25 c 0
 312 25 377 56 377 182 c 0
 377 238 369 285 354 320 c 1
238 404 m 0
 148 404 127 315 127 228 c 0
 127 198 132 161 144 127 c 1
 333 356 l 1
 310 388 277 404 238 404 c 0
EndSplineSet
MultipleSubs2: "'smcp' Lowercase to Small Capitals lookup 10 subtable" oslash.sc
EndChar

StartChar: ugrave
Encoding: 249 249 185
Width: 531
GlyphClass: 2
Flags: MW
HStem: -10 47<232 236.5> 30 27<515 515> 411 20G<163 165.5 438 440.5>
VStem: 88 79<126 140 140 318 318 322> 363 79<124 130 130 317 317 322>
AnchorPoint: "Anchor-0" 255 834 basechar 0
LayerCount: 2
Fore
SplineSet
217 -10 m 0xb8
 118 -10 88 57 88 126 c 2
 88 318 l 2
 88 383 74 394 26 398 c 1
 20 404 20 425 26 431 c 1
 60 430 96 429 128 429 c 0
 143 429 158 430 163 431 c 0
 168 431 171 428 171 425 c 2
 171 425 167 352 167 322 c 2
 167 140 l 2
 167 51 217 37 247 37 c 0
 272 37 310 53 347 85 c 0
 361 97 363 105 363 124 c 2xb8
 363 317 l 2
 363 383 350 395 301 398 c 1
 295 404 295 425 301 431 c 1
 335 430 371 429 403 429 c 0
 418 429 433 430 438 431 c 0
 443 431 446 428 446 425 c 2
 446 425 442 352 442 322 c 2
 442 130 l 2
 442 81 451 62 515 57 c 1
 521 51 521 36 515 30 c 1x78
 454 23 419 8 397 -10 c 0
 391 -12 386 -13 378 -10 c 1
 378 -10 370 24 367 49 c 0
 366 56 357 54 352 50 c 0
 303 10 256 -10 217 -10 c 0xb8
219 671 m 2
 289 545 l 2
 294 535 295 528 295 521 c 0
 295 516 288 510 280 510 c 0
 274 510 267 515 251 530 c 2
 137 639 l 1
 139 650 l 1
 147 656 170 673 204 673 c 0
 209 673 215 672 219 671 c 2
EndSplineSet
MultipleSubs2: "'smcp' Lowercase to Small Capitals lookup 10 subtable" ugrave.sc
EndChar

StartChar: uacute
Encoding: 250 250 186
Width: 531
GlyphClass: 2
Flags: MW
HStem: -10 47<232 236.5> 30 27<515 515> 411 20G<163 165.5 438 440.5>
VStem: 88 79<126 140 140 318 318 322> 363 79<124 130 130 317 317 322>
AnchorPoint: "Anchor-0" 255 834 basechar 0
LayerCount: 2
Fore
SplineSet
217 -10 m 0xb8
 118 -10 88 57 88 126 c 2
 88 318 l 2
 88 383 74 394 26 398 c 1
 20 404 20 425 26 431 c 1
 60 430 96 429 128 429 c 0
 143 429 158 430 163 431 c 0
 168 431 171 428 171 425 c 2
 171 425 167 352 167 322 c 2
 167 140 l 2
 167 51 217 37 247 37 c 0
 272 37 310 53 347 85 c 0
 361 97 363 105 363 124 c 2xb8
 363 317 l 2
 363 383 350 395 301 398 c 1
 295 404 295 425 301 431 c 1
 335 430 371 429 403 429 c 0
 418 429 433 430 438 431 c 0
 443 431 446 428 446 425 c 2
 446 425 442 352 442 322 c 2
 442 130 l 2
 442 81 451 62 515 57 c 1
 521 51 521 36 515 30 c 1x78
 454 23 419 8 397 -10 c 0
 391 -12 386 -13 378 -10 c 1
 378 -10 370 24 367 49 c 0
 366 56 357 54 352 50 c 0
 303 10 256 -10 217 -10 c 0xb8
297 671 m 2
 300 672 306 673 311 673 c 0
 317 673 343 672 366 650 c 1
 369 639 l 1
 254 530 l 2
 239 515 231 511 224 511 c 0
 217 511 210 517 210 524 c 0
 210 535 213 539 221 552 c 2
 297 671 l 2
EndSplineSet
MultipleSubs2: "'smcp' Lowercase to Small Capitals lookup 10 subtable" uacute.sc
EndChar

StartChar: ucircumflex
Encoding: 251 251 187
Width: 531
GlyphClass: 2
Flags: MW
HStem: -10 47<232 236.5> 30 27<515 515> 411 20G<163 165.5 438 440.5>
VStem: 88 79<126 140 140 318 318 322> 363 79<124 130 130 317 317 322>
AnchorPoint: "Anchor-0" 247 834 basechar 0
LayerCount: 2
Fore
SplineSet
217 -10 m 0xb8
 118 -10 88 57 88 126 c 2
 88 318 l 2
 88 383 74 394 26 398 c 1
 20 404 20 425 26 431 c 1
 60 430 96 429 128 429 c 0
 143 429 158 430 163 431 c 0
 168 431 171 428 171 425 c 2
 171 425 167 352 167 322 c 2
 167 140 l 2
 167 51 217 37 247 37 c 0
 272 37 310 53 347 85 c 0
 361 97 363 105 363 124 c 2xb8
 363 317 l 2
 363 383 350 395 301 398 c 1
 295 404 295 425 301 431 c 1
 335 430 371 429 403 429 c 0
 418 429 433 430 438 431 c 0
 443 431 446 428 446 425 c 2
 446 425 442 352 442 322 c 2
 442 130 l 2
 442 81 451 62 515 57 c 1
 521 51 521 36 515 30 c 1x78
 454 23 419 8 397 -10 c 0
 391 -12 386 -13 378 -10 c 1
 378 -10 370 24 367 49 c 0
 366 56 357 54 352 50 c 0
 303 10 256 -10 217 -10 c 0xb8
263 660 m 1
 292 613 336 560 372 520 c 1
 367 513 358 505 349 503 c 1
 311 527 276 555 246 586 c 1
 214 554 181 525 142 503 c 1
 133 505 126 511 120 520 c 1
 156 560 202 614 231 660 c 1
 242 662 252 663 263 660 c 1
EndSplineSet
MultipleSubs2: "'smcp' Lowercase to Small Capitals lookup 10 subtable" ucircumflex.sc
EndChar

StartChar: udieresis
Encoding: 252 252 188
Width: 531
GlyphClass: 2
Flags: MW
HStem: -10 47<232 236.5> 30 27<515 515> 411 20G<163 165.5 438 440.5> 528 95<157 183 326 352>
VStem: 88 79<126 140 140 318 318 322> 123 94<562 588> 292 94<562 588> 363 79<124 130 130 317 317 322>
AnchorPoint: "Anchor-0" 255 834 basechar 0
LayerCount: 2
Fore
SplineSet
217 -10 m 0xb9
 118 -10 88 57 88 126 c 2
 88 318 l 2
 88 383 74 394 26 398 c 1
 20 404 20 425 26 431 c 1
 60 430 96 429 128 429 c 0
 143 429 158 430 163 431 c 0
 168 431 171 428 171 425 c 2
 171 425 167 352 167 322 c 2
 167 140 l 2
 167 51 217 37 247 37 c 0
 272 37 310 53 347 85 c 0
 361 97 363 105 363 124 c 2xb9
 363 317 l 2
 363 383 350 395 301 398 c 1
 295 404 295 425 301 431 c 1
 335 430 371 429 403 429 c 0
 418 429 433 430 438 431 c 0
 443 431 446 428 446 425 c 2
 446 425 442 352 442 322 c 2
 442 130 l 2
 442 81 451 62 515 57 c 1
 521 51 521 36 515 30 c 1x79
 454 23 419 8 397 -10 c 0
 391 -12 386 -13 378 -10 c 1
 378 -10 370 24 367 49 c 0
 366 56 357 54 352 50 c 0
 303 10 256 -10 217 -10 c 0xb9
123 575 m 0xb6
 123 601 144 623 170 623 c 0
 196 623 217 601 217 575 c 0
 217 549 196 528 170 528 c 0
 144 528 123 549 123 575 c 0xb6
292 575 m 0
 292 601 313 623 339 623 c 0
 365 623 386 601 386 575 c 0
 386 549 365 528 339 528 c 0
 313 528 292 549 292 575 c 0
EndSplineSet
MultipleSubs2: "'smcp' Lowercase to Small Capitals lookup 10 subtable" udieresis.sc
EndChar

StartChar: yacute
Encoding: 253 253 189
Width: 515
GlyphClass: 2
Flags: MW
HStem: -232 77<93.5 145.5> 398 33<16 16 210 210 341 341 503 503>
VStem: 12 153 337 171 393 115
AnchorPoint: "Anchor-0" 255 834 basechar 0
LayerCount: 2
Fore
SplineSet
204 -160 m 0xe8
 168 -224 128 -232 107 -232 c 0
 80 -232 60 -216 60 -195 c 0
 60 -182 75 -152 104 -152 c 0
 115 -152 119 -155 133 -155 c 0
 158 -155 172 -146 183 -126 c 0
 198 -95 210 -67 222 -34 c 0
 232 -6 217 40 208 60 c 2
 95 323 l 2
 69 384 56 393 16 398 c 1
 10 404 10 425 16 431 c 1
 36 430 63 429 97 429 c 0
 133 429 173 430 210 431 c 1
 216 425 216 404 210 398 c 1
 154 394 159 375 177 333 c 2
 266 125 l 2
 274 105 283 108 290 124 c 2
 389 353 l 2
 405 389 373 395 341 398 c 1
 335 404 335 425 341 431 c 1
 371 430 402 429 432 429 c 0
 460 429 483 430 503 431 c 1
 509 425 509 404 503 398 c 1
 456 392 442 376 422 334 c 0
 370 222 325 119 245 -74 c 0
 233 -104 220 -132 204 -160 c 0xe8
315 671 m 2
 318 672 324 673 329 673 c 0
 335 673 361 672 384 650 c 1
 387 639 l 1
 272 530 l 2
 257 515 249 511 242 511 c 0
 235 511 228 517 228 524 c 0
 228 535 231 539 239 552 c 2
 315 671 l 2
EndSplineSet
MultipleSubs2: "'smcp' Lowercase to Small Capitals lookup 10 subtable" yacute.sc
EndChar

StartChar: thorn
Encoding: 254 254 190
Width: 502
GlyphClass: 2
Flags: MW
HStem: -234 21G -10 34<241 279.5> 393 46<269.5 281.5> 641 30 678 20G<154 158.5> 688 10<154 167>
VStem: 84 77<82 98 98 288> 84 79<-110 -10 381 392 392 559 559 583> 379 86<194.5 238>
AnchorPoint: "Anchor-0" 278 646 basechar 0
LayerCount: 2
Fore
SplineSet
84 559 m 2xf180
 84 638 73 638 29 641 c 2
 20 641 l 1
 14 647 12 663 14 671 c 1xf180
 54 674 129 688 154 698 c 0
 163 698 167 695 167 688 c 2xe580
 167 688 163 648 163 583 c 2
 163 392 l 2
 163 370 165 370 180 385 c 0
 205 411 244 439 295 439 c 0
 392 439 465 340 465 235 c 0
 465 154 438 93 393 48 c 0
 354 9 306 -10 253 -10 c 0
 226 -10 203 -5 182 3 c 2
 176 6 l 2
 168 10 163 13 163 -10 c 2
 163 -110 l 2
 163 -193 174 -197 245 -201 c 1
 251 -207 251 -228 245 -234 c 1
 202 -233 171 -232 124 -232 c 0
 80 -232 54 -233 12 -234 c 1
 6 -228 6 -207 12 -201 c 1
 73 -198 84 -193 84 -110 c 2
 84 559 l 2xf180
161 288 m 2xea80
 161 98 l 2
 161 66 166 60 178 50 c 0
 206 25 234 24 248 24 c 0
 354 24 379 121 379 208 c 0
 379 268 370 326 327 369 c 0
 312 384 294 393 269 393 c 0
 236 393 161 358 161 288 c 2xea80
EndSplineSet
MultipleSubs2: "'smcp' Lowercase to Small Capitals lookup 10 subtable" thorn.sc
EndChar

StartChar: ydieresis
Encoding: 255 255 191
Width: 515
GlyphClass: 2
Flags: MW
HStem: -232 77<93.5 145.5> 398 33<16 16 210 210 341 341 503 503> 528 95<174 200 343 369>
VStem: 12 153 140 94<562 588> 309 94<562 588> 337 171 393 115
AnchorPoint: "Anchor-0" 255 834 basechar 0
LayerCount: 2
Fore
SplineSet
204 -160 m 0xe9
 168 -224 128 -232 107 -232 c 0
 80 -232 60 -216 60 -195 c 0
 60 -182 75 -152 104 -152 c 0
 115 -152 119 -155 133 -155 c 0
 158 -155 172 -146 183 -126 c 0
 198 -95 210 -67 222 -34 c 0
 232 -6 217 40 208 60 c 2
 95 323 l 2
 69 384 56 393 16 398 c 1
 10 404 10 425 16 431 c 1
 36 430 63 429 97 429 c 0
 133 429 173 430 210 431 c 1
 216 425 216 404 210 398 c 1
 154 394 159 375 177 333 c 2
 266 125 l 2
 274 105 283 108 290 124 c 2
 389 353 l 2xf1
 405 389 373 395 341 398 c 1
 335 404 335 425 341 431 c 1
 371 430 402 429 432 429 c 0
 460 429 483 430 503 431 c 1
 509 425 509 404 503 398 c 1
 456 392 442 376 422 334 c 0
 370 222 325 119 245 -74 c 0
 233 -104 220 -132 204 -160 c 0xe9
140 575 m 0
 140 601 161 623 187 623 c 0
 213 623 234 601 234 575 c 0
 234 549 213 528 187 528 c 0
 161 528 140 549 140 575 c 0
309 575 m 0xec
 309 601 330 623 356 623 c 0
 382 623 403 601 403 575 c 0
 403 549 382 528 356 528 c 0
 330 528 309 549 309 575 c 0xec
EndSplineSet
MultipleSubs2: "'smcp' Lowercase to Small Capitals lookup 10 subtable" ydieresis.sc
EndChar

StartChar: Amacron
Encoding: 256 256 192
Width: 695
GlyphClass: 2
Flags: MW
HStem: -2 33<7 7 224 224 440 440 685 685> 241 42<233 440 263 440 263 456> 638 20G 738 50<233.5 472 247 462>
VStem: 3 149
LayerCount: 2
Fore
SplineSet
155 79 m 2
 139 38 186 34 224 31 c 1
 230 25 230 4 224 -2 c 1
 187 -1 137 0 96 0 c 0
 66 0 33 -1 7 -2 c 1
 1 4 1 25 7 31 c 1
 51 34 81 40 107 102 c 2
 334 638 l 1
 347 638 374 649 389 658 c 1
 595 86 l 2
 612 38 646 35 685 31 c 1
 691 25 691 4 685 -2 c 1
 650 -1 612 0 571 0 c 0
 532 0 477 -1 440 -2 c 1
 434 4 434 25 440 31 c 1
 488 34 526 38 514 72 c 2
 456 241 l 1
 245 241 l 2
 221 241 215 237 210 224 c 2
 155 79 l 2
263 283 m 2
 440 283 l 1
 346 555 l 1
 340 555 l 1
 238 296 l 2
 234 286 241 283 263 283 c 2
462 738 m 2
 238 738 l 2
 229 738 225 749 225 756 c 0
 225 768 236 788 247 788 c 2
 472 788 l 2
 482 788 486 777 486 771 c 0
 486 759 475 738 462 738 c 2
EndSplineSet
MultipleSubs2: "'c2sc' Capitals to Small Capitals lookup 12 subtable" a.sc uni0304
Position2: "'cpsp' Capital Spacing lookup 3 subtable" dx=2 dy=0 dh=5 dv=0
EndChar

